<?xml version="1.0" encoding="UTF-8"?>
<!DOCTYPE svg PUBLIC "-//W3C//DTD SVG 1.1//EN" "http://www.w3.org/Graphics/SVG/1.1/DTD/svg11.dtd">
<!-- Creator: CorelDRAW -->
<svg xmlns="http://www.w3.org/2000/svg" xml:space="preserve" width="39mm" height="39mm" version="1.1" style="shape-rendering:geometricPrecision; text-rendering:geometricPrecision; image-rendering:optimizeQuality; fill-rule:evenodd; clip-rule:evenodd"
viewBox="0 0 3900 3900"
 xmlns:xlink="http://www.w3.org/1999/xlink"
 xmlns:xodm="http://www.corel.com/coreldraw/odm/2003">
 <defs>
  <style type="text/css">
   <![CDATA[
    .str0 {stroke:#FEFEFE;stroke-width:7.62;stroke-miterlimit:22.9256}
    .fil0 {fill:none}
    .fil1 {fill:#FEFEFE}
    .fil4 {fill:#828486}
    .fil2 {fill:#355094;fill-rule:nonzero}
    .fil3 {fill:#828486;fill-rule:nonzero}
   ]]>
  </style>
 </defs>
 <g id="Layer_x0020_1">
  <metadata id="CorelCorpID_0Corel-Layer"/>
  <path class="fil0 str0" d="M11799.59 3432.78c-16.06,-2.85 -33.2,-5.34 -56.4,-4.45 -23.2,0.89 -52.47,5.18 -76.75,13.56 -24.27,8.39 -43.54,20.89 -59.43,36.06 -15.88,15.17 -28.38,33.01 -36.05,52.46 -7.67,19.46 -10.53,40.52 -8.21,59.26 2.32,18.74 9.82,35.16 21.95,50.51 12.14,15.35 28.91,29.63 47.83,41.59 18.92,11.96 39.99,21.59 60.33,29.44 20.35,7.86 39.98,13.93 58.9,20.71 18.92,6.78 37.12,14.28 49.08,21.59 11.96,7.32 17.67,14.46 21.41,23.2 3.75,8.75 5.54,19.11 3.57,27.67 -1.96,8.57 -7.67,15.35 -18.2,21.59 -10.53,6.25 -25.88,11.97 -44.62,13.57 -18.74,1.61 -40.87,-0.89 -57.83,-4.28 -16.95,-3.39 -28.73,-7.68 -41.58,-11.96 -12.85,-4.28 -26.77,-8.57 -35.7,-12.32 -8.92,-3.74 -12.84,-6.96 -16.59,-9.1 -3.75,-2.14 -7.32,-3.21 -11.43,-3.21 -4.1,0 -8.74,1.07 -13.74,7.49 -4.99,6.43 -10.35,18.21 -16.6,30.88 -6.24,12.68 -13.38,26.24 -17.67,35.16 -4.28,8.93 -5.7,13.22 -5.88,16.61 -0.18,3.39 0.89,5.88 6.24,9.8 5.36,3.93 14.99,9.29 28.02,15.18 13.03,5.89 29.45,12.31 49.08,17.66 19.64,5.36 42.48,9.65 65.15,12.14 22.67,2.5 45.15,3.22 68.17,1.43 23.03,-1.78 46.59,-6.07 68.72,-13.03 22.13,-6.96 42.84,-16.59 59.08,-28.37 16.24,-11.78 28.02,-25.71 37.12,-38.03 9.1,-12.31 15.53,-23.01 19.45,-35.86 3.93,-12.85 5.35,-27.85 4.81,-41.24 -0.53,-13.38 -3.02,-25.16 -8.73,-39.08 -5.71,-13.92 -14.64,-29.99 -25.71,-42.13 -11.06,-12.13 -24.26,-20.34 -41.22,-29.09 -16.95,-8.74 -37.66,-18.02 -56.76,-24.98 -19.09,-6.96 -36.59,-11.6 -55.33,-17.67 -18.74,-6.07 -38.73,-13.56 -52.12,-21.06 -13.38,-7.5 -20.16,-14.99 -23.55,-24.1 -3.39,-9.1 -3.39,-19.8 0.53,-29.08 3.93,-9.28 11.79,-17.14 21.6,-22.85 9.82,-5.71 21.6,-9.28 33.91,-10.89 12.32,-1.6 25.17,-1.25 37.66,0 12.5,1.25 24.63,3.39 32.66,5.35 8.04,1.97 11.96,3.75 15.53,2.68 3.57,-1.07 6.78,-4.99 12.67,-15.17 5.89,-10.17 14.45,-26.59 19.63,-37.3 5.18,-10.71 6.96,-15.7 6.96,-19.99 0,-4.28 -1.78,-7.85 -6.07,-11.24 -4.28,-3.39 -11.06,-6.61 -21.95,-9.82 -10.88,-3.21 -25.88,-6.43 -41.94,-9.29z"/>
  <path class="fil0 str0" d="M12176.48 3433.65c-17.7,3.35 -36.92,8.71 -55.57,16.93 -18.65,8.22 -36.73,19.28 -53.88,32.51 -17.14,13.23 -33.34,28.62 -46.44,45.09 -13.09,16.47 -23.08,34.02 -31.18,54.67 -8.1,20.66 -14.3,44.41 -17.68,66.01 -3.37,21.6 -3.91,41.04 -1.75,63.04 2.16,22.01 7.01,46.57 14.84,68.71 7.83,22.14 18.63,41.84 32.53,59.93 13.91,18.09 30.92,34.56 49.95,49.27 19.04,14.72 40.09,27.68 62.63,37.26 22.55,9.59 46.58,15.79 71.15,18.49 24.57,2.7 49.67,1.89 74.51,-2.84 24.84,-4.72 49.4,-13.35 68.16,-21.32 18.77,-7.96 31.73,-15.25 41.85,-21.87 10.13,-6.61 17.42,-12.55 21.74,-16.6 4.32,-4.05 5.67,-6.21 5.8,-8.64 0.14,-2.43 -0.94,-5.13 -7.02,-12.83 -6.07,-7.69 -17.14,-20.38 -26.46,-31.05 -9.31,-10.66 -16.87,-19.29 -22.41,-24.56 -5.53,-5.26 -9.04,-7.15 -12.28,-7.15 -3.24,0 -6.21,1.89 -12.96,6.07 -6.75,4.19 -17.27,10.67 -30.1,16.61 -12.82,5.94 -27.94,11.33 -41.17,14.43 -13.23,3.11 -24.57,3.92 -37.67,3.24 -13.09,-0.67 -27.93,-2.83 -43.59,-8.1 -15.66,-5.26 -32.13,-13.62 -46.17,-24.42 -14.04,-10.8 -25.65,-24.03 -34.7,-38.48 -9.04,-14.44 -15.51,-30.1 -18.75,-47.92 -3.24,-17.82 -3.24,-37.79 -0.81,-56.29 2.43,-18.49 7.29,-35.5 15.39,-50.76 8.1,-15.25 19.43,-28.74 31.98,-39.81 12.56,-11.07 26.33,-19.71 40.64,-25.92 14.31,-6.21 29.16,-9.99 44.82,-11.48 15.66,-1.48 32.12,-0.67 45.75,0.95 13.64,1.62 24.44,4.05 32.4,6.48 7.97,2.43 13.1,4.86 17.28,5.4 4.19,0.54 7.43,-0.81 9.89,-3.79 2.47,-2.97 4.15,-7.56 9.93,-20.59 5.79,-13.02 15.67,-34.48 21.45,-46.9 5.78,-12.41 7.45,-15.79 7.68,-18.79 0.24,-3 -0.98,-5.61 -4.12,-7.79 -3.13,-2.18 -8.18,-3.92 -20.98,-7.21 -12.79,-3.28 -33.31,-8.11 -52.04,-11.04 -18.72,-2.92 -35.65,-3.94 -52.21,-3.79 -16.55,0.16 -32.73,1.5 -50.43,4.85z"/>
  <path class="fil0 str0" d="M12589.06 3438.29c-17.41,4.85 -36.25,11.28 -57.33,23.94 -21.07,12.66 -44.37,31.55 -63.82,51.9 -19.44,20.35 -35.03,42.17 -46.04,69.08 -11.01,26.91 -17.46,58.91 -19.54,87.06 -2.07,28.16 0.21,52.48 5.82,76.58 5.62,24.11 14.55,48 27.12,70.44 12.58,22.45 28.78,43.43 51.12,62.34 22.34,18.91 50.81,35.75 78.65,47.17 27.85,11.43 55.07,17.46 82.6,18.7 27.54,1.25 55.38,-2.28 80.83,-9.14 25.46,-6.85 48.53,-17.04 71.07,-32.52 22.55,-15.48 44.57,-36.26 60.99,-56.63 16.42,-20.36 27.22,-40.3 36,-61.31 8.79,-21 15.55,-43.05 19.09,-58.44 3.55,-15.38 3.87,-24.08 3.15,-29.58 -0.72,-5.49 -2.5,-7.78 -32.64,-21.49 -30.14,-13.71 -88.65,-38.84 -119.88,-51.83 -31.23,-12.98 -35.18,-13.82 -38.2,-13.3 -3.01,0.52 -5.08,2.39 -7.37,5.19 -2.28,2.81 -4.78,6.55 -10.5,18.7 -5.71,12.16 -14.64,32.74 -20.05,45.31 -5.4,12.57 -7.27,17.14 -8.1,20.98 -0.83,3.85 -0.62,6.97 0.83,9.57 1.46,2.6 4.16,4.67 19.53,11.53 15.38,6.86 43.44,18.49 60.63,25.37 17.19,6.89 23.52,9.01 26.22,11.09 2.71,2.09 1.79,4.14 -0.44,7.96 -2.23,3.82 -5.77,9.41 -12.74,16.99 -6.96,7.58 -17.35,17.13 -28.26,25.65 -10.91,8.52 -22.34,16.01 -37.34,21.34 -14.99,5.34 -33.54,8.54 -54.58,7.79 -21.04,-0.74 -44.55,-5.41 -63.95,-14.28 -19.4,-8.87 -34.67,-21.94 -47.09,-37.1 -12.42,-15.15 -21.98,-32.39 -27.59,-48.91 -5.61,-16.52 -7.28,-32.32 -7.18,-48.63 0.11,-16.31 1.98,-33.14 6.76,-49.35 4.78,-16.21 12.47,-31.79 21.92,-44.89 9.46,-13.09 20.68,-23.68 33.87,-32.52 13.2,-8.83 28.37,-15.89 43.75,-20.57 15.38,-4.67 30.96,-6.96 46.75,-6.86 15.8,0.11 31.8,2.61 43.54,5.2 11.74,2.6 19.22,5.3 24.93,6.96 5.72,1.66 9.66,2.29 12.36,1.77 2.71,-0.52 4.16,-2.19 6.13,-5 1.98,-2.8 4.48,-6.74 10.64,-19.98 6.16,-13.24 16,-35.77 21.46,-48.87 5.47,-13.1 6.58,-16.77 6.39,-19.56 -0.18,-2.78 -1.65,-4.67 -3.9,-6.33 -2.25,-1.65 -5.27,-3.06 -13.23,-5.43 -7.95,-2.37 -20.84,-5.69 -35.28,-8.19 -14.44,-2.49 -30.44,-4.15 -46.99,-5.56 -16.55,-1.4 -33.65,-2.56 -50.19,-1.51 -16.54,1.06 -32.51,4.32 -49.92,9.17z"/>
  <path class="fil0 str0" d="M12950.16 3531.79c-0.54,77.14 -1.43,229.23 -1.79,306.8 -0.35,77.57 -0.18,80.63 0.5,83.48 0.69,2.86 1.89,5.52 3.5,7.8 1.62,2.29 3.67,4.22 6.02,5.85 2.35,1.64 5,2.98 17.57,3.4 12.57,0.43 35.05,-0.08 47.95,-0.3 12.91,-0.22 16.23,-0.17 19.29,-0.77 3.06,-0.59 5.84,-1.83 8.24,-3.54 2.4,-1.7 4.42,-3.86 5.42,-7.54 1.01,-3.68 1.01,-8.89 1.04,-30.9 0.03,-22 0.09,-60.81 0.16,-81.06 0.08,-20.25 0.17,-21.95 0.83,-23.99 0.67,-2.03 1.92,-4.4 3.33,-6.01 1.42,-1.61 3,-2.44 4.78,-2.96 1.79,-0.51 3.78,-0.7 21.28,-0.76 17.5,-0.06 50.52,0 71.72,0.06 21.21,0.07 30.59,0.12 41.84,-1.92 11.26,-2.04 24.37,-6.17 38.27,-12.09 13.91,-5.92 28.6,-13.61 43.71,-26.15 15.12,-12.53 30.66,-29.89 41.77,-51.5 11.11,-21.61 17.79,-47.46 19.11,-72.76 1.32,-25.3 -2.71,-50.06 -10.66,-71.6 -7.94,-21.53 -19.79,-39.85 -33.76,-54.84 -13.97,-14.99 -30.06,-26.64 -44.12,-34.31 -14.05,-7.66 -26.08,-11.32 -36.11,-13.95 -10.02,-2.63 -18.04,-4.23 -24.51,-5.2 -6.47,-0.97 -11.37,-1.31 -49.21,-1.53 -37.83,-0.22 -108.59,-0.32 -145.16,-0.12 -36.57,0.21 -38.96,0.7 -41.29,1.81 -2.33,1.11 -4.6,2.84 -6.06,5.11 -1.45,2.28 -2.07,5.12 -2.49,7.63 -0.41,2.52 -0.62,4.72 -1.17,81.86z"/>
  <path class="fil0 str0" d="M13058.51 3571.95c-0.07,17.33 -0.07,50.73 -0.02,68.52 0.05,17.8 0.15,19.98 0.54,21.76 0.4,1.79 1.1,3.17 2.28,4.41 1.19,1.24 2.88,2.33 4.66,3.22 1.78,0.89 3.67,1.59 22.6,1.88 18.93,0.3 54.92,0.21 74.06,0.06 19.14,-0.14 21.45,-0.34 24,-0.89 2.56,-0.54 5.38,-1.44 8.57,-2.67 3.2,-1.22 6.79,-2.78 11.07,-5.57 4.29,-2.79 9.28,-6.82 13.97,-12.72 4.69,-5.89 9.09,-13.65 11.49,-21.29 2.41,-7.63 2.84,-15.15 2.79,-22.12 -0.04,-6.97 -0.55,-13.39 -2.57,-19.27 -2.01,-5.88 -5.54,-11.2 -9.58,-16.18 -4.03,-4.98 -8.58,-9.6 -13.12,-13.2 -4.53,-3.6 -9.04,-6.18 -12.25,-7.75 -3.21,-1.57 -5.12,-2.13 -7.28,-2.6 -2.15,-0.46 -4.57,-0.83 -24.25,-1.13 -19.67,-0.3 -56.62,-0.53 -76.2,-0.53 -19.58,0.01 -21.81,0.25 -23.6,0.76 -1.79,0.51 -3.16,1.28 -4.22,2.23 -1.06,0.96 -1.81,2.11 -2.27,3.3 -0.45,1.2 -0.59,2.45 -0.67,19.78z"/>
  <g id="_2602409686224">
   <rect class="fil1" x="-5.81" y="5.78" width="3900" height="3900"/>
   <g>
    <g>
     <g>
      <path class="fil2" d="M94.2 2116.68l0 -618.23 205.45 0c205.45,0 332.46,132.61 332.46,324.99 0,141.95 -113.93,291.37 -306.31,291.37l0 -175.57c63.5,-5.6 100.86,-54.16 100.86,-132.6 0,-61.64 -31.75,-132.61 -128.87,-132.61l0 440.79 -203.59 -0.01 0 1.87z"/>
      <path class="fil2" d="M910.41 1498.45l0 407.17c0,24.28 14.94,46.7 48.56,46.7 31.75,0 48.56,-20.54 48.56,-46.7l0 -407.17 212.92 0 0 418.38c0,127.01 -123.28,209.19 -261.49,209.19 -138.21,0 -261.49,-82.19 -261.49,-209.19l0.01 -418.38 212.93 0z"/>
      <path class="fil2" d="M1435.24 2114.81l0 -216.66c-31.75,-3.73 -69.11,-18.68 -98.99,-46.69 -28.02,-26.15 -50.43,-63.51 -50.43,-115.8l0 -239.07 225.99 0 0 214.79c0,24.28 16.81,28.02 35.49,28.02 18.68,0 35.49,-3.74 35.49,-28.02l0 -214.79 226 0 0 239.07c0,104.6 -85.92,153.16 -149.43,162.5l0 216.66 -224.12 -0.01z"/>
      <polygon class="fil2" points="1894.7,1498.45 2419.54,1498.45 2419.54,1674.02 2283.19,1674.02 2283.19,2114.81 2029.18,2114.81 2029.18,1675.89 1894.7,1675.89 "/>
      <path class="fil2" d="M2718.38 1771.14l65.37 0 0 -54.16c0,-31.76 -20.54,-50.43 -48.56,-50.43 -28.01,0 -46.69,18.67 -46.69,50.43l0 399.7 -211.06 0 0 -395.97c0,-85.92 69.11,-233.47 257.75,-233.47 188.65,0 257.76,145.69 257.76,233.47l0 395.97 -211.07 0 0 -188.65 -65.37 0 0 -156.89 1.87 0z"/>
      <path class="fil2" d="M3267.5 2116.68l-197.98 0 0 -517.37c0,-87.78 67.24,-112.07 106.46,-112.07 56.03,0 97.12,37.36 115.8,70.98l100.86 194.24 1.86 0 0 -252.14 197.98 0 0 519.24c0,87.78 -67.24,112.06 -106.46,112.06 -56.03,0 -97.12,-37.36 -115.8,-70.97l-100.86 -194.25 -1.86 0 0 250.28z"/>
     </g>
     <g>
      <g>
       <path class="fil2" d="M3719.49 1649.74c-41.09,0 -74.7,-33.62 -74.7,-74.71 0,-41.09 33.62,-74.71 74.7,-74.71 41.09,0 74.71,33.63 74.71,74.71 0,41.09 -33.62,74.71 -74.71,74.71zm0 -136.34c-33.62,0 -61.63,28.01 -61.63,61.63 0,33.62 28.02,61.63 61.63,61.63 33.63,0 61.64,-28.01 61.64,-61.63 0,-33.62 -26.15,-61.63 -61.64,-61.63z"/>
      </g>
      <g>
       <g>
        <path class="fil2" d="M3710.15 1580.64l0 26.14 -13.07 0 0 -63.5 28.02 0c13.07,0 20.54,7.47 20.54,16.81 0,9.34 -3.73,13.07 -9.34,14.94 3.73,1.87 7.47,3.73 7.47,14.94l0 3.74c0,3.73 0,9.34 0,11.21l-13.07 -0.01c-1.88,-1.87 -1.88,-7.47 -1.88,-14.94l0 0c0,-7.47 -1.87,-9.34 -11.21,-9.34l-7.46 0.01zm0 -11.21l11.21 0c7.47,0 11.21,-3.74 11.21,-7.47 0,-5.61 -3.73,-7.47 -9.34,-7.47l-13.08 0 0 14.94z"/>
       </g>
      </g>
     </g>
    </g>
    <g>
     <path class="fil3" d="M1783.79 2422.13l18.76 0 0 -59.3c0,-3.04 0.43,-6.09 1.53,-8.73 3.05,-8.93 11.77,-17.87 23.77,-17.87 14.61,0 22.03,11.37 22.03,27.01l0 58.89 18.75 0 0 -60.72c0,-3.25 0.65,-6.5 1.52,-8.93 3.27,-8.73 11.78,-16.25 22.68,-16.25 15.49,0 22.9,11.37 22.9,30.26l0 55.64 18.76 0 0 -57.88c0,-34.11 -20.72,-42.64 -34.67,-42.64 -10.04,0 -17.02,2.44 -23.34,6.9 -4.36,3.05 -8.51,7.31 -11.78,12.8l-0.43 0c-4.58,-11.58 -15.48,-19.7 -29.88,-19.7 -17.45,0 -27.26,8.73 -33.15,18.07l-0.65 0 -0.88 -15.84 -16.79 0c0.66,8.13 0.87,16.45 0.87,26.6l0 71.69zm266.71 -45.89c0.22,-1.83 0.66,-4.68 0.66,-8.33 0,-18.07 -9.16,-46.3 -43.61,-46.3 -30.76,0 -49.51,23.35 -49.51,53 0,29.65 19.41,49.54 51.91,49.54 16.79,0 28.34,-3.24 35.1,-6.09l-3.27 -12.79c-7.19,2.84 -15.48,5.08 -29.22,5.08 -19.19,0 -35.77,-9.95 -36.2,-34.11l74.14 0zm-73.92 -12.8c1.52,-12.38 10.03,-29.04 29.44,-29.04 21.59,0 26.82,17.67 26.6,29.04l-56.04 0zm98.35 58.69l18.76 0 0 -59.3c0,-3.04 0.43,-6.09 1.52,-8.73 3.05,-8.93 11.78,-17.87 23.77,-17.87 14.61,0 22.03,11.37 22.03,27.01l0 58.89 18.75 0 0 -60.72c0,-3.25 0.65,-6.5 1.53,-8.93 3.27,-8.73 11.77,-16.25 22.68,-16.25 15.48,0 22.9,11.37 22.9,30.26l0 55.64 18.75 0 0 -57.88c0,-34.11 -20.71,-42.64 -34.67,-42.64 -10.03,0 -17.01,2.44 -23.34,6.9 -4.36,3.05 -8.5,7.31 -11.78,12.8l-0.43 0c-4.58,-11.58 -15.48,-19.7 -29.88,-19.7 -17.44,0 -27.26,8.73 -33.14,18.07l-0.66 0 -0.87 -15.84 -16.79 0c0.65,8.13 0.87,16.45 0.87,26.6l0 71.69zm197.58 0l0.87 -16.25 0.65 0c7.85,13 20.07,18.48 35.33,18.48 23.55,0 47.33,-17.46 47.33,-52.59 0.21,-29.85 -18.32,-50.16 -44.49,-50.16 -17.01,0 -29.22,7.11 -35.98,18.07l-0.44 0 0 -61.73 -18.98 0 0 118.79c0,8.74 -0.43,18.68 -0.86,25.39l16.57 0zm3.27 -57.07c0,-2.84 0.65,-5.27 1.09,-7.31 3.92,-13.6 16.14,-21.93 29.22,-21.93 20.5,0 31.41,16.86 31.41,36.56 0,22.54 -12,37.77 -32.06,37.77 -13.96,0 -25.08,-8.53 -28.79,-20.92 -0.43,-2.03 -0.87,-4.26 -0.87,-6.5l0 -17.67zm189.95 11.18c0.22,-1.83 0.65,-4.68 0.65,-8.33 0,-18.07 -9.15,-46.3 -43.61,-46.3 -30.75,0 -49.5,23.35 -49.5,53 0,29.65 19.4,49.54 51.9,49.54 16.79,0 28.35,-3.24 35.11,-6.09l-3.27 -12.79c-7.2,2.84 -15.49,5.08 -29.23,5.08 -19.19,0 -35.76,-9.95 -36.2,-34.11l74.15 0zm-73.93 -12.8c1.53,-12.38 10.03,-29.04 29.44,-29.04 21.59,0 26.82,17.67 26.61,29.04l-56.05 0zm98.35 58.69l18.97 0 0 -52.4c0,-3.04 0.44,-5.88 0.88,-8.32 2.61,-13.4 12.21,-22.95 25.73,-22.95 2.62,0 4.58,0.21 6.55,0.61l0 -16.85c-1.75,-0.41 -3.28,-0.61 -5.46,-0.61 -12.87,0 -24.42,8.32 -29.22,21.52l-0.88 0 -0.65 -19.29 -16.79 0c0.65,9.14 0.87,19.09 0.87,30.67l0 67.62zm183.06 -100.52c-29.22,0 -52.34,19.29 -52.34,52.19 0,31.06 22.03,50.56 50.59,50.56 25.52,0 52.56,-15.84 52.56,-52.19 0,-30.05 -20.5,-50.56 -50.81,-50.56zm-0.44 13.4c22.68,0 31.62,21.12 31.62,37.77 0,22.14 -13.74,38.18 -32.05,38.18 -18.76,0 -32.06,-16.25 -32.06,-37.77 0,-18.68 9.81,-38.18 32.49,-38.18zm96.39 87.12l0 -84.68 25.52 0 0 -13.61 -25.52 0 0 -5.27c0,-15.03 4.14,-28.44 20.5,-28.44 5.46,0 9.38,1.02 12.22,2.24l2.61 -13.81c-3.71,-1.42 -9.59,-2.84 -16.35,-2.84 -8.95,0 -18.54,2.64 -25.74,9.14 -8.94,7.92 -12.21,20.51 -12.21,34.31l0 4.67 -14.83 0 0 13.61 14.83 0 0 84.68 18.97 0z"/>
     <path class="fil4" d="M3275.3 2324.51c0.04,-6.37 0.77,-12.93 2.63,-19.26 1.86,-6.32 4.86,-12.4 8.54,-17.51 3.68,-5.11 8.05,-9.24 13.19,-12.69 5.14,-3.44 11.05,-6.2 17.04,-8.02 5.99,-1.83 12.06,-2.72 18.21,-2.68 6.15,0.04 12.38,1.02 16.96,2.03 4.57,1.01 7.48,2.07 9.71,2.71 2.23,0.65 3.76,0.9 4.81,0.69 1.06,-0.2 1.62,-0.85 2.39,-1.95 0.77,-1.09 1.74,-2.63 4.14,-7.79 2.4,-5.17 6.24,-13.96 8.36,-19.07 2.13,-5.11 2.57,-6.54 2.49,-7.63 -0.07,-1.08 -0.64,-1.82 -1.52,-2.47 -0.87,-0.64 -2.05,-1.19 -5.15,-2.12 -3.1,-0.92 -8.12,-2.22 -13.74,-3.19 -5.63,-0.97 -11.86,-1.62 -18.31,-2.17 -6.44,-0.55 -13.1,-1 -19.54,-0.59 -6.45,0.41 -12.67,1.68 -19.45,3.58 -6.78,1.89 -14.12,4.4 -22.33,9.34 -8.2,4.94 -17.28,12.31 -24.86,20.24 -7.57,7.94 -13.64,16.46 -17.93,26.96 -4.29,10.49 -6.8,22.98 -7.61,33.96 -0.81,10.99 0.08,20.48 2.27,29.88 2.19,9.41 5.66,18.73 10.56,27.48 4.9,8.76 11.21,16.95 19.91,24.32 8.7,7.38 19.79,13.95 30.64,18.41 10.84,4.46 21.45,6.81 32.17,7.29 10.73,0.49 21.57,-0.89 31.48,-3.56 9.92,-2.68 18.9,-6.65 27.68,-12.69 8.79,-6.04 17.36,-14.15 23.76,-22.1 6.4,-7.94 10.6,-15.72 14.02,-23.92 3.43,-8.19 6.06,-16.79 7.44,-22.8 1.38,-6 1.5,-9.39 1.22,-11.54 -0.28,-2.14 -0.97,-3.03 -12.71,-8.38 -11.74,-5.35 -34.53,-15.15 -46.69,-20.22 -12.17,-5.07 -13.71,-5.39 -14.88,-5.19 -1.17,0.2 -1.98,0.93 -2.87,2.02 -0.89,1.1 -1.86,2.56 -4.09,7.3 -2.23,4.74 -5.7,12.77 -7.81,17.68 -2.1,4.9 -2.83,6.68 -3.16,8.18 -0.32,1.51 -0.24,2.72 0.33,3.74 0.57,1.01 1.62,1.82 7.6,4.5 5.99,2.67 16.92,7.21 23.62,9.89 6.69,2.69 9.16,3.52 10.21,4.33 1.06,0.82 0.7,1.62 -0.17,3.11 -0.87,1.49 -2.25,3.67 -4.96,6.62 -2.71,2.96 -6.76,6.69 -11.01,10.01 -4.25,3.33 -8.7,6.25 -14.54,8.33 -5.84,2.08 -13.07,3.33 -21.26,3.04 -8.2,-0.29 -17.35,-2.11 -24.91,-5.57 -7.56,-3.47 -13.5,-8.56 -18.34,-14.48 -4.84,-5.91 -8.56,-12.64 -10.75,-19.08 -2.18,-6.45 -2.83,-12.61 -2.79,-18.97z"/>
     <path class="fil4" d="M3194.22 2375.43c-5,2.31 -10.89,4.41 -16.04,5.62 -5.15,1.21 -9.57,1.52 -14.67,1.26 -5.1,-0.26 -10.88,-1.1 -16.98,-3.15 -6.1,-2.05 -12.51,-5.3 -17.98,-9.51 -5.47,-4.2 -9.99,-9.35 -13.52,-14.97 -3.52,-5.62 -6.04,-11.72 -7.3,-18.65 -1.26,-6.94 -1.26,-14.71 -0.32,-21.91 0.95,-7.2 2.84,-13.82 6,-19.76 3.15,-5.93 7.57,-11.18 12.45,-15.49 4.9,-4.31 10.26,-7.67 15.83,-10.09 5.58,-2.41 11.36,-3.88 17.46,-4.46 6.1,-0.58 12.51,-0.26 17.82,0.37 5.31,0.63 9.52,1.57 12.62,2.52 3.1,0.94 5.1,1.89 6.73,2.1 1.63,0.21 2.89,-0.32 3.85,-1.48 0.96,-1.15 1.62,-2.94 3.87,-8.01 2.26,-5.07 6.1,-13.42 8.35,-18.25 2.26,-4.83 2.91,-6.15 3,-7.31 0.09,-1.17 -0.39,-2.19 -1.61,-3.04 -1.22,-0.84 -3.18,-1.52 -8.17,-2.8 -4.98,-1.28 -12.97,-3.16 -20.27,-4.3 -7.29,-1.14 -13.89,-1.53 -20.34,-1.47 -6.44,0.06 -12.74,0.58 -19.64,1.88 -6.89,1.31 -14.38,3.39 -21.64,6.59 -7.27,3.2 -14.31,7.51 -20.99,12.65 -6.68,5.15 -12.98,11.14 -18.09,17.55 -5.1,6.41 -8.99,13.24 -12.14,21.28 -3.16,8.04 -5.57,17.28 -6.89,25.69 -1.31,8.41 -1.52,15.97 -0.68,24.53 0.84,8.57 2.73,18.13 5.78,26.74 3.05,8.62 7.26,16.29 12.67,23.33 5.42,7.04 12.04,13.45 19.46,19.17 7.41,5.73 15.61,10.78 24.39,14.5 8.78,3.74 18.14,6.15 27.71,7.2 9.57,1.05 19.35,0.74 29.03,-1.1 9.67,-1.84 19.24,-5.2 26.54,-8.3 7.31,-3.1 12.36,-5.94 16.3,-8.51 3.95,-2.58 6.79,-4.89 8.47,-6.46 1.68,-1.58 2.21,-2.42 2.26,-3.37 0.06,-0.94 -0.37,-1.99 -2.73,-4.99 -2.37,-2.99 -6.68,-7.93 -10.31,-12.08 -3.63,-4.15 -6.57,-7.51 -8.73,-9.56 -2.15,-2.05 -3.52,-2.78 -4.78,-2.78 -1.26,0 -2.42,0.73 -5.05,2.36 -2.63,1.63 -6.73,4.15 -11.72,6.46z"/>
     <path class="fil4" d="M3048.41 2393.03c3.54,-4.79 6.05,-8.96 7.57,-13.96 1.53,-5.01 2.09,-10.85 1.88,-16.07 -0.21,-5.21 -1.18,-9.8 -3.4,-15.22 -2.23,-5.42 -5.71,-11.68 -10.02,-16.41 -4.31,-4.72 -9.45,-7.92 -16.05,-11.33 -6.61,-3.4 -14.67,-7.02 -22.11,-9.73 -7.44,-2.71 -14.25,-4.52 -21.55,-6.88 -7.3,-2.37 -15.09,-5.28 -20.3,-8.2 -5.21,-2.93 -7.86,-5.84 -9.18,-9.39 -1.32,-3.55 -1.32,-7.71 0.21,-11.33 1.53,-3.61 4.59,-6.67 8.41,-8.9 3.83,-2.22 8.42,-3.61 13.21,-4.24 4.8,-0.62 9.81,-0.49 14.67,0 4.87,0.49 9.59,1.32 12.72,2.08 3.13,0.77 4.66,1.46 6.05,1.05 1.39,-0.42 2.64,-1.95 4.94,-5.91 2.29,-3.96 5.62,-10.36 7.64,-14.53 2.02,-4.17 2.71,-6.11 2.71,-7.79 0,-1.66 -0.69,-3.05 -2.36,-4.37 -1.67,-1.32 -4.31,-2.58 -8.55,-3.83 -4.24,-1.25 -10.08,-2.5 -16.34,-3.62 -6.25,-1.11 -12.93,-2.08 -21.96,-1.73 -9.04,0.35 -20.44,2.02 -29.9,5.28 -9.45,3.27 -16.96,8.14 -23.15,14.05 -6.18,5.91 -11.05,12.85 -14.04,20.43 -2.99,7.58 -4.1,15.78 -3.2,23.08 0.91,7.3 3.83,13.7 8.55,19.68 4.73,5.97 11.26,11.54 18.63,16.19 7.37,4.66 15.58,8.41 23.5,11.47 7.93,3.06 15.57,5.43 22.94,8.07 7.37,2.64 14.46,5.56 19.12,8.41 4.66,2.85 6.88,5.63 8.34,9.03 1.46,3.41 2.16,7.45 1.39,10.78 -0.76,3.34 -2.99,5.98 -7.09,8.41 -4.1,2.43 -10.08,4.66 -17.38,5.29 -7.3,0.62 -15.92,-0.35 -22.52,-1.67 -6.61,-1.32 -11.19,-2.99 -16.2,-4.66 -5,-1.67 -10.43,-3.34 -13.9,-4.8 -3.48,-1.45 -5.01,-2.71 -6.47,-3.54 -1.46,-0.84 -2.85,-1.25 -4.45,-1.25 -1.59,0 -3.4,0.41 -5.35,2.91 -1.94,2.51 -4.03,7.1 -6.47,12.03 -2.43,4.94 -5.21,10.22 -6.88,13.7 -1.67,3.48 -2.22,5.15 -2.29,6.47 -0.07,1.32 0.35,2.29 2.43,3.81 2.09,1.53 5.84,3.62 10.92,5.92 5.07,2.29 11.47,4.79 19.11,6.87 7.65,2.09 16.55,3.76 25.38,4.73 8.83,0.98 17.58,1.26 26.55,0.56 8.97,-0.69 18.15,-2.36 26.77,-5.07 8.62,-2.72 16.68,-6.47 23.01,-11.05 6.32,-4.59 10.91,-10.02 14.46,-14.82z"/>
     <path class="fil4" d="M3488.9 2304.76c-0.01,-7.12 -0.01,-20.48 0.01,-27.42 0.03,-6.93 0.09,-7.44 0.26,-7.92 0.18,-0.47 0.48,-0.93 0.89,-1.32 0.41,-0.38 0.94,-0.68 1.64,-0.89 0.7,-0.2 1.57,-0.3 9.19,-0.3 7.63,0 22.02,0.09 29.68,0.21 7.67,0.12 8.61,0.27 9.45,0.45 0.84,0.19 1.58,0.41 2.83,1.04 1.25,0.63 3.01,1.66 4.78,3.1 1.76,1.44 3.54,3.29 5.11,5.29 1.57,1.99 2.94,4.12 3.73,6.47 0.78,2.36 0.98,4.93 1,7.71 0.02,2.79 -0.15,5.8 -1.09,8.86 -0.93,3.06 -2.65,6.16 -4.47,8.52 -1.83,2.36 -3.77,3.97 -5.44,5.09 -1.67,1.12 -3.07,1.74 -4.32,2.23 -1.24,0.49 -2.34,0.85 -3.33,1.07 -1,0.22 -1.9,0.3 -9.35,0.35 -7.46,0.06 -21.48,0.1 -28.85,-0.02 -7.37,-0.12 -8.11,-0.4 -8.8,-0.75 -0.69,-0.36 -1.35,-0.8 -1.82,-1.29 -0.46,-0.5 -0.73,-1.05 -0.88,-1.77 -0.16,-0.71 -0.2,-1.58 -0.22,-8.71zm-42.19 -43.49c-0.21,30.87 -0.56,91.74 -0.7,122.79 -0.13,31.04 -0.07,32.27 0.2,33.41 0.27,1.14 0.73,2.21 1.36,3.12 0.63,0.92 1.43,1.69 2.35,2.34 0.91,0.66 1.94,1.19 6.84,1.36 4.9,0.17 13.65,-0.03 18.68,-0.12 5.02,-0.09 6.32,-0.07 7.51,-0.31 1.19,-0.23 2.27,-0.73 3.21,-1.41 0.93,-0.68 1.72,-1.55 2.11,-3.02 0.39,-1.47 0.39,-3.56 0.41,-12.37 0.01,-8.8 0.03,-24.34 0.06,-32.44 0.03,-8.1 0.06,-8.79 0.32,-9.6 0.26,-0.81 0.75,-1.76 1.3,-2.41 0.55,-0.64 1.17,-0.97 1.86,-1.18 0.7,-0.21 1.47,-0.28 8.29,-0.31 6.81,-0.02 19.68,0 27.93,0.03 8.26,0.03 11.92,0.05 16.3,-0.77 4.39,-0.82 9.49,-2.47 14.91,-4.84 5.41,-2.37 11.14,-5.45 17.02,-10.46 5.89,-5.02 11.94,-11.97 16.27,-20.62 4.33,-8.65 6.93,-18.99 7.44,-29.12 0.52,-10.12 -1.05,-20.03 -4.15,-28.65 -3.09,-8.62 -7.71,-15.95 -13.15,-21.95 -5.44,-6 -11.71,-10.66 -17.18,-13.73 -5.47,-3.07 -10.16,-4.53 -14.07,-5.59 -3.9,-1.05 -7.02,-1.69 -9.54,-2.08 -2.52,-0.39 -4.43,-0.52 -19.17,-0.61 -14.74,-0.09 -42.3,-0.13 -56.54,-0.05 -14.25,0.09 -15.18,0.28 -16.08,0.73 -0.91,0.44 -1.8,1.13 -2.36,2.04 -0.57,0.91 -0.81,2.05 -0.97,3.06 -0.16,1 -0.25,1.88 -0.46,32.76z"/>
    </g>
   </g>
  </g>
 </g>
</svg>
