<?xml version="1.0" encoding="UTF-8"?>
<!DOCTYPE svg PUBLIC "-//W3C//DTD SVG 1.1//EN" "http://www.w3.org/Graphics/SVG/1.1/DTD/svg11.dtd">
<!-- Creator: CorelDRAW 2021 (64-Bit) -->
<svg xmlns="http://www.w3.org/2000/svg" xml:space="preserve" width="39mm" height="39mm" version="1.1" style="shape-rendering:geometricPrecision; text-rendering:geometricPrecision; image-rendering:optimizeQuality; fill-rule:evenodd; clip-rule:evenodd"
viewBox="0 0 3900 3900"
 xmlns:xlink="http://www.w3.org/1999/xlink"
 xmlns:xodm="http://www.corel.com/coreldraw/odm/2003">
 <defs>
  <style type="text/css">
   <![CDATA[
    .fil0 {fill:#FEFEFE}
    .fil1 {fill:#365F91;fill-rule:nonzero}
   ]]>
  </style>
 </defs>
 <g id="Layer_x0020_1">
  <metadata id="CorelCorpID_0Corel-Layer"/>
  <g id="_1696581657616">
   <rect class="fil0" x="-5.8" y="5.8" width="3900" height="3900"/>
   <path class="fil1" d="M931.1 1036.65l0 1838.27 -456.29 0 0 -1838.27 456.29 0zm153.85 0l1125.87 0 0 440.56 -337.41 0 0 1397.71 -456.29 0 0 -1397.71 -332.17 0 0 -440.56zm2328.65 0l0 424.82c-143.35,0 -251.74,7.87 -324.73,23.17 -72.99,15.29 -129.37,43.27 -169.58,83.48 -40.21,40.2 -79.98,103.14 -119.32,189.68l613.63 0 0 401.22 -613.63 0c38.47,85.66 78.24,147.72 118.45,187.06 40.64,39.33 97.9,66.43 171.32,81.73 73.43,14.86 181.38,22.29 323.86,22.29l0 424.82 -295.88 0c-96.59,0 -193.18,-21.42 -290.21,-63.81 -96.59,-42.83 -182.69,-104.02 -257.87,-183.13 -38.46,-40.21 -72.98,-83.91 -103.58,-130.68 -31.03,-46.76 -58.13,-99.21 -81.29,-156.03 -23.6,-57.25 -41.52,-116.26 -54.2,-177.44 -12.23,-61.19 -18.35,-125 -18.35,-191.44 0,-118.44 18.79,-234.7 56.82,-348.33 38.02,-113.2 92.21,-214.16 163.02,-302.01 70.36,-87.85 153.84,-157.34 250.87,-208.48 97.03,-51.13 201.05,-76.92 312.93,-76.92l317.74 0z"/>
  </g>
 </g>
</svg>
