<?xml version="1.0" encoding="UTF-8"?>
<!DOCTYPE svg PUBLIC "-//W3C//DTD SVG 1.1//EN" "http://www.w3.org/Graphics/SVG/1.1/DTD/svg11.dtd">
<!-- Creator: CorelDRAW -->
<svg xmlns="http://www.w3.org/2000/svg" xml:space="preserve" width="39mm" height="39mm" version="1.1" style="shape-rendering:geometricPrecision; text-rendering:geometricPrecision; image-rendering:optimizeQuality; fill-rule:evenodd; clip-rule:evenodd"
viewBox="0 0 3900 3900"
 xmlns:xlink="http://www.w3.org/1999/xlink"
 xmlns:xodm="http://www.corel.com/coreldraw/odm/2003">
 <defs>
  <style type="text/css">
   <![CDATA[
    .fil5 {fill:#5FBC4E}
    .fil4 {fill:#98CA45}
    .fil6 {fill:#B0D461}
    .fil3 {fill:#C5DD7D}
    .fil0 {fill:#FEFEFE}
    .fil1 {fill:#282829;fill-rule:nonzero}
    .fil2 {fill:#818285;fill-rule:nonzero}
   ]]>
  </style>
 </defs>
 <g id="Layer_x0020_1">
  <metadata id="CorelCorpID_0Corel-Layer"/>
  <g id="_2263338711088">
   <rect class="fil0" x="-5.8" y="5.8" width="3900" height="3900"/>
   <g id="_1611272879920">
    <path class="fil1" d="M1141.06 1847.21c0,22.45 4.54,43.83 13.63,64.14 9.09,20.31 21.29,38.05 36.61,53.19 15.33,15.14 33.24,27.18 53.73,36.08 20.49,8.92 42.31,13.37 65.47,13.37 22.82,0 44.56,-4.36 65.23,-13.09 20.67,-8.74 38.74,-20.67 54.26,-35.82 15.49,-15.14 27.78,-32.96 36.87,-53.46 9.09,-20.49 13.64,-42.49 13.64,-66.01 0,-23.16 -4.46,-45 -13.37,-65.48 -8.9,-20.5 -21.11,-38.49 -36.61,-53.99 -15.5,-15.51 -33.51,-27.71 -53.99,-36.62 -20.5,-8.91 -42.5,-13.37 -66.03,-13.37 -22.44,0 -43.82,4.28 -64.14,12.83 -20.31,8.56 -38.3,20.5 -53.99,35.81 -15.67,15.33 -28.15,33.42 -37.41,54.26 -9.26,20.86 -13.9,43.57 -13.9,68.16zm-39.56 0c0,-31 5.97,-59.24 17.91,-84.73 11.93,-25.48 27.62,-47.31 47.04,-65.47 19.42,-18.18 41.7,-32.18 66.82,-41.97 25.12,-9.8 50.87,-14.7 77.23,-14.7 27.81,0 54.35,5.17 79.66,15.5 25.3,10.34 47.57,24.68 66.81,43.03 19.25,18.35 34.57,40 45.97,64.95 11.41,24.95 17.11,52.03 17.11,81.26 0,29.21 -5.7,56.3 -17.11,81.24 -11.4,24.95 -26.72,46.59 -45.97,64.94 -19.24,18.37 -41.51,32.71 -66.81,43.04 -25.31,10.34 -51.85,15.5 -79.66,15.5 -28.14,0 -54.87,-5.35 -80.17,-16.03 -25.3,-10.69 -47.49,-25.22 -66.55,-43.57 -19.07,-18.35 -34.21,-39.82 -45.45,-64.41 -11.22,-24.59 -16.83,-50.78 -16.83,-78.58zm478.95 -199.93l100.51 0c13.18,0 24.85,0.36 35.01,1.08 10.15,0.71 19.05,1.77 26.72,3.2 7.66,1.43 14.35,3.04 20.04,4.81 5.71,1.79 10.88,3.75 15.52,5.89 22.44,10.33 39.82,25.56 52.11,45.7 12.3,20.14 18.44,42.49 18.44,67.09 0,14.25 -2.58,28.32 -7.75,42.22 -5.16,13.9 -12.65,26.47 -22.45,37.69 -9.81,11.23 -22,20.49 -36.62,27.79 -14.61,7.32 -31.54,11.5 -50.78,12.57l111.72 147.54 -49.71 0 -134.18 -179.07c12.48,0 23.08,-0.1 31.81,-0.27 8.73,-0.19 16.3,-0.45 22.71,-0.81 6.43,-0.35 12.04,-0.9 16.85,-1.6 4.81,-0.71 9.36,-1.79 13.63,-3.21 10.69,-3.2 20.13,-7.67 28.33,-13.36 8.19,-5.7 15.06,-12.3 20.57,-19.78 5.53,-7.49 9.64,-15.59 12.3,-24.32 2.68,-8.73 4.02,-17.55 4.02,-26.47 0,-7.83 -1.07,-15.59 -3.22,-23.24 -2.13,-7.66 -5.07,-14.89 -8.82,-21.66 -3.73,-6.77 -8.28,-12.82 -13.62,-18.18 -5.34,-5.34 -11.23,-9.61 -17.65,-12.82 -11.75,-6.06 -23.33,-10.07 -34.74,-12.03 -11.41,-1.96 -25.48,-2.93 -42.23,-2.93l-68.96 0 0 359.75 -39.56 0 0 -395.58zm729.67 213.83c-2.15,29.57 -9.72,55.95 -22.72,79.11 -13.01,23.16 -29.23,42.94 -48.65,59.33 -19.42,16.4 -41.15,28.87 -65.21,37.43 -24.06,8.55 -48.21,12.82 -72.44,12.82 -29.57,0 -57.28,-5.52 -83.12,-16.57 -25.83,-11.05 -48.28,-26.01 -67.34,-44.9 -19.07,-18.88 -34.13,-40.62 -45.18,-65.21 -11.05,-24.59 -16.57,-50.6 -16.57,-78.04 0,-25.66 5.08,-50.8 15.23,-75.39 10.16,-24.58 24.5,-46.4 43.04,-65.47 18.52,-19.06 40.79,-34.48 66.81,-46.24 26.01,-11.76 54.88,-17.64 86.6,-17.64 26.02,0 49.71,4.01 71.1,12.03 21.38,8.01 40,17.73 55.86,29.14 15.86,11.39 28.87,23.6 39.02,36.61 10.16,13 17.19,24.49 21.11,34.48l-45.96 0c-5.71,-9.63 -13.1,-19.08 -22.19,-28.34 -9.09,-9.26 -19.69,-17.46 -31.8,-24.59 -12.12,-7.13 -25.49,-12.82 -40.09,-17.1 -14.62,-4.28 -30.12,-6.42 -46.52,-6.42 -24.93,0 -48.01,4.73 -69.22,14.17 -21.2,9.45 -39.46,22 -54.79,37.69 -15.32,15.67 -27.25,33.67 -35.81,53.99 -8.55,20.31 -12.83,41.51 -12.83,63.61 0,22.1 4.28,43.3 12.83,63.61 8.56,20.31 20.58,38.22 36.08,53.72 15.5,15.5 33.94,27.88 55.32,37.15 21.39,9.26 44.73,13.9 70.02,13.9 21.03,0 40.55,-3.48 58.54,-10.42 18,-6.95 33.94,-16.04 47.84,-27.27 13.9,-11.22 25.39,-23.78 34.48,-37.68 9.09,-13.9 15.42,-27.8 18.98,-41.7l-220.77 0 0 -35.81 268.35 0zm143.79 12.83l153.41 0 -75.9 -181.74 -77.51 181.74zm55.06 -226.66l44.36 0 170 395.58 -43.31 0 -57.2 -133.11 -183.88 0 -57.73 133.11 -41.16 0 168.92 -395.58zm264.07 0l39.55 0 0 359.76 163.57 0 0 35.82 -203.12 0 0 -395.58zm243.74 0l39.56 0 0 395.58 -39.56 0 0 -395.58zm117.61 0l199.92 0 0 35.83 -160.37 0 0 143.25 154.49 0 0 35.81 -154.49 0 0 180.69 -39.55 0 0 -395.58zm259.26 0l216.49 0 0 35.83 -176.94 0 0 142.19 171.06 0 0 35.81 -171.06 0 0 145.93 176.94 0 0 35.82 -216.49 0 0 -395.58z"/>
    <path class="fil2" d="M1101.5 2127.58l20.17 0 0 20.16 0.57 0c1.55,-2.3 3.65,-4.9 6.34,-7.78 2.7,-2.88 6.05,-5.52 10.09,-7.92 4.03,-2.4 8.69,-4.41 13.97,-6.05 5.28,-1.62 11.27,-2.45 18.01,-2.45 9.79,0 18.72,1.4 26.78,4.18 8.07,2.79 15.76,7.83 23.05,15.12 5.95,5.77 10.71,13.21 14.26,22.34 3.56,9.11 5.33,20.2 5.33,33.26l0 86.72 -20.17 0 0 -86.72c0,-10.37 -1.38,-19.11 -4.17,-26.21 -2.78,-7.11 -6.38,-12.77 -10.81,-17 -5.57,-5.38 -11.56,-8.98 -18,-10.81 -6.44,-1.82 -11.86,-2.73 -16.27,-2.73 -4.43,0 -9.85,0.91 -16.28,2.73 -6.43,1.83 -12.43,5.43 -18,10.81 -4.23,4.04 -7.73,9.56 -10.52,16.57 -2.78,7.01 -4.18,15.41 -4.18,25.2l0 88.16 -20.17 0 0 -157.58zm312.87 157.58l-19.02 0 0 -24.49 -0.58 0c-1.53,2.88 -3.59,6.01 -6.19,9.37 -2.59,3.35 -5.96,6.43 -10.08,9.21 -4.13,2.78 -9.04,5.09 -14.7,6.91 -5.66,1.83 -12.14,2.75 -19.44,2.75 -7.88,0 -14.8,-0.83 -20.74,-2.45 -5.96,-1.64 -11.09,-3.66 -15.42,-6.06 -4.32,-2.39 -7.97,-4.99 -10.94,-7.78 -2.98,-2.78 -5.33,-5.22 -7.07,-7.34 -5.55,-6.92 -9.26,-14.98 -11.09,-24.2 -1.82,-9.21 -2.73,-18.05 -2.73,-26.5l0 -87 20.17 0 0 86.71c0,9.99 1.01,18.3 3.02,24.92 2.01,6.62 4.76,12.14 8.21,16.57 5.57,6.14 11.66,10.18 18.3,12.1 6.62,1.92 12.71,2.88 18.29,2.88 5.57,0 11.28,-0.87 17.13,-2.6 5.87,-1.72 11.29,-5.09 16.29,-10.08 2.29,-2.3 4.47,-4.76 6.48,-7.34 2.01,-2.6 3.74,-5.72 5.18,-9.37 1.44,-3.65 2.6,-7.92 3.45,-12.82 0.87,-4.89 1.31,-10.8 1.31,-17.71l0 -83.26 20.17 0 0 157.58zm56.45 -139.43l-33.12 0 0 -18.15 33.12 0 0 -55.6 20.18 0 0 55.6 37.73 0 0 18.15 -37.73 0 0 139.43 -20.18 0 0 -139.43zm79.23 -18.15l20.17 0 0 22.76 0.57 0c2.31,-5.57 5.13,-10.03 8.5,-13.41 3.36,-3.35 6.96,-5.99 10.8,-7.91 3.84,-1.92 7.93,-3.21 12.25,-3.89 4.31,-0.67 8.59,-1.2 12.82,-1.59l0 21.32c-7.11,0.58 -13.6,2.16 -19.45,4.75 -5.86,2.6 -10.71,6.2 -14.55,10.81 -3.45,4.42 -6.15,9.37 -8.06,14.83 -1.92,5.48 -2.88,11.38 -2.88,17.73l0 92.18 -20.17 0 0 -157.58zm86.71 -55.6l20.17 0 0 36.3 -20.17 0 0 -36.3zm0 55.6l20.17 0 0 157.58 -20.17 0 0 -157.58zm76.06 18.15l-33.13 0 0 -18.15 33.13 0 0 -55.6 20.17 0 0 55.6 37.73 0 0 18.15 -37.73 0 0 139.43 -20.17 0 0 -139.43zm79.22 -73.75l20.16 0 0 36.3 -20.16 0 0 -36.3zm0 55.6l20.16 0 0 157.58 -20.16 0 0 -157.58zm71.16 79.51c0,9.21 1.73,17.71 5.18,25.5 3.45,7.77 8.06,14.5 13.82,20.16 5.77,5.66 12.4,10.08 19.89,13.25 7.49,3.17 15.27,4.76 23.33,4.76 7.68,0 15.22,-1.5 22.62,-4.47 7.38,-2.98 14.01,-7.25 19.87,-12.82 5.86,-5.57 10.61,-12.39 14.26,-20.46 3.65,-8.06 5.48,-17.28 5.48,-27.65 0,-10.37 -1.97,-19.54 -5.91,-27.51 -3.94,-7.97 -8.93,-14.59 -14.98,-19.89 -6.05,-5.27 -12.78,-9.3 -20.17,-12.1 -7.39,-2.77 -14.45,-4.17 -21.17,-4.17 -7.3,0 -14.59,1.44 -21.9,4.32 -7.3,2.88 -13.96,7.1 -20.01,12.67 -6.05,5.58 -10.96,12.44 -14.7,20.61 -3.75,8.16 -5.61,17.43 -5.61,27.8zm-20.17 0.28c0,-12.47 2.35,-23.86 7.05,-34.13 4.71,-10.28 10.85,-19.11 18.45,-26.51 7.58,-7.4 16.32,-13.1 26.21,-17.14 9.89,-4.02 20.02,-6.05 30.39,-6.05 11.71,0 22.62,2.31 32.7,6.92 10.08,4.61 18.82,10.7 26.22,18.3 7.38,7.58 13.19,16.36 17.42,26.36 4.22,9.98 6.34,20.35 6.34,31.1 0,10.76 -2.12,21.13 -6.34,31.11 -4.23,10 -9.98,18.78 -17.29,26.36 -7.29,7.6 -16.03,13.69 -26.21,18.3 -10.17,4.61 -21.13,6.92 -32.84,6.92 -11.52,0 -22.27,-2.27 -32.27,-6.77 -9.98,-4.52 -18.67,-10.52 -26.07,-18.01 -7.39,-7.49 -13.2,-16.14 -17.43,-25.93 -4.22,-9.8 -6.33,-20.07 -6.33,-30.83zm195.32 -79.79l20.16 0 0 20.16 0.57 0c1.55,-2.3 3.65,-4.9 6.35,-7.78 2.69,-2.88 6.05,-5.52 10.07,-7.92 4.04,-2.4 8.71,-4.41 13.98,-6.05 5.28,-1.62 11.28,-2.45 18.01,-2.45 9.79,0 18.72,1.4 26.79,4.18 8.06,2.79 15.75,7.83 23.04,15.12 5.96,5.77 10.72,13.21 14.26,22.34 3.56,9.11 5.33,20.2 5.33,33.26l0 86.72 -20.16 0 0 -86.72c0,-10.37 -1.39,-19.11 -4.17,-26.21 -2.79,-7.11 -6.4,-12.77 -10.81,-17 -5.57,-5.38 -11.57,-8.98 -18.01,-10.81 -6.44,-1.82 -11.86,-2.73 -16.27,-2.73 -4.43,0 -9.85,0.91 -16.29,2.73 -6.42,1.83 -12.43,5.43 -17.99,10.81 -4.24,4.04 -7.74,9.56 -10.52,16.57 -2.78,7.01 -4.18,15.41 -4.18,25.2l0 88.16 -20.16 0 0 -157.58zm189.26 79.22c0,8.83 1.55,17.14 4.61,24.92 3.08,7.78 7.45,14.55 13.11,20.31 5.67,5.76 12.49,10.32 20.46,13.69 7.97,3.36 16.76,5.04 26.36,5.04 8.45,0 16.52,-1.64 24.19,-4.91 7.69,-3.26 14.41,-7.73 20.17,-13.39 5.77,-5.67 10.33,-12.44 13.69,-20.31 3.35,-7.87 5.03,-16.42 5.03,-25.63 0,-8.65 -1.58,-16.92 -4.74,-24.78 -3.17,-7.88 -7.6,-14.74 -13.26,-20.6 -5.67,-5.85 -12.33,-10.56 -20.02,-14.12 -7.68,-3.56 -16.03,-5.33 -25.06,-5.33 -8.65,0 -16.85,1.53 -24.64,4.61 -7.77,3.07 -14.63,7.4 -20.59,12.97 -5.96,5.57 -10.66,12.38 -14.11,20.45 -3.47,8.07 -5.2,17.09 -5.2,27.08zm146.64 78.36l-20.16 0 0 -27.65 -0.58 0c-4.42,6.53 -9.31,11.81 -14.7,15.83 -5.37,4.04 -10.84,7.21 -16.42,9.52 -5.57,2.3 -10.99,3.89 -16.27,4.74 -5.28,0.87 -9.94,1.31 -13.97,1.31 -12.48,0 -23.92,-2.21 -34.29,-6.64 -10.37,-4.41 -19.3,-10.37 -26.79,-17.86 -7.49,-7.49 -13.3,-16.27 -17.43,-26.35 -4.13,-10.09 -6.2,-20.79 -6.2,-32.13 0,-10.55 2.03,-20.79 6.06,-30.68 4.03,-9.89 9.7,-18.67 17,-26.36 7.29,-7.68 16.18,-13.82 26.64,-18.43 10.47,-4.61 22.14,-6.92 35.01,-6.92 4.23,0 9.03,0.44 14.4,1.31 5.38,0.85 10.85,2.43 16.42,4.74 5.57,2.31 10.99,5.53 16.28,9.65 5.28,4.13 10.04,9.46 14.26,15.99l0.58 0 0 -27.65 20.16 0 0 157.58zm36.59 -213.18l20.16 0 0 213.18 -20.16 0 0 -213.18zm145.77 166.51c0.19,7.49 1.44,13.39 3.75,17.71 2.3,4.33 4.94,7.55 7.91,9.65 2.98,2.12 6.05,3.47 9.23,4.04 3.17,0.57 5.61,0.87 7.34,0.87 9.6,0 16.9,-2.55 21.9,-7.64 4.98,-5.09 7.49,-11.96 7.49,-20.61 0,-5.37 -1.11,-9.78 -3.32,-13.24 -2.21,-3.45 -4.89,-6.33 -8.06,-8.64 -3.18,-2.3 -6.59,-4.18 -10.23,-5.62 -3.65,-1.44 -6.91,-2.74 -9.79,-3.9 -4.04,-1.33 -8.51,-2.97 -13.41,-4.89 -4.89,-1.92 -9.41,-4.55 -13.53,-7.91 -4.13,-3.37 -7.63,-7.49 -10.51,-12.4 -2.9,-4.89 -4.33,-11.09 -4.33,-18.58 0,-5.57 0.96,-10.99 2.89,-16.27 1.92,-5.29 4.8,-9.94 8.63,-13.98 3.84,-4.02 8.55,-7.29 14.12,-9.8 5.57,-2.49 12.01,-3.74 19.3,-3.74 5.77,0 11.28,1.07 16.56,3.17 5.28,2.12 9.85,5.04 13.69,8.78 3.84,3.75 6.92,8.21 9.22,13.4 2.31,5.2 3.45,10.86 3.45,17l0 0.58 -20.16 0c-0.39,-4.8 -1.39,-8.79 -3.03,-11.96 -1.62,-3.17 -3.59,-5.71 -5.9,-7.63 -2.31,-1.92 -4.76,-3.27 -7.34,-4.04 -2.6,-0.76 -5.04,-1.15 -7.36,-1.15 -4.03,0 -7.53,0.72 -10.52,2.16 -2.97,1.44 -5.46,3.32 -7.47,5.63 -2.03,2.3 -3.51,4.85 -4.47,7.62 -0.97,2.78 -1.44,5.53 -1.44,8.22 0,4.23 0.91,7.77 2.74,10.65 1.82,2.88 4.17,5.33 7.05,7.36 2.89,2.01 5.95,3.64 9.22,4.89 3.26,1.25 6.34,2.36 9.22,3.32 4.61,1.53 9.56,3.4 14.83,5.61 5.28,2.21 10.13,5.13 14.56,8.78 4.41,3.65 8.1,8.26 11.09,13.83 2.97,5.58 4.46,12.39 4.46,20.46l0 0.58c0,6.71 -1.01,13 -3.02,18.87 -2.02,5.85 -5.1,10.94 -9.23,15.26 -4.13,4.32 -9.31,7.73 -15.55,10.23 -6.24,2.49 -13.49,3.75 -21.75,3.75 -5.38,0 -10.94,-0.92 -16.71,-2.75 -5.76,-1.82 -11,-4.7 -15.7,-8.63 -4.71,-3.95 -8.55,-8.99 -11.52,-15.13 -2.98,-6.14 -4.46,-13.54 -4.46,-22.18l0 -1.73 20.16 0zm259.56 0.28c-2.5,5 -5.76,10.38 -9.8,16.14 -4.03,5.76 -9.17,11.18 -15.41,16.27 -6.23,5.09 -13.72,9.32 -22.47,12.68 -8.74,3.37 -18.96,5.05 -30.68,5.05 -12.29,0 -23.63,-2.21 -34,-6.64 -10.36,-4.41 -19.29,-10.41 -26.78,-17.99 -7.49,-7.6 -13.36,-16.38 -17.58,-26.36 -4.23,-10 -6.33,-20.46 -6.33,-31.4 0,-11.34 2.21,-22.05 6.62,-32.14 4.41,-10.07 10.46,-18.85 18.15,-26.34 7.68,-7.49 16.66,-13.45 26.94,-17.88 10.27,-4.41 21.27,-6.62 32.98,-6.62 6.92,0 14.17,0.92 21.75,2.75 7.59,1.82 14.93,4.79 22.03,8.92 7.12,4.12 13.69,9.45 19.74,15.98 6.05,6.53 11,14.5 14.84,23.93l-22.18 0c-3.27,-5.96 -7.07,-11.05 -11.38,-15.28 -4.32,-4.22 -8.93,-7.67 -13.82,-10.36 -4.91,-2.7 -9.95,-4.67 -15.13,-5.91 -5.19,-1.25 -10.28,-1.88 -15.27,-1.88 -7.68,0 -15.41,1.4 -23.19,4.17 -7.79,2.8 -14.74,6.92 -20.89,12.4 -6.14,5.48 -11.18,12.19 -15.12,20.16 -3.94,7.97 -5.91,17.14 -5.91,27.51 0,8.84 1.63,17.19 4.89,25.07 3.27,7.88 7.79,14.74 13.54,20.59 5.77,5.86 12.64,10.52 20.61,13.98 7.97,3.45 16.66,5.19 26.07,5.19 8.26,0 15.51,-1.11 21.75,-3.32 6.23,-2.22 11.56,-4.95 15.99,-8.21 4.41,-3.27 8.12,-6.72 11.09,-10.37 2.97,-3.65 5.24,-7.01 6.77,-10.09l22.18 0zm30.25 -166.79l20.16 0 0 36.3 -20.16 0 0 -36.3zm0 55.6l20.16 0 0 157.58 -20.16 0 0 -157.58zm193.59 67.98c-1.54,-9.22 -4.46,-17.23 -8.79,-24.05 -4.32,-6.81 -9.36,-12.44 -15.12,-16.85 -5.77,-4.43 -11.91,-7.69 -18.44,-9.8 -6.53,-2.12 -12.96,-3.17 -19.3,-3.17 -6.14,0 -12.53,1.05 -19.16,3.17 -6.63,2.11 -12.81,5.37 -18.58,9.8 -5.76,4.41 -10.8,10.04 -15.13,16.85 -4.32,6.82 -7.14,14.83 -8.49,24.05l123.01 0zm-123.01 18.15c0.39,7.68 2.31,14.98 5.76,21.9 3.45,6.9 8.02,12.96 13.69,18.15 5.66,5.19 12.1,9.31 19.29,12.38 7.2,3.08 14.65,4.62 22.33,4.62 7.1,-0.2 13.74,-1.3 19.88,-3.32 6.15,-2.02 11.62,-4.71 16.42,-8.07 4.8,-3.35 8.93,-7.25 12.38,-11.66 3.47,-4.42 6.05,-9.13 7.79,-14.12l21.31 0c-2.68,7.87 -6.52,15.18 -11.52,21.89 -5,6.73 -10.9,12.58 -17.71,17.58 -6.82,5 -14.31,8.88 -22.47,11.66 -8.17,2.79 -16.77,4.19 -25.79,4.19 -10.94,0 -21.42,-2.12 -31.4,-6.35 -9.99,-4.22 -18.72,-10.03 -26.21,-17.43 -7.49,-7.38 -13.45,-16.08 -17.86,-26.07 -4.43,-9.98 -6.64,-20.83 -6.64,-32.54 0,-11.14 2.12,-21.71 6.34,-31.7 4.23,-9.98 10.04,-18.72 17.44,-26.21 7.39,-7.49 16.03,-13.49 25.92,-18.01 9.89,-4.51 20.6,-6.86 32.12,-7.06 8.65,0 16.66,1.2 24.05,3.6 7.4,2.41 14.02,5.53 19.89,9.37 5.85,3.84 10.99,8.15 15.4,12.97 4.42,4.79 8.07,9.59 10.95,14.39 4.61,7.5 7.83,14.98 9.66,22.47 1.83,7.49 2.73,14.7 2.73,21.62 0,0.96 -0.05,1.92 -0.15,2.88 -0.09,0.95 -0.14,1.91 -0.14,2.87l-143.46 0zm174.28 -86.13l20.17 0 0 20.16 0.57 0c1.55,-2.3 3.65,-4.9 6.35,-7.78 2.69,-2.88 6.05,-5.52 10.09,-7.92 4.02,-2.4 8.68,-4.41 13.96,-6.05 5.28,-1.62 11.29,-2.45 18.01,-2.45 9.79,0 18.72,1.4 26.79,4.18 8.06,2.79 15.75,7.83 23.04,15.12 5.96,5.77 10.71,13.21 14.26,22.34 3.56,9.11 5.33,20.2 5.33,33.26l0 86.72 -20.16 0 0 -86.72c0,-10.37 -1.39,-19.11 -4.18,-26.21 -2.78,-7.11 -6.38,-12.77 -10.8,-17 -5.57,-5.38 -11.57,-8.98 -18.01,-10.81 -6.44,-1.82 -11.86,-2.73 -16.27,-2.73 -4.43,0 -9.85,0.91 -16.28,2.73 -6.43,1.83 -12.43,5.43 -18,10.81 -4.23,4.04 -7.73,9.56 -10.52,16.57 -2.78,7.01 -4.18,15.41 -4.18,25.2l0 88.16 -20.17 0 0 -157.58zm331.87 111.19c-2.49,5 -5.75,10.38 -9.79,16.14 -4.03,5.76 -9.17,11.18 -15.41,16.27 -6.24,5.09 -13.73,9.32 -22.47,12.68 -8.74,3.37 -18.96,5.05 -30.68,5.05 -12.29,0 -23.63,-2.21 -34,-6.64 -10.37,-4.41 -19.3,-10.41 -26.79,-17.99 -7.49,-7.6 -13.35,-16.38 -17.56,-26.36 -4.24,-10 -6.35,-20.46 -6.35,-31.4 0,-11.34 2.22,-22.05 6.63,-32.14 4.42,-10.07 10.46,-18.85 18.15,-26.34 7.68,-7.49 16.66,-13.45 26.93,-17.88 10.28,-4.41 21.28,-6.62 32.99,-6.62 6.92,0 14.17,0.92 21.75,2.75 7.58,1.82 14.93,4.79 22.04,8.92 7.11,4.12 13.68,9.45 19.73,15.98 6.05,6.53 10.99,14.5 14.83,23.93l-22.17 0c-3.27,-5.96 -7.07,-11.05 -11.39,-15.28 -4.31,-4.22 -8.93,-7.67 -13.82,-10.36 -4.9,-2.7 -9.94,-4.67 -15.12,-5.91 -5.19,-1.25 -10.28,-1.88 -15.28,-1.88 -7.67,0 -15.4,1.4 -23.19,4.17 -7.78,2.8 -14.74,6.92 -20.88,12.4 -6.14,5.48 -11.18,12.19 -15.13,20.16 -3.93,7.97 -5.9,17.14 -5.9,27.51 0,8.84 1.64,17.19 4.9,25.07 3.27,7.88 7.77,14.74 13.53,20.59 5.77,5.86 12.64,10.52 20.6,13.98 7.97,3.45 16.66,5.19 26.07,5.19 8.27,0 15.52,-1.11 21.75,-3.32 6.24,-2.22 11.57,-4.95 16,-8.21 4.41,-3.27 8.11,-6.72 11.09,-10.37 2.97,-3.65 5.23,-7.01 6.77,-10.09l22.17 0zm166.24 -43.21c-1.55,-9.22 -4.47,-17.23 -8.8,-24.05 -4.32,-6.81 -9.36,-12.44 -15.11,-16.85 -5.77,-4.43 -11.92,-7.69 -18.45,-9.8 -6.53,-2.12 -12.95,-3.17 -19.3,-3.17 -6.14,0 -12.52,1.05 -19.16,3.17 -6.63,2.11 -12.81,5.37 -18.58,9.8 -5.76,4.41 -10.8,10.04 -15.11,16.85 -4.33,6.82 -7.16,14.83 -8.51,24.05l123.02 0zm-123.02 18.15c0.39,7.68 2.31,14.98 5.76,21.9 3.45,6.9 8.02,12.96 13.69,18.15 5.66,5.19 12.1,9.31 19.3,12.38 7.19,3.08 14.64,4.62 22.32,4.62 7.12,-0.2 13.74,-1.3 19.89,-3.32 6.14,-2.02 11.62,-4.71 16.41,-8.07 4.8,-3.35 8.93,-7.25 12.39,-11.66 3.46,-4.42 6.05,-9.13 7.78,-14.12l21.31 0c-2.68,7.87 -6.52,15.18 -11.52,21.89 -4.99,6.73 -10.9,12.58 -17.71,17.58 -6.82,5 -14.31,8.88 -22.47,11.66 -8.17,2.79 -16.76,4.19 -25.79,4.19 -10.94,0 -21.41,-2.12 -31.4,-6.35 -9.99,-4.22 -18.72,-10.03 -26.21,-17.43 -7.49,-7.38 -13.45,-16.08 -17.86,-26.07 -4.42,-9.98 -6.64,-20.83 -6.64,-32.54 0,-11.14 2.12,-21.71 6.35,-31.7 4.22,-9.98 10.03,-18.72 17.43,-26.21 7.4,-7.49 16.03,-13.49 25.92,-18.01 9.89,-4.51 20.61,-6.86 32.12,-7.06 8.65,0 16.66,1.2 24.06,3.6 7.39,2.41 14.02,5.53 19.88,9.37 5.85,3.84 11,8.15 15.41,12.97 4.41,4.79 8.06,9.59 10.94,14.39 4.61,7.5 7.84,14.98 9.66,22.47 1.83,7.49 2.73,14.7 2.73,21.62 0,0.96 -0.05,1.92 -0.14,2.88 -0.1,0.95 -0.15,1.91 -0.15,2.87l-143.46 0z"/>
    <g>
     <path class="fil3" d="M411.5 1955.8c0,-81.82 39.67,-154.37 100.83,-199.47l-121.18 -71.18c-69.71,69.03 -112.89,164.79 -112.89,270.65 0,21.23 1.73,42.06 5.08,62.35l128.34 -52.54c-0.12,-3.25 -0.18,-6.52 -0.18,-9.81z"/>
     <path class="fil4" d="M411.68 1965.61l-128.34 52.54c9.69,58.88 32.89,113.2 66.3,159.69l137.3 -44.05c-44.32,-42.9 -72.68,-102.24 -75.26,-168.18z"/>
     <path class="fil5" d="M659.16 2203.46c-66.92,0 -127.64,-26.53 -172.22,-69.67l-137.3 44.05c69.13,96.21 182.02,158.86 309.52,158.86 183.15,0 336.11,-129.25 372.63,-301.52l-146.63 22.12c-38.77,86.18 -125.38,146.16 -226,146.16z"/>
     <path class="fil4" d="M906.84 1955.8c0,36.17 -7.76,70.53 -21.68,101.5l146.63 -22.12c4.78,-22.52 7.57,-45.79 8.17,-69.61l-135.56 -44.61c1.61,11.38 2.44,23.02 2.44,34.84z"/>
     <path class="fil3" d="M904.4 1920.96l135.56 44.61c0.08,-3.25 0.12,-6.5 0.12,-9.77 0,-81.54 -25.62,-157.09 -69.25,-219.05l-128.33 52.52c32.59,35.87 54.82,81.35 61.9,131.69z"/>
     <path class="fil6" d="M659.16 1708.14c72.68,0 138.04,31.29 183.34,81.13l128.33 -52.52c-68.93,-97.9 -182.83,-161.86 -311.67,-161.86 -104.51,0 -199.19,42.1 -268.01,110.26l121.18 71.18c41.09,-30.3 91.87,-48.19 146.83,-48.19z"/>
    </g>
   </g>
  </g>
 </g>
</svg>
