<?xml version="1.0" encoding="UTF-8"?>
<!DOCTYPE svg PUBLIC "-//W3C//DTD SVG 1.1//EN" "http://www.w3.org/Graphics/SVG/1.1/DTD/svg11.dtd">
<!-- Creator: CorelDRAW -->
<svg xmlns="http://www.w3.org/2000/svg" xml:space="preserve" width="39mm" height="39mm" version="1.1" style="shape-rendering:geometricPrecision; text-rendering:geometricPrecision; image-rendering:optimizeQuality; fill-rule:evenodd; clip-rule:evenodd"
viewBox="0 0 3900 3900"
 xmlns:xlink="http://www.w3.org/1999/xlink"
 xmlns:xodm="http://www.corel.com/coreldraw/odm/2003">
 <defs>
  <style type="text/css">
   <![CDATA[
    .str0 {stroke:#989898;stroke-width:7.62;stroke-miterlimit:22.9256}
    .fil2 {fill:#324E8A}
    .fil0 {fill:#FEFEFE}
    .fil3 {fill:#282829;fill-rule:nonzero}
    .fil4 {fill:#373435;fill-rule:nonzero}
    .fil1 {fill:#989898;fill-rule:nonzero}
   ]]>
  </style>
 </defs>
 <g id="Layer_x0020_1">
  <metadata id="CorelCorpID_0Corel-Layer"/>
  <g id="_1698287421248">
   <rect class="fil0" x="-5.8" y="5.8" width="3900" height="3900"/>
   <path class="fil1 str0" d="M641.67 2801.81c0.97,22.47 8.09,40.37 21.37,53.7 13.28,13.32 31.1,19.98 53.44,19.98 9.39,0 18.46,-1.68 27.2,-5.05 8.75,-3.37 16.43,-8.19 23.08,-14.45 6.64,-6.26 11.99,-13.73 16.03,-22.4 4.04,-8.66 6.07,-18.3 6.07,-28.89 0,-13.81 -3.07,-25.21 -9.23,-34.2 -6.15,-8.99 -13.44,-16.29 -21.86,-21.91 -8.42,-5.62 -17.16,-9.87 -26.23,-12.76 -9.07,-2.89 -16.68,-5.3 -22.84,-7.22 -8.09,-2.25 -17.48,-5.14 -28.17,-8.67 -10.68,-3.53 -20.89,-8.67 -30.6,-15.41 -9.72,-6.75 -17.9,-15.66 -24.53,-26.73 -6.64,-11.08 -9.96,-25.45 -9.96,-43.11 0,-13.8 2.59,-26.56 7.77,-38.28 5.18,-11.72 12.3,-21.84 21.37,-30.34 9.07,-8.51 19.76,-15.17 32.07,-19.99 12.3,-4.82 25.58,-7.22 39.83,-7.22 14.57,0 28.01,2.56 40.32,7.7 12.3,5.14 22.83,12.2 31.58,21.19 8.74,8.99 15.54,19.35 20.39,31.06 4.87,11.72 7.3,24 7.3,36.85l-35.95 0c0,-8.99 -1.71,-17.42 -5.11,-25.29 -3.4,-7.86 -8.01,-14.69 -13.84,-20.47 -5.83,-5.77 -12.62,-10.35 -20.4,-13.72 -7.78,-3.37 -15.87,-5.06 -24.29,-5.06 -10.36,0 -19.59,1.77 -27.69,5.3 -8.1,3.53 -14.9,8.27 -20.4,14.21 -5.51,5.94 -9.72,12.6 -12.63,19.98 -2.92,7.39 -4.37,14.93 -4.37,22.64 0,10.92 2.26,19.9 6.8,26.97 4.53,7.06 10.68,13 18.46,17.82 7.76,4.81 16.83,8.91 27.2,12.28 10.36,3.37 21.37,6.66 33.03,9.87 21.7,5.78 38.54,13.81 50.52,24.08 11.98,10.28 20.73,20.79 26.24,31.55 5.5,10.75 8.74,20.54 9.71,29.37 0.98,8.83 1.46,14.69 1.46,17.58l0 0.48c0,13.81 -2.67,26.97 -8.02,39.49 -5.34,12.53 -12.79,23.6 -22.34,33.24 -9.55,9.63 -20.97,17.33 -34.25,23.11 -13.28,5.78 -27.85,8.67 -43.72,8.67 -11.66,0 -23.89,-1.85 -36.68,-5.54 -12.79,-3.69 -24.61,-9.71 -35.46,-18.06 -10.85,-8.35 -19.91,-19.26 -27.21,-32.75 -7.28,-13.48 -11.08,-30.02 -11.4,-49.6l35.94 0zm305.95 -76.58c0,20.23 4.12,39.5 12.39,57.8 8.26,18.3 19.34,34.27 33.27,47.92 13.92,13.64 30.2,24.48 48.82,32.5 18.62,8.03 38.46,12.04 59.5,12.04 20.73,0 40.49,-3.93 59.27,-11.8 18.79,-7.86 35.23,-18.62 49.31,-32.26 14.09,-13.65 25.27,-29.7 33.52,-48.16 8.26,-18.46 12.38,-38.29 12.38,-59.48 0,-20.87 -4.04,-40.54 -12.14,-59 -8.09,-18.46 -19.19,-34.67 -33.28,-48.64 -14.08,-13.96 -30.44,-24.96 -49.06,-32.99 -18.62,-8.02 -38.62,-12.04 -60,-12.04 -20.39,0 -39.83,3.86 -58.29,11.56 -18.46,7.71 -34.81,18.46 -49.06,32.27 -14.25,13.8 -25.58,30.1 -34,48.88 -8.42,18.78 -12.63,39.25 -12.63,61.4zm-35.95 0c0,-27.93 5.43,-53.37 16.27,-76.33 10.85,-22.96 25.11,-42.62 42.75,-59 17.65,-16.37 37.89,-28.97 60.72,-37.8 22.84,-8.83 46.24,-13.24 70.19,-13.24 25.27,0 49.4,4.65 72.39,13.96 23,9.31 43.24,22.24 60.72,38.77 17.49,16.54 31.42,36.04 41.78,58.51 10.36,22.48 15.54,46.88 15.54,73.21 0,26.33 -5.18,50.73 -15.54,73.2 -10.36,22.48 -24.29,41.98 -41.78,58.52 -17.48,16.53 -37.72,29.45 -60.72,38.76 -22.99,9.32 -47.12,13.97 -72.39,13.97 -25.58,0 -49.86,-4.82 -72.86,-14.45 -22.99,-9.63 -43.15,-22.71 -60.47,-39.25 -17.33,-16.53 -31.1,-35.88 -41.3,-58.03 -10.2,-22.15 -15.3,-45.75 -15.3,-70.8zm491.51 -180.11l48.58 0 200.63 295.7 0.96 0 0 -295.7 35.95 0 0 356.38 -35.95 0 -213.25 -313.52 -0.97 0 0 313.52 -35.95 0 0 -356.38zm486.17 204.19l139.42 0 -68.99 -163.74 -70.43 163.74zm50.03 -204.19l40.32 0 154.48 356.38 -39.35 0 -51.97 -119.92 -167.11 0 -52.47 119.92 -37.41 0 153.51 -356.38zm325.86 324.11l51.98 0c8.09,0 17.16,-0.16 27.2,-0.48 10.04,-0.32 20.49,-1.36 31.33,-3.13 10.86,-1.77 21.78,-4.57 32.79,-8.43 11.02,-3.85 21.7,-9.47 32.06,-16.85 5.51,-4.5 11.5,-10.28 17.98,-17.34 6.47,-7.06 12.54,-15.41 18.21,-25.04 5.67,-9.64 10.45,-20.71 14.34,-33.23 3.88,-12.53 5.83,-26.49 5.83,-41.9 0,-23.76 -5.51,-46 -16.52,-66.71 -11.01,-20.7 -25.91,-37.8 -44.69,-51.29 -8.1,-5.13 -16.36,-9.47 -24.77,-13 -8.43,-3.53 -17.33,-6.34 -26.72,-8.43 -9.4,-2.08 -19.6,-3.61 -30.61,-4.57 -11.01,-0.97 -23.16,-1.45 -36.43,-1.45l-51.98 0 0 291.85zm-35.95 -324.11l104.92 0c22.36,0 43.81,2.56 64.38,7.7 20.56,5.14 38.13,12.36 52.7,21.67 15.87,9.64 28.99,20.87 39.35,33.72 10.36,12.84 18.7,26.08 25.02,39.73 6.31,13.64 10.77,27.13 13.36,40.45 2.58,13.33 3.89,25.29 3.89,35.88 0,8.35 -1.06,18.7 -3.16,31.06 -2.11,12.37 -6.07,25.37 -11.9,39.01 -5.83,13.65 -14.1,27.29 -24.78,40.94 -10.69,13.65 -24.61,25.93 -41.78,36.84 -14.57,9.31 -32.14,16.54 -52.7,21.67 -20.57,5.14 -42.02,7.71 -64.38,7.71l-104.92 0 0 -356.38zm413.3 0l196.74 0 0 32.26 -160.79 0 0 128.11 155.45 0 0 32.27 -155.45 0 0 131.47 160.79 0 0 32.27 -196.74 0 0 -356.38zm286.03 324.11l176.82 -291.85 -171.47 0 0 -32.26 211.79 0 0 32.26 -176.34 291.85 181.69 0 0 32.27 -222.49 0 0 -32.27zm318.09 -324.11l35.95 0 0 356.38 -35.95 0 0 -356.38z"/>
   <path class="fil1" d="M605.72 3414.22l17.43 0 41.12 96.38 41.28 -96.38 17.42 0 0 113.21 -11.31 0 0 -100.81 -0.3 0 -42.35 100.81 -9.63 0 -42.05 -100.81 -0.3 0 0 100.81 -11.31 0 0 -113.21zm200.99 0l61.92 0 0 10.25 -50.61 0 0 40.7 48.92 0 0 10.25 -48.92 0 0 41.76 50.61 0 0 10.25 -61.92 0 0 -113.21zm144.27 0l17.43 0 41.13 96.38 41.27 -96.38 17.43 0 0 113.21 -11.32 0 0 -100.81 -0.3 0 -42.35 100.81 -9.63 0 -42.04 -100.81 -0.3 0 0 100.81 -11.32 0 0 -113.21zm212.91 48.81l14.22 0c4.49,0 8.16,-0.18 11.01,-0.54 2.85,-0.36 5.65,-1.25 8.41,-2.68 2.65,-1.42 4.84,-3.59 6.57,-6.5 1.74,-2.91 2.61,-6.04 2.61,-9.41 0,-2.65 -0.44,-4.94 -1.3,-6.88 -0.87,-1.94 -2.02,-3.77 -3.45,-5.51 -2.24,-2.55 -5.17,-4.36 -8.79,-5.43 -3.61,-1.07 -8.33,-1.61 -14.14,-1.61l-15.14 0 0 38.56zm0 54.15l15.9 0c4.79,0 8.8,-0.18 12,-0.54 3.21,-0.35 6.35,-1.14 9.41,-2.37 3.57,-1.42 6.44,-3.92 8.63,-7.49 2.19,-3.57 3.29,-7.5 3.29,-11.78 0,-4.39 -1.27,-8.31 -3.82,-11.78 -2.54,-3.47 -5.71,-5.92 -9.48,-7.34 -1.32,-0.51 -2.65,-0.95 -3.98,-1.3 -1.32,-0.36 -2.83,-0.64 -4.5,-0.85 -1.68,-0.2 -3.59,-0.33 -5.74,-0.38 -2.14,-0.05 -4.74,-0.07 -7.8,-0.07l-13.91 0 0 43.9zm-11.31 -102.96l28.43 0c5.92,0 10.93,0.64 15.06,1.92 4.13,1.27 7.58,2.9 10.33,4.89 2.74,1.99 4.91,4.18 6.49,6.58 1.58,2.4 2.75,4.69 3.52,6.88 0.76,2.2 1.22,4.21 1.38,6.05 0.15,1.83 0.23,3.11 0.23,3.82 0,3.37 -0.46,6.27 -1.38,8.72 -0.92,2.45 -2.04,4.59 -3.37,6.43 -1.32,1.83 -2.67,3.36 -4.05,4.59 -1.38,1.22 -2.57,2.24 -3.59,3.06 5.71,2.34 10.27,5.94 13.69,10.78 3.4,4.85 5.11,10.53 5.11,17.06 0,5.51 -1.17,10.58 -3.51,15.22 -2.34,4.64 -5.5,8.29 -9.48,10.94 -2.25,1.32 -4.39,2.39 -6.42,3.21 -2.04,0.82 -4.15,1.45 -6.35,1.91 -2.19,0.46 -4.51,0.77 -6.96,0.92 -2.43,0.15 -5.09,0.23 -7.94,0.23l-31.19 0 0 -113.21zm148.55 0l61.92 0 0 10.25 -50.6 0 0 40.7 48.91 0 0 10.25 -48.91 0 0 41.76 50.6 0 0 10.25 -61.92 0 0 -113.21zm143.36 0l28.74 0c3.77,0 7.1,0.11 10.01,0.31 2.91,0.2 5.46,0.51 7.65,0.92 2.19,0.41 4.09,0.87 5.72,1.38 1.64,0.51 3.12,1.07 4.44,1.68 6.43,2.96 11.39,7.32 14.91,13.08 3.52,5.76 5.27,12.16 5.27,19.2 0,4.08 -0.73,8.1 -2.21,12.08 -1.48,3.98 -3.62,7.57 -6.43,10.79 -2.8,3.21 -6.29,5.86 -10.47,7.95 -4.18,2.09 -9.01,3.29 -14.52,3.6l31.95 42.22 -14.22 0 -38.37 -51.25c3.57,0 6.6,-0.02 9.1,-0.07 2.5,-0.06 4.65,-0.13 6.49,-0.23 1.84,-0.11 3.44,-0.26 4.82,-0.46 1.38,-0.21 2.68,-0.51 3.9,-0.92 3.06,-0.92 5.75,-2.19 8.1,-3.83 2.34,-1.63 4.31,-3.51 5.89,-5.66 1.58,-2.14 2.75,-4.46 3.52,-6.96 0.76,-2.5 1.13,-5.02 1.13,-7.57 0,-2.24 -0.3,-4.46 -0.9,-6.65 -0.62,-2.2 -1.46,-4.26 -2.53,-6.2 -1.07,-1.94 -2.37,-3.67 -3.9,-5.2 -1.53,-1.53 -3.21,-2.75 -5.05,-3.67 -3.35,-1.74 -6.67,-2.88 -9.93,-3.44 -3.26,-0.57 -7.29,-0.85 -12.08,-0.85l-19.72 0 0 102.96 -11.31 0 0 -113.21zm265.15 57.22c0,6.42 1.3,12.54 3.9,18.36 2.6,5.81 6.09,10.88 10.47,15.22 4.38,4.33 9.51,7.77 15.36,10.32 5.87,2.55 12.11,3.83 18.73,3.83 6.53,0 12.74,-1.25 18.66,-3.75 5.9,-2.5 11.08,-5.91 15.51,-10.25 4.44,-4.33 7.95,-9.43 10.55,-15.3 2.6,-5.86 3.9,-12.16 3.9,-18.89 0,-6.63 -1.27,-12.88 -3.82,-18.74 -2.55,-5.86 -6.04,-11.01 -10.47,-15.45 -4.44,-4.44 -9.59,-7.93 -15.44,-10.48 -5.87,-2.55 -12.16,-3.82 -18.89,-3.82 -6.41,0 -12.53,1.22 -18.34,3.67 -5.81,2.44 -10.96,5.86 -15.45,10.25 -4.47,4.38 -8.04,9.56 -10.69,15.52 -2.66,5.97 -3.98,12.47 -3.98,19.51zm-11.31 0c0,-8.87 1.71,-16.96 5.12,-24.25 3.41,-7.29 7.9,-13.54 13.46,-18.74 5.54,-5.2 11.92,-9.2 19.11,-12.01 7.18,-2.8 14.55,-4.2 22.08,-4.2 7.96,0 15.55,1.47 22.79,4.43 7.23,2.96 13.6,7.07 19.1,12.32 5.51,5.25 9.89,11.45 13.15,18.58 3.26,7.14 4.89,14.89 4.89,23.26 0,8.36 -1.63,16.11 -4.89,23.25 -3.26,7.14 -7.64,13.34 -13.15,18.59 -5.5,5.25 -11.87,9.35 -19.1,12.31 -7.24,2.96 -14.83,4.44 -22.79,4.44 -8.04,0 -15.69,-1.53 -22.92,-4.59 -7.24,-3.06 -13.59,-7.22 -19.04,-12.47 -5.46,-5.25 -9.79,-11.4 -12.99,-18.43 -3.22,-7.04 -4.82,-14.54 -4.82,-22.49zm198.39 -57.22l57.17 0 0 10.25 -45.86 0 0 41 44.18 0 0 10.25 -44.18 0 0 51.71 -11.31 0 0 -113.21zm243.3 81.54c0.3,7.14 2.55,12.83 6.72,17.06 4.18,4.23 9.79,6.35 16.82,6.35 2.95,0 5.81,-0.54 8.56,-1.61 2.76,-1.07 5.17,-2.6 7.26,-4.59 2.09,-1.99 3.77,-4.36 5.05,-7.11 1.27,-2.75 1.91,-5.81 1.91,-9.18 0,-4.38 -0.97,-8 -2.91,-10.86 -1.94,-2.86 -4.23,-5.18 -6.88,-6.96 -2.64,-1.79 -5.4,-3.14 -8.25,-4.06 -2.86,-0.91 -5.25,-1.68 -7.19,-2.29 -2.54,-0.71 -5.5,-1.63 -8.87,-2.75 -3.36,-1.13 -6.57,-2.76 -9.62,-4.9 -3.06,-2.14 -5.64,-4.97 -7.73,-8.49 -2.09,-3.52 -3.13,-8.08 -3.13,-13.69 0,-4.39 0.81,-8.44 2.44,-12.16 1.63,-3.73 3.88,-6.94 6.73,-9.64 2.86,-2.7 6.22,-4.82 10.09,-6.35 3.88,-1.53 8.06,-2.29 12.54,-2.29 4.58,0 8.82,0.81 12.68,2.44 3.88,1.64 7.19,3.88 9.95,6.73 2.75,2.86 4.88,6.15 6.41,9.87 1.53,3.72 2.3,7.63 2.3,11.71l-11.31 0c0,-2.86 -0.54,-5.54 -1.61,-8.04 -1.07,-2.5 -2.53,-4.66 -4.36,-6.5 -1.84,-1.83 -3.97,-3.29 -6.42,-4.36 -2.44,-1.07 -4.99,-1.6 -7.64,-1.6 -3.26,0 -6.17,0.56 -8.71,1.68 -2.55,1.12 -4.7,2.62 -6.43,4.51 -1.73,1.89 -3.06,4 -3.97,6.35 -0.92,2.35 -1.37,4.74 -1.37,7.19 0,3.47 0.71,6.32 2.13,8.57 1.43,2.24 3.36,4.13 5.81,5.66 2.45,1.53 5.3,2.83 8.57,3.9 3.25,1.07 6.72,2.11 10.39,3.13 6.82,1.84 12.13,4.39 15.9,7.65 3.77,3.27 6.52,6.61 8.25,10.02 1.73,3.42 2.75,6.53 3.06,9.34 0.31,2.8 0.46,4.66 0.46,5.58l0 0.15c0,4.39 -0.84,8.57 -2.52,12.55 -1.69,3.97 -4.03,7.49 -7.03,10.55 -3.01,3.06 -6.61,5.51 -10.79,7.35 -4.17,1.83 -8.76,2.75 -13.75,2.75 -3.67,0 -7.52,-0.59 -11.54,-1.76 -4.03,-1.17 -7.75,-3.09 -11.16,-5.74 -3.42,-2.65 -6.27,-6.12 -8.57,-10.4 -2.28,-4.28 -3.48,-9.54 -3.58,-15.76l11.31 0zm140.75 -24.32c0,6.42 1.29,12.54 3.89,18.36 2.6,5.81 6.09,10.88 10.48,15.22 4.37,4.33 9.5,7.77 15.36,10.32 5.86,2.55 12.1,3.83 18.72,3.83 6.53,0 12.74,-1.25 18.66,-3.75 5.91,-2.5 11.08,-5.91 15.51,-10.25 4.44,-4.33 7.96,-9.43 10.55,-15.3 2.6,-5.86 3.9,-12.16 3.9,-18.89 0,-6.63 -1.27,-12.88 -3.82,-18.74 -2.54,-5.86 -6.04,-11.01 -10.47,-15.45 -4.44,-4.44 -9.58,-7.93 -15.44,-10.48 -5.87,-2.55 -12.16,-3.82 -18.89,-3.82 -6.41,0 -12.53,1.22 -18.33,3.67 -5.82,2.44 -10.97,5.86 -15.45,10.25 -4.48,4.38 -8.05,9.56 -10.7,15.52 -2.66,5.97 -3.97,12.47 -3.97,19.51zm-11.32 0c0,-8.87 1.71,-16.96 5.12,-24.25 3.42,-7.29 7.9,-13.54 13.46,-18.74 5.55,-5.2 11.92,-9.2 19.11,-12.01 7.18,-2.8 14.55,-4.2 22.08,-4.2 7.96,0 15.55,1.47 22.79,4.43 7.23,2.96 13.6,7.07 19.11,12.32 5.5,5.25 9.88,11.45 13.15,18.58 3.25,7.14 4.88,14.89 4.88,23.26 0,8.36 -1.63,16.11 -4.88,23.25 -3.27,7.14 -7.65,13.34 -13.15,18.59 -5.51,5.25 -11.88,9.35 -19.11,12.31 -7.24,2.96 -14.83,4.44 -22.79,4.44 -8.04,0 -15.69,-1.53 -22.92,-4.59 -7.24,-3.06 -13.58,-7.22 -19.04,-12.47 -5.46,-5.25 -9.78,-11.4 -12.99,-18.43 -3.22,-7.04 -4.82,-14.54 -4.82,-22.49zm199.15 -57.22l15.29 0 63.14 93.93 0.31 0 0 -93.93 11.31 0 0 113.21 -11.31 0 -67.12 -99.59 -0.31 0 0 99.59 -11.31 0 0 -113.21zm197.48 64.87l43.88 0 -21.71 -52.01 -22.17 52.01zm15.75 -64.87l12.68 0 48.62 113.21 -12.38 0 -16.36 -38.09 -52.59 0 -16.51 38.09 -11.77 0 48.31 -113.21zm147.02 102.96l16.36 0c2.55,0 5.41,-0.05 8.57,-0.15 3.15,-0.1 6.44,-0.44 9.85,-1 3.42,-0.56 6.86,-1.45 10.32,-2.67 3.47,-1.23 6.83,-3.01 10.1,-5.36 1.73,-1.43 3.61,-3.26 5.65,-5.51 2.04,-2.24 3.95,-4.89 5.73,-7.95 1.79,-3.06 3.29,-6.58 4.52,-10.56 1.22,-3.97 1.83,-8.41 1.83,-13.31 0,-7.54 -1.73,-14.61 -5.2,-21.18 -3.47,-6.58 -8.16,-12.01 -14.06,-16.3 -2.55,-1.63 -5.15,-3 -7.8,-4.13 -2.66,-1.12 -5.45,-2.01 -8.41,-2.67 -2.96,-0.67 -6.17,-1.15 -9.64,-1.46 -3.45,-0.3 -7.28,-0.46 -11.46,-0.46l-16.36 0 0 92.71zm-11.31 -102.96l33.02 0c7.03,0 13.79,0.82 20.26,2.45 6.47,1.63 12,3.93 16.58,6.89 5,3.06 9.13,6.63 12.39,10.71 3.26,4.07 5.88,8.28 7.87,12.62 1.99,4.33 3.39,8.61 4.21,12.85 0.82,4.23 1.22,8.03 1.22,11.39 0,2.66 -0.33,5.94 -0.99,9.87 -0.66,3.93 -1.91,8.06 -3.75,12.39 -1.84,4.34 -4.44,8.67 -7.79,13.01 -3.37,4.33 -7.75,8.23 -13.16,11.7 -4.58,2.96 -10.11,5.25 -16.58,6.88 -6.47,1.63 -13.23,2.45 -20.26,2.45l-33.02 0 0 -113.21zm174.55 0l61.91 0 0 10.25 -50.6 0 0 40.7 48.92 0 0 10.25 -48.92 0 0 41.76 50.6 0 0 10.25 -61.91 0 0 -113.21zm134.49 102.96l55.64 -92.71 -53.96 0 0 -10.25 66.65 0 0 10.25 -55.49 92.71 57.17 0 0 10.25 -70.01 0 0 -10.25zm144.57 -102.96l11.31 0 0 113.21 -11.31 0 0 -113.21z"/>
   <path class="fil1" d="M605.72 3405.4l23.24 0 35.33 82.8 35.46 -82.8 32.04 0 0 130.85 -28.95 0 0 -66.59 -27.97 66.59 -21.35 0 -27.67 -66.33 0 66.33 -28.95 0 0 -130.85 8.82 0zm200.99 0l70.74 0 0 27.89 -50.61 0 0 23.06 48.92 0 0 27.89 -48.92 0 0 24.12 50.61 0 0 27.89 -79.56 0 0 -130.85 8.82 0zm144.27 0l23.24 0 35.33 82.8 35.46 -82.8 32.05 0 0 130.85 -28.96 0 0 -66.59 -27.97 66.59 -21.35 0 -27.66 -66.32 0 66.32 -28.96 0 0 -130.85 8.82 0zm221.73 48.81l5.4 0c4.28,0 7.59,-0.15 9.91,-0.44l2.65 -0.59 2.69 -1.11 1.63 -1.22c0.55,-0.55 1.09,-1.25 1.56,-2.05 0.44,-0.74 0.8,-1.57 1.03,-2.4 0.21,-0.72 0.31,-1.57 0.31,-2.5l-0.16 -2.04 -0.36 -1.24 -0.92 -1.74 -1.18 -1.66c-1.1,-1.22 -2.64,-2.13 -4.58,-2.7 -1.34,-0.38 -2.94,-0.69 -4.77,-0.9 -1.94,-0.22 -4.25,-0.33 -6.89,-0.33l-6.32 0 0 20.92zm0 54.15l7.08 0c4.57,0 8.27,-0.16 11.04,-0.47l3.55 -0.65c1.25,-0.29 2.43,-0.69 3.58,-1.14 0.84,-0.33 1.63,-0.82 2.32,-1.42 0.7,-0.6 1.39,-1.46 2.04,-2.52 0.69,-1.12 1.2,-2.25 1.5,-3.35 0.32,-1.18 0.48,-2.45 0.48,-3.81 0,-1.31 -0.17,-2.5 -0.49,-3.51 -0.36,-1.09 -0.9,-2.13 -1.6,-3.08 -0.76,-1.02 -1.64,-1.93 -2.6,-2.67 -0.81,-0.65 -1.75,-1.18 -2.74,-1.57 -8.02,-2.81 -15.71,-2.12 -24.16,-2.07l0 26.26zm-20.13 -102.96l28.43 0c6.76,0 12.64,0.78 17.64,2.33 2.5,0.77 4.81,1.65 6.87,2.63 2.14,1 4.17,2.21 6.01,3.54 1.83,1.33 3.44,2.7 4.82,4.1 1.43,1.45 2.75,3.07 3.88,4.79 1.02,1.56 1.91,3.04 2.58,4.38l1.9 4.36 1.19 4.19c0.57,3.39 0.65,5.41 0.94,8.64 0,4.37 -0.66,8.3 -1.97,11.79 -0.59,1.59 -1.26,3.06 -1.95,4.4 -0.8,1.57 -1.65,2.92 -2.48,4.09l-0.69 0.88c2.57,2.16 4.84,4.63 6.77,7.36 2.26,3.26 3.97,6.75 5.07,10.44 1.1,3.67 1.66,7.59 1.66,11.68 0,6.87 -1.49,13.27 -4.47,19.18 -1.48,2.93 -3.28,5.62 -5.34,8.01 -2.12,2.44 -4.51,4.57 -7.14,6.31l-0.42 0.24c-2.67,1.56 -5.21,2.84 -7.59,3.8l-3.87 1.36 -3.96 0.99 -4.02 0.69 -4.25 0.41c-16.06,0.69 -32.33,0.26 -48.43,0.26l0 -130.85 8.82 0zm148.55 0l70.74 0 0 27.89 -50.6 0 0 23.06 48.91 0 0 27.89 -48.91 0 0 24.12 50.6 0 0 27.89 -79.56 0 0 -130.85 8.82 0zm143.36 0c13.13,0 26.23,-0.25 39.34,0.34l4.51 0.42c4.03,0.61 6.91,1.19 10.82,2.26 2.03,0.61 3.89,1.32 5.58,2.1 3.95,1.82 7.53,4.12 10.65,6.86 3.14,2.73 5.84,5.96 8.08,9.63 2.21,3.62 3.88,7.44 4.95,11.39 1.07,4.02 1.63,8.15 1.63,12.39 0,2.46 -0.24,5.04 -0.72,7.66 -0.45,2.47 -1.15,4.99 -2.08,7.49 -0.95,2.55 -2.09,4.93 -3.37,7.09 -1.32,2.22 -2.89,4.36 -4.64,6.38 -3.57,4.1 -7.97,7.45 -13.19,10.06l-3.12 1.4 34.35 45.38 -36.32 0 -36.34 -48.54 0 48.54 -28.95 0 0 -130.85 8.82 0zm20.13 62c9.42,-0.04 18.34,0.8 27.19,-2.47l2.53 -1.5 2.16 -1.73 1.66 -1.89 1.3 -2.07 0.91 -2.31 0.54 -2.42 0.18 -2.53c0,-1.5 -0.18,-2.94 -0.54,-4.27l-0.8 -2.28 -0.99 -2.1 -1.09 -1.64 -1.31 -1.54c-0.92,-0.88 -1.85,-1.58 -2.76,-2.03l-0.14 -0.04c-1.42,-0.74 -2.69,-1.3 -3.77,-1.67 -1.16,-0.39 -2.36,-0.71 -3.57,-0.91l-4.58 -0.53 -6.02 -0.18 -10.9 0 0 34.11zm253.84 4.04c0,5.2 1.04,10.15 3.11,14.78 1.06,2.38 2.33,4.65 3.78,6.74 1.44,2.1 3.06,4.04 4.83,5.79 1.82,1.79 3.79,3.41 5.84,4.79 2.1,1.41 4.41,2.67 6.86,3.74 2.37,1.03 4.84,1.81 7.33,2.32 2.43,0.5 5.08,0.75 7.89,0.75 5.39,0 10.48,-1.02 15.25,-3.03 2.39,-1.01 4.7,-2.25 6.87,-3.69 2.11,-1.36 4.09,-2.97 5.92,-4.76 1.77,-1.72 3.39,-3.65 4.82,-5.73 1.45,-2.1 2.72,-4.37 3.8,-6.82 1.07,-2.41 1.87,-4.88 2.37,-7.33 0.51,-2.47 0.77,-5.15 0.77,-8.01 0,-2.83 -0.26,-5.48 -0.75,-7.91 -0.5,-2.51 -1.27,-4.96 -2.3,-7.32 -2.11,-4.82 -5,-9.08 -8.64,-12.74 -1.89,-1.85 -3.87,-3.49 -5.9,-4.88 -2.17,-1.45 -4.44,-2.72 -6.79,-3.74 -2.45,-1.03 -4.94,-1.84 -7.36,-2.33 -2.58,-0.48 -5.29,-0.75 -8.06,-0.75 -2.62,0 -5.19,0.26 -7.68,0.75 -2.56,0.51 -5,1.25 -7.25,2.2 -2.34,0.98 -4.62,2.2 -6.77,3.63 -2.13,1.41 -4.13,3.04 -5.96,4.82 -1.85,1.81 -3.5,3.77 -4.92,5.83 -1.41,2.06 -2.71,4.38 -3.84,6.94 -1.11,2.46 -1.93,4.97 -2.44,7.52 -0.51,2.55 -0.78,5.38 -0.78,8.44zm-28.95 0c0,-4.95 0.51,-9.81 1.49,-14.5 0.98,-4.69 2.49,-9.19 4.49,-13.47 1.92,-4.12 4.19,-8 6.75,-11.56 2.54,-3.54 5.45,-6.85 8.66,-9.85 3.15,-2.99 6.58,-5.64 10.24,-7.94 3.68,-2.31 7.6,-4.28 11.68,-5.88 4.08,-1.59 8.26,-2.8 12.49,-3.6 4.27,-0.81 8.54,-1.22 12.79,-1.22 4.52,0 8.99,0.43 13.35,1.28 4.27,0.83 8.53,2.13 12.75,3.84 4.16,1.69 8.05,3.72 11.64,6.02 3.63,2.34 7.05,5.04 10.21,8.06 3.17,3.02 6.03,6.33 8.52,9.84 2.52,3.61 4.72,7.43 6.56,11.46 1.91,4.19 3.35,8.54 4.29,13.03 0.94,4.54 1.43,9.18 1.43,13.88 0,9.57 -1.91,18.55 -5.72,26.9 -1.86,4.09 -4.05,7.92 -6.53,11.42 -2.5,3.55 -5.37,6.86 -8.55,9.89 -3.16,3.01 -6.57,5.71 -10.2,8.05 -3.55,2.28 -7.45,4.31 -11.65,6.02 -4.21,1.71 -8.47,3.01 -12.75,3.84 -4.36,0.86 -8.83,1.29 -13.35,1.29 -9.17,0 -17.97,-1.78 -26.33,-5.31 -4.17,-1.76 -8.06,-3.82 -11.6,-6.14 -3.6,-2.36 -7,-5.07 -10.13,-8.09 -3.13,-3.01 -5.95,-6.3 -8.44,-9.82 -2.5,-3.6 -4.69,-7.38 -6.48,-11.33 -1.85,-4.13 -3.27,-8.36 -4.18,-12.65 -0.95,-4.38 -1.43,-8.89 -1.43,-13.46zm207.21 -66.04l65.99 0 0 27.89 -45.86 0 0 23.36 44.18 0 0 27.89 -44.18 0 0 51.71 -28.95 0 0 -130.85 8.82 0zm252.09 90.02c0.1,2.53 0.55,4.8 1.32,6.75 0.67,1.72 1.64,3.22 2.88,4.48 1.17,1.19 2.59,2.1 4.17,2.7 1.76,0.66 3.9,1 6.38,1l2.73 -0.23 2.63 -0.76c0.86,-0.3 1.64,-0.7 2.36,-1.16l2 -1.57 1.73 -1.99 1.43 -2.47c0.36,-0.74 0.63,-1.57 0.81,-2.46 0.18,-0.86 0.27,-1.88 0.27,-3.03 0,-2.62 -0.46,-4.6 -1.36,-5.93 -0.63,-0.94 -1.38,-1.83 -2.17,-2.64 -0.76,-0.77 -1.55,-1.43 -2.33,-1.95l-3.03 -1.76 -3.02 -1.23c-4.21,-1.34 -11.84,-4.14 -16.2,-5.07 -2.12,-0.71 -4.17,-1.58 -6.11,-2.56 -1.96,-1.01 -3.89,-2.18 -5.74,-3.48 -2.1,-1.49 -4.01,-3.16 -5.68,-5 -1.72,-1.91 -3.26,-4 -4.57,-6.21 -1.49,-2.52 -2.62,-5.41 -3.35,-8.61 -0.68,-2.98 -1.02,-6.17 -1.02,-9.56 0,-2.63 0.27,-5.33 0.82,-8.05 0.54,-2.67 1.34,-5.23 2.38,-7.62 1.07,-2.46 2.33,-4.71 3.72,-6.72 1.43,-2.06 3.13,-4.02 5.04,-5.82 1.82,-1.72 3.84,-3.27 6.01,-4.64 2.12,-1.33 4.43,-2.5 6.87,-3.47 2.44,-0.97 5.03,-1.71 7.74,-2.2 2.71,-0.49 5.4,-0.74 8.04,-0.74 2.79,0 5.57,0.26 8.27,0.78 2.74,0.53 5.37,1.33 7.82,2.35 2.52,1.09 4.84,2.34 6.92,3.74 2.15,1.49 4.15,3.17 5.92,4.99 1.81,1.87 3.4,3.87 4.77,5.99 1.31,2.06 2.49,4.29 3.46,6.67 1,2.42 1.76,4.9 2.24,7.37 0.51,2.53 0.76,5.09 0.76,7.68l0 8.82 -28.95 0 0 -8.82 -0.19 -2.43 -0.7 -2.13 -1.09 -2.05 -1.41 -1.69 -1.63 -1.4 -2.06 -1.14 -2.05 -0.65 -2.08 -0.19c-2.04,0 -3.78,0.32 -5.16,0.92l-2.05 1.11 -1.45 1.27 -1.3 1.71 -0.95 1.91 -0.58 2.01 -0.17 1.98c0,1.74 0.25,3.04 0.72,3.82l1.31 1.61 1.74 1.32 2.95 1.57 3.59 1.41 10.04 3.04c3.9,1.03 7.48,2.34 10.65,3.87 3.36,1.63 6.3,3.51 8.73,5.62 4.64,4.02 8.1,8.26 10.34,12.68 1.06,2.03 1.92,4.11 2.59,6.17 0.69,2.11 1.17,4.21 1.38,6.23 0.21,2.1 0.53,4.55 0.53,6.66 0,5.52 -1.09,10.85 -3.24,15.96 -1.06,2.52 -2.33,4.88 -3.79,7.07 -1.46,2.2 -3.16,4.3 -5.07,6.24 -1.91,1.94 -4.02,3.7 -6.26,5.23 -2.26,1.54 -4.69,2.89 -7.25,4.01 -2.59,1.14 -5.41,2.01 -8.4,2.61 -2.98,0.59 -5.97,0.9 -8.9,0.9 -2.26,0 -4.59,-0.19 -6.94,-0.54 -2.21,-0.33 -4.59,-0.87 -7.08,-1.6 -2.61,-0.78 -5.08,-1.76 -7.35,-2.93 -2.44,-1.27 -4.7,-2.71 -6.74,-4.29 -2.2,-1.72 -4.24,-3.71 -6.06,-5.94 -1.79,-2.14 -3.42,-4.58 -4.85,-7.25 -1.52,-2.89 -2.68,-6.03 -3.44,-9.4 -0.72,-3.19 -1.13,-6.67 -1.18,-10.39l-0.15 -8.96 28.68 0 0.36 8.48zm140.78 -23.98c0,2.65 0.26,5.19 0.76,7.58 0.52,2.48 1.31,4.9 2.34,7.2 1.06,2.38 2.33,4.65 3.78,6.74 1.44,2.09 3.08,4.04 4.87,5.82 1.79,1.78 3.75,3.38 5.8,4.76 2.11,1.41 4.41,2.67 6.87,3.74 2.37,1.03 4.83,1.81 7.33,2.32 2.42,0.49 5.06,0.75 7.88,0.75 5.38,0 10.47,-1.02 15.25,-3.03 2.46,-1.04 4.77,-2.27 6.87,-3.65 2.12,-1.43 4.11,-3.03 5.88,-4.77 1.82,-1.77 3.45,-3.71 4.9,-5.81 1.42,-2.06 2.69,-4.33 3.76,-6.77 1.07,-2.41 1.87,-4.88 2.37,-7.33 0.51,-2.47 0.77,-5.15 0.77,-8.01 0,-2.83 -0.26,-5.48 -0.75,-7.91 -0.5,-2.52 -1.27,-4.96 -2.3,-7.32 -1.04,-2.38 -2.3,-4.67 -3.74,-6.79 -1.35,-2.03 -3.01,-4.02 -4.92,-5.93 -1.92,-1.92 -3.89,-3.57 -5.88,-4.92 -2.09,-1.41 -4.39,-2.68 -6.83,-3.74 -2.36,-1.03 -4.82,-1.81 -7.32,-2.32 -2.58,-0.47 -5.28,-0.74 -8.06,-0.74 -2.62,0 -5.19,0.26 -7.68,0.75 -2.56,0.51 -5,1.26 -7.24,2.2 -2.4,1.02 -4.67,2.23 -6.77,3.63 -2.12,1.4 -4.11,3.02 -5.92,4.79 -1.84,1.79 -3.5,3.77 -4.97,5.9 -1.47,2.14 -2.77,4.47 -3.87,6.93 -1.07,2.42 -1.88,4.93 -2.4,7.49 -0.51,2.55 -0.78,5.38 -0.78,8.44zm-28.96 0c0,-4.95 0.51,-9.81 1.49,-14.5 0.98,-4.69 2.49,-9.19 4.49,-13.47 1.92,-4.11 4.19,-7.98 6.73,-11.52 2.52,-3.55 5.45,-6.87 8.7,-9.91 3.23,-3.02 6.66,-5.68 10.24,-7.93 3.76,-2.33 7.65,-4.3 11.66,-5.87 4.08,-1.59 8.26,-2.8 12.49,-3.6 4.27,-0.81 8.54,-1.22 12.79,-1.22 4.49,0 8.95,0.43 13.32,1.28 4.27,0.82 8.55,2.12 12.78,3.84 4.16,1.69 8.05,3.72 11.64,6.02 3.62,2.33 7.05,5.04 10.22,8.06 3.17,3.02 6.02,6.32 8.51,9.84 2.48,3.5 4.68,7.35 6.57,11.46 1.91,4.19 3.35,8.55 4.28,13.03 0.94,4.54 1.43,9.18 1.43,13.88 0,4.7 -0.49,9.34 -1.43,13.87 -0.93,4.49 -2.37,8.84 -4.28,13.03 -1.89,4.12 -4.08,7.95 -6.53,11.42 -2.5,3.55 -5.37,6.86 -8.55,9.89 -3.16,3.02 -6.59,5.72 -10.22,8.05 -3.59,2.31 -7.5,4.33 -11.64,6.02 -4.24,1.73 -8.51,3.03 -12.74,3.85 -4.41,0.85 -8.87,1.28 -13.36,1.28 -9.17,0 -17.97,-1.78 -26.33,-5.31 -4.17,-1.76 -8.04,-3.81 -11.6,-6.14 -3.6,-2.36 -7,-5.07 -10.13,-8.09 -3.13,-3 -5.95,-6.3 -8.44,-9.83 -2.43,-3.45 -4.59,-7.23 -6.44,-11.29 -1.89,-4.13 -3.3,-8.38 -4.22,-12.68 -0.95,-4.38 -1.43,-8.89 -1.43,-13.46zm207.97 -66.04l19.94 0 49.98 74.34 0 -74.34 28.95 0 0 130.85 -24.81 0 -53.93 -80.02 0 80.02 -28.95 0 0 -130.85 8.82 0zm210.81 64.87l17.33 0 -8.58 -20.54 -8.75 20.54zm8.5 -64.87l0.42 -0.98 0.41 0.98 11.57 0 56.2 130.85 -31.57 0 -16.36 -38.09 -41.03 0 -16.52 38.09 -30.85 0 55.84 -130.85 11.89 0zm149.76 102.96l15.83 -0.12 4.17 -0.28 4.55 -0.61c2.86,-0.46 5.82,-1.24 8.8,-2.29 1.27,-0.43 2.59,-1.03 3.96,-1.75 1.27,-0.67 2.55,-1.47 3.83,-2.39l4.34 -4.32c1.68,-1.84 3.23,-3.99 4.67,-6.47 0.68,-1.15 1.35,-2.48 1.98,-3.97l1.74 -4.76c0.46,-1.51 0.83,-3.17 1.06,-4.9 0.24,-1.76 0.36,-3.71 0.36,-5.83 0,-3.13 -0.35,-6.11 -1.02,-8.86 -0.68,-2.79 -1.75,-5.55 -3.15,-8.22 -1.42,-2.71 -3.1,-5.19 -4.98,-7.36 -1.84,-2.13 -3.92,-4.06 -6.2,-5.75l-3.08 -1.75 -3.26 -1.57 -3.25 -1.22 -3.6 -0.97 -4.01 -0.72 -4.46 -0.56 -5.1 -0.31 -13.18 -0.09 0 75.07zm-20.13 -102.96l33.02 0c3.8,0 7.61,0.23 11.36,0.68 3.73,0.45 7.43,1.14 11.04,2.05 3.58,0.89 7.01,2.04 10.19,3.35 3.28,1.34 6.28,2.92 9,4.67 5.77,3.56 10.61,7.78 14.49,12.62 1.89,2.33 3.57,4.7 5.03,7.05 1.53,2.46 2.86,4.94 3.98,7.38 1.14,2.47 2.12,4.97 2.92,7.43 0.83,2.58 1.49,5.07 1.94,7.42 0.44,2.21 0.78,4.49 1.02,6.75 0.25,2.33 0.38,4.46 0.38,6.33 0,3.07 -0.38,6.85 -1.13,11.32 -0.77,4.62 -2.23,9.43 -4.33,14.39 -1.1,2.55 -2.41,5.11 -3.88,7.57 -1.39,2.36 -3.08,4.82 -5.05,7.36 -2.06,2.67 -4.38,5.13 -6.91,7.38 -2.56,2.23 -5.38,4.37 -8.47,6.35 -2.71,1.76 -5.71,3.33 -8.94,4.67 -3.15,1.31 -6.59,2.44 -10.24,3.35 -3.61,0.91 -7.31,1.6 -11.04,2.05 -3.75,0.45 -7.56,0.68 -11.36,0.68l-41.84 0 0 -130.85 8.82 0zm174.55 0l70.73 0 0 27.89 -50.6 0 0 23.06 48.92 0 0 27.89 -48.92 0 0 24.12 50.6 0 0 27.89 -79.55 0 0 -130.85 8.82 0zm126.94 107.27l47.64 -79.38 -47.23 0 0 -27.89 84.29 0 0 21.45 -48.78 81.51 50.46 0 0 27.89 -87.65 0 0 -21.47 1.27 -2.11zm152.12 -107.27l20.13 0 0 130.85 -28.95 0 0 -130.85 8.82 0z"/>
   <path class="fil2" d="M1770.82 1293.97l766.56 -911.79 -1119.73 0 -758.01 901.62c-14.66,26.37 -29.32,52.73 -36.65,73.51 -7.32,20.79 -7.32,36 -2.32,48.21 5,12.21 15.01,21.42 24.22,28.83 9.21,7.4 17.62,13.01 25.42,15.81 7.81,2.8 15.02,2.8 22.22,2.8l944.62 0 184.32 0c-9.81,-3 -19.61,-6 -27.52,-8.7 -7.91,-2.71 -13.91,-5.11 -19.92,-8.91 -6,-3.8 -12.01,-9.01 -17.21,-14.91 -5.21,-5.91 -9.61,-12.51 -12.71,-20.92 -3.1,-8.41 -4.91,-18.62 -4.51,-29.53 0.4,-10.91 3.01,-22.51 8.58,-35.3 5.57,-12.79 14.1,-26.76 22.64,-40.72z"/>
   <path class="fil2" d="M3194.8 1222.88l-942.44 0 -176.89 0c18.41,6.23 36.83,12.47 49.24,20.19 12.41,7.72 18.81,16.92 22.61,27.93 3.81,11.01 5.01,23.82 5.21,33.43 0.2,9.61 -0.6,16.01 -3.79,25.27 -3.18,9.25 -8.75,21.36 -14.32,33.46l-782.29 930.5 1119.73 0 763.92 -908.65c6.36,-11.38 12.71,-22.76 17.49,-33.06 4.78,-10.29 7.98,-19.5 11.19,-29.31 3.2,-9.8 6.4,-20.21 6.8,-30.42 0.4,-10.21 -2,-20.22 -6.4,-29.43 -4.41,-9.2 -10.81,-17.61 -22.82,-24.13 -12.01,-6.52 -29.63,-11.15 -47.24,-15.78z"/>
   <path class="fil3" d="M605.78 3029.86l134.31 0 0 20.7 -109.77 0 0 82.18 106.12 0 0 20.7 -106.12 0 0 84.34 109.77 0 0 20.7 -134.31 0 0 -228.62zm216.15 0l33.17 0 136.96 189.69 0.66 0 0 -189.69 24.54 0 0 228.62 -24.54 0 -145.58 -201.13 -0.67 0 0 201.13 -24.54 0 0 -228.62zm259.93 0l27.2 0 86.55 200.2 86.89 -200.2 26.53 0 -101.82 228.62 -24.2 0 -101.15 -228.62zm292.1 0l24.54 0 0 228.62 -24.54 0 0 -228.62zm109.7 0l62.34 0c8.18,0 15.43,0.2 21.73,0.61 6.3,0.42 11.82,1.03 16.57,1.86 4.76,0.82 8.9,1.75 12.44,2.78 3.54,1.03 6.74,2.16 9.62,3.4 13.92,5.97 24.7,14.78 32.33,26.41 7.63,11.64 11.45,24.56 11.45,38.78 0,8.23 -1.6,16.37 -4.81,24.4 -3.21,8.04 -7.85,15.3 -13.94,21.78 -6.07,6.49 -13.64,11.85 -22.71,16.07 -9.06,4.22 -19.57,6.64 -31.5,7.26l69.31 85.27 -30.84 0 -83.25 -103.5c7.74,0 14.32,-0.05 19.73,-0.15 5.42,-0.11 10.12,-0.26 14.11,-0.47 3.97,-0.2 7.46,-0.51 10.44,-0.92 2.99,-0.41 5.8,-1.03 8.46,-1.86 6.62,-1.85 12.48,-4.42 17.57,-7.72 5.09,-3.3 9.34,-7.11 12.76,-11.43 3.44,-4.33 5.98,-9.01 7.64,-14.06 1.65,-5.05 2.49,-10.14 2.49,-15.29 0,-4.53 -0.67,-9.01 -2,-13.44 -1.32,-4.43 -3.14,-8.6 -5.46,-12.51 -2.33,-3.92 -5.14,-7.42 -8.46,-10.51 -3.32,-3.09 -6.97,-5.56 -10.95,-7.41 -7.29,-3.5 -14.48,-5.82 -21.55,-6.95 -7.08,-1.14 -15.82,-1.7 -26.21,-1.7l-42.77 0 0 207.92 -24.54 0 0 -228.62zm253.63 115.54c0,12.98 2.81,25.34 8.45,37.08 5.64,11.74 13.21,21.99 22.72,30.74 9.51,8.75 20.61,15.7 33.33,20.85 12.71,5.15 26.25,7.73 40.61,7.73 14.16,0 27.65,-2.53 40.47,-7.57 12.82,-5.05 24.05,-11.95 33.65,-20.7 9.62,-8.76 17.25,-19.05 22.89,-30.9 5.63,-11.84 8.46,-24.56 8.46,-38.15 0,-13.39 -2.76,-26.01 -8.29,-37.85 -5.53,-11.84 -13.11,-22.24 -22.72,-31.2 -9.62,-8.96 -20.78,-16.02 -33.49,-21.17 -12.71,-5.15 -26.37,-7.72 -40.97,-7.72 -13.92,0 -27.18,2.47 -39.79,7.42 -12.6,4.94 -23.76,11.84 -33.49,20.69 -9.73,8.86 -17.47,19.31 -23.22,31.36 -5.75,12.05 -8.61,25.18 -8.61,39.39zm-24.55 0c0,-17.91 3.7,-34.24 11.11,-48.96 7.4,-14.73 17.14,-27.35 29.18,-37.85 12.06,-10.5 25.87,-18.59 41.46,-24.25 15.58,-5.67 31.56,-8.5 47.91,-8.5 17.25,0 33.72,2.99 49.42,8.96 15.7,5.97 29.51,14.26 41.46,24.87 11.94,10.61 21.45,23.12 28.52,37.54 7.07,14.42 10.61,30.07 10.61,46.96 0,16.89 -3.54,32.54 -10.61,46.96 -7.07,14.42 -16.58,26.93 -28.52,37.54 -11.95,10.6 -25.76,18.89 -41.46,24.87 -15.7,5.97 -32.17,8.96 -49.42,8.96 -17.46,0 -34.03,-3.09 -49.74,-9.27 -15.69,-6.18 -29.45,-14.57 -41.28,-25.18 -11.83,-10.61 -21.23,-23.02 -28.19,-37.23 -6.96,-14.21 -10.45,-29.35 -10.45,-45.42zm335.55 -115.54l33.16 0 136.96 189.69 0.67 0 0 -189.69 24.53 0 0 228.62 -24.53 0 -145.59 -201.13 -0.67 0 0 201.13 -24.53 0 0 -228.62zm282.47 0l37.81 0 89.21 194.64 89.53 -194.64 37.81 0 0 228.62 -24.54 0 0 -203.6 -0.66 0 -91.86 203.6 -20.9 0 -91.19 -203.6 -0.67 0 0 203.6 -24.54 0 0 -228.62zm339.54 0l134.3 0 0 20.7 -109.77 0 0 82.18 106.12 0 0 20.7 -106.12 0 0 84.34 109.77 0 0 20.7 -134.3 0 0 -228.62zm216.15 0l33.17 0 136.95 189.69 0.67 0 0 -189.69 24.54 0 0 228.62 -24.54 0 -145.59 -201.13 -0.66 0 0 201.13 -24.54 0 0 -228.62zm315.65 20.7l-56.39 0 0 -20.7 136.97 0 0 20.7 -56.05 0 0 207.92 -24.53 0 0 -207.92z"/>
   <path class="fil4" d="M605.78 3012.22l151.95 0 0 55.98 -109.77 0 0 46.9 106.12 0 0 55.98 -106.12 0 0 49.06 109.77 0 0 55.98 -169.59 0 0 -263.9 17.64 0zm216.15 0l42.11 0 111.04 153.79 0 -153.79 59.82 0 0 263.9 -51.15 0 -119.64 -165.28 0 165.28 -59.82 0 0 -263.9 17.64 0zm177.69 224.97l-0.57 0 0.57 0.78 0 -0.78zm82.24 -224.97l38.71 0 75.07 173.67 75.38 -173.67 65.12 0 -117.53 263.9 -47.05 0 -116.76 -263.9 27.06 0zm292.1 0l42.18 0 0 263.9 -59.82 0 0 -263.9 17.64 0zm109.7 0l62.34 0 12.05 0.22 10.78 0.46 9.7 0.85 8.73 1.22 7.48 1.5 6.89 1.76 5.96 1.89 5.73 2.2c8.43,3.64 16.01,8.2 22.65,13.63 6.87,5.61 12.71,12.07 17.47,19.32 4.7,7.18 8.3,14.91 10.72,23.11 2.4,8.18 3.62,16.63 3.62,25.32 0,5.22 -0.52,10.44 -1.54,15.66 -0.97,4.95 -2.52,10.04 -4.58,15.22 -1.97,4.99 -4.45,9.8 -7.41,14.44 -2.99,4.68 -6.36,8.99 -10.04,12.92 -3.96,4.15 -8.24,7.9 -12.85,11.16 -4.79,3.41 -9.86,6.34 -15.24,8.84 -2.21,1.03 -4.51,1.98 -6.88,2.84l74.25 91.34 -76.23 0 -81.42 -101.22 0 101.22 -59.82 0 0 -263.9 17.64 0zm42.18 125.12l25.88 -0.08 13.69 -0.46 8.86 -0.79 3.04 -0.57 3.14 -0.81c2.35,-0.65 4.69,-1.5 6.95,-2.49 2.09,-0.88 3.99,-1.91 5.73,-3.03 1.68,-1.09 3.33,-2.35 4.88,-3.74 1.49,-1.34 2.74,-2.64 3.68,-3.83 1.13,-1.5 2.09,-2.93 2.83,-4.28 0.72,-1.33 1.35,-2.79 1.85,-4.33 0.57,-1.76 1,-3.43 1.24,-4.93 0.23,-1.48 0.35,-3.1 0.35,-4.92l-0.28 -4.14 -0.94 -4.28c-0.92,-3.03 -2.18,-5.91 -3.76,-8.57 -0.7,-1.21 -1.52,-2.4 -2.41,-3.5l-2.88 -3.08c-1.95,-1.81 -4.08,-3.27 -6.33,-4.31l-0.21 -0.14c-2.89,-1.38 -5.79,-2.56 -8.65,-3.47 -2.75,-0.89 -5.48,-1.56 -8.08,-1.97 -2.82,-0.45 -6.24,-0.81 -10.2,-1.07 -3.64,-0.23 -8.07,-0.35 -13.25,-0.35l-25.13 0 0 69.14zm229.09 8.06c0,5.31 0.55,10.39 1.63,15.15 1.12,4.91 2.8,9.7 5.03,14.35 2.29,4.76 5.06,9.35 8.25,13.68 3.07,4.15 6.6,8.07 10.54,11.69 4.08,3.76 8.37,7.04 12.81,9.83 4.76,2.91 9.82,5.49 15.15,7.64 5.4,2.16 10.85,3.78 16.38,4.83 5.57,1.06 11.48,1.59 17.68,1.59 6.15,0 11.99,-0.52 17.5,-1.54 5.61,-1.06 11.15,-2.67 16.56,-4.79 5.33,-2.1 10.43,-4.65 15.22,-7.59 4.73,-2.91 9.08,-6.17 12.99,-9.73 4,-3.64 7.57,-7.57 10.66,-11.74 3.09,-4.18 5.83,-8.74 8.16,-13.65 2.31,-4.93 4.02,-9.83 5.1,-14.71 1.08,-4.91 1.64,-10.23 1.64,-15.93 0,-5.46 -0.56,-10.73 -1.66,-15.79 -1.08,-4.96 -2.76,-9.85 -4.98,-14.62 -2.3,-4.93 -5.02,-9.54 -8.09,-13.77 -2.98,-4.18 -6.55,-8.19 -10.63,-11.98 -4.06,-3.78 -8.4,-7.13 -12.97,-10.02 -4.58,-2.9 -9.66,-5.48 -15.15,-7.71 -5.32,-2.15 -10.79,-3.77 -16.39,-4.82 -5.62,-1.06 -11.62,-1.59 -17.96,-1.59 -6.04,0 -11.77,0.51 -17.15,1.5 -5.5,1.03 -10.93,2.6 -16.23,4.68 -5.42,2.12 -10.45,4.62 -15,7.43 -4.54,2.8 -8.9,6.11 -13.05,9.88 -4.06,3.69 -7.67,7.69 -10.82,11.93 -3.09,4.18 -5.89,8.86 -8.33,13.99 -2.3,4.81 -4.02,9.84 -5.15,15.03 -1.16,5.3 -1.74,10.91 -1.74,16.78zm-59.83 0c0,-10.12 1.1,-19.99 3.26,-29.54 2.15,-9.5 5.43,-18.62 9.78,-27.28 4.24,-8.44 9.13,-16.25 14.63,-23.39 5.55,-7.19 11.8,-13.83 18.68,-19.83 6.68,-5.89 14.07,-11.18 22.1,-15.87 7.87,-4.6 16.2,-8.52 24.95,-11.69 8.84,-3.21 17.73,-5.63 26.62,-7.19 9.03,-1.6 18.14,-2.41 27.28,-2.41 9.43,0 18.91,0.87 28.39,2.58 9.4,1.71 18.49,4.24 27.23,7.55 8.75,3.3 17.06,7.33 24.97,12.08 7.81,4.68 15.14,10.08 21.94,16.1 6.82,6.02 12.96,12.64 18.43,19.82 5.44,7.24 10.21,14.96 14.22,23.16 4.16,8.48 7.28,17.31 9.34,26.41 2.08,9.23 3.13,18.68 3.13,28.27 0,9.6 -1.05,19.04 -3.13,28.27 -2.06,9.1 -5.18,17.93 -9.34,26.41 -4.01,8.2 -8.78,15.92 -14.22,23.09 -5.49,7.22 -11.64,13.87 -18.43,19.89 -6.8,6.02 -14.13,11.4 -21.94,16.1 -7.9,4.73 -16.22,8.78 -24.9,12.08 -8.7,3.31 -17.82,5.84 -27.3,7.55 -9.48,1.71 -18.96,2.58 -28.39,2.58 -19.63,0 -38.35,-3.51 -56.15,-10.51 -8.76,-3.45 -17.06,-7.56 -24.84,-12.31 -7.84,-4.78 -15.14,-10.19 -21.81,-16.18 -6.85,-6.2 -12.93,-12.79 -18.2,-19.75 -5.26,-6.94 -9.95,-14.59 -13.99,-22.85 -4.11,-8.39 -7.19,-17.02 -9.22,-25.8 -2.05,-8.95 -3.09,-18.08 -3.09,-27.34zm353.19 -133.18l42.09 0 111.06 153.81 0 -153.81 59.81 0 0 263.9 -51.15 0 -119.64 -165.29 0 165.29 -59.81 0 0 -263.9 17.64 0zm177.68 224.97l-0.56 0 0.56 0.77 0 -0.77zm104.79 -224.97l49.06 0 77.99 170.16 78.26 -170.16 66.69 0 0 263.9 -59.82 0 0 -140.77 -63.52 140.77 -43.64 0 -62.84 -140.32 0 140.32 -59.82 0 0 -263.9 17.64 0zm339.54 0l151.94 0 0 55.98 -109.77 0 0 46.9 106.12 0 0 55.98 -106.12 0 0 49.06 109.77 0 0 55.98 -169.58 0 0 -263.9 17.64 0zm216.15 0l42.1 0 111.05 153.8 0 -153.8 59.82 0 0 263.9 -51.16 0 -119.63 -165.27 0 165.27 -59.82 0 0 -263.9 17.64 0zm177.69 224.97l-0.57 0 0.57 0.78 0 -0.78zm120.32 -168.99l-56.39 0 0 -55.98 172.25 0 0 55.98 -56.05 0 0 207.92 -59.81 0 0 -207.92z"/>
  </g>
 </g>
</svg>
