<?xml version="1.0" encoding="UTF-8"?>
<!DOCTYPE svg PUBLIC "-//W3C//DTD SVG 1.1//EN" "http://www.w3.org/Graphics/SVG/1.1/DTD/svg11.dtd">
<!-- Creator: CorelDRAW -->
<svg xmlns="http://www.w3.org/2000/svg" xml:space="preserve" width="39mm" height="39mm" version="1.1" style="shape-rendering:geometricPrecision; text-rendering:geometricPrecision; image-rendering:optimizeQuality; fill-rule:evenodd; clip-rule:evenodd"
viewBox="0 0 3900 3900"
 xmlns:xlink="http://www.w3.org/1999/xlink"
 xmlns:xodm="http://www.corel.com/coreldraw/odm/2003">
 <defs>
  <style type="text/css">
   <![CDATA[
    .fil1 {fill:#013D7A}
    .fil5 {fill:#B29956}
    .fil0 {fill:#FEFEFE}
    .fil3 {fill:url(#id0)}
    .fil4 {fill:url(#id1)}
    .fil2 {fill:url(#id2)}
   ]]>
  </style>
  <linearGradient id="id0" gradientUnits="objectBoundingBox" x1="86.8833%" y1="22.7902%" x2="39.3045%" y2="85.4331%">
   <stop offset="0" style="stop-opacity:1; stop-color:#927728"/>
   <stop offset="0.458824" style="stop-opacity:1; stop-color:#9A8034"/>
   <stop offset="0.619608" style="stop-opacity:1; stop-color:#B9A160"/>
   <stop offset="0.780392" style="stop-opacity:1; stop-color:#E2CC9A"/>
   <stop offset="1" style="stop-opacity:1; stop-color:#AF995F"/>
  </linearGradient>
  <linearGradient id="id1" gradientUnits="userSpaceOnUse" x1="3291.92" y1="1389.75" x2="2823.5" y2="1942.72">
   <stop offset="0" style="stop-opacity:1; stop-color:#FFFDFB"/>
   <stop offset="0.290196" style="stop-opacity:1; stop-color:#FBF5E5"/>
   <stop offset="0.341176" style="stop-opacity:1; stop-color:#EDD8A1"/>
   <stop offset="0.45098" style="stop-opacity:1; stop-color:#E6CB70"/>
   <stop offset="0.501961" style="stop-opacity:1; stop-color:#E5CB6B"/>
   <stop offset="0.6" style="stop-opacity:1; stop-color:#F2E598"/>
   <stop offset="0.65098" style="stop-opacity:1; stop-color:#FCFAF0"/>
   <stop offset="1" style="stop-opacity:1; stop-color:white"/>
  </linearGradient>
  <linearGradient id="id2" gradientUnits="userSpaceOnUse" x1="3062.41" y1="1796.43" x2="2946.98" y2="2103.78">
   <stop offset="0" style="stop-opacity:1; stop-color:#9D823B"/>
   <stop offset="1" style="stop-opacity:1; stop-color:#D7B979"/>
  </linearGradient>
 </defs>
 <g id="Layer_x0020_1">
  <metadata id="CorelCorpID_0Corel-Layer"/>
  <g id="_1892096504576">
   <rect class="fil0" x="-5.8" y="5.8" width="3900" height="3900"/>
   <g>
    <path class="fil1" d="M195.42 1603.32l1056.33 0 0 336.97c0,3.65 -1.46,7.2 -4.05,9.8 -2.61,2.6 -6.14,4.03 -9.8,4.03 -2.98,0 -6.12,0 -9.09,0 -3.72,0 -7.26,-1.47 -9.86,-4.12 -2.61,-2.65 -4.04,-6.21 -3.98,-9.95 -0.52,-60.22 -17.62,-293.69 -239.34,-293.69l-124.12 0c0,0 -21.01,0.62 -21.01,20.74l0 1042.74c0,0 7.76,34.24 82.99,34.24l72.33 0c3.51,0 6.89,1.37 9.38,3.88 2.49,2.45 3.89,5.86 3.89,9.37 0,0 0,0.05 0,0.05 0,3.5 -1.4,6.87 -3.89,9.37 -2.5,2.51 -5.87,3.89 -9.38,3.89 -75.69,0 -451.93,0 -525,0 -3.26,0 -6.39,-1.28 -8.7,-3.6 -2.31,-2.32 -3.61,-5.45 -3.61,-8.71 0,0 0,0 0,0 0,-3.27 1.3,-6.4 3.61,-8.72 2.31,-2.31 5.44,-3.6 8.7,-3.6 25.9,0 83.67,0 83.67,0 0,0 69.39,-1.31 69.39,-35.7l0 -1045.91c0,0 0.53,-21.31 -35.94,-21.31l-120.57 0c0,0 -219.67,11.31 -226.31,298.44 -0.25,7.38 -6.3,13.26 -13.68,13.26 -3.22,0.13 -6.4,0.13 -9.3,0.13 -3.69,0 -7.22,-1.46 -9.83,-4.07 -2.59,-2.6 -4.05,-6.16 -4.04,-9.79 0.25,-65.26 1.21,-337.74 1.21,-337.74zm1485.71 593.46l0 501.84c0,40.29 49.29,41.66 49.29,41.66 0,0 72.65,0 104.92,0 4.03,0 7.88,1.61 10.73,4.46 2.84,2.84 4.44,6.67 4.44,10.69 0,0.06 0,0.06 0,0.06 0,4.02 -1.6,7.85 -4.44,10.69 -2.85,2.85 -6.7,4.46 -10.73,4.46 -78.2,0 -435.42,0 -513.74,0 -4.03,0 -7.91,-1.61 -10.76,-4.46 -2.84,-2.84 -4.44,-6.72 -4.42,-10.75 0,0 0,-0.04 0,-0.04 0.01,-8.33 6.77,-15.11 15.12,-15.11l97.74 0c39.55,0 41.59,-41.66 41.59,-41.66l0 -1023.28c0,0 -2.04,-41.72 -41.59,-41.72l-97.74 0c-8.35,0 -15.11,-6.72 -15.12,-15.11 0,0 0,0 0,0 -0.02,-4.01 1.58,-7.9 4.42,-10.74 2.85,-2.9 6.73,-4.45 10.76,-4.45 78.32,0 435.54,0 513.74,0 4.03,0 7.88,1.55 10.73,4.4 2.84,2.85 4.44,6.72 4.44,10.75 0,0 0,0 0,0 0,4.03 -1.6,7.91 -4.44,10.75 -2.85,2.83 -6.7,4.4 -10.73,4.4 -32.27,0 -104.92,0 -104.92,0 0,0 -49.29,1.37 -49.29,41.72l0 467.6 448.07 0 0 53.84 -448.07 0zm708.48 501.84c0,40.29 49.3,41.66 49.3,41.66 0,0 72.62,0 104.92,0 4.02,0 7.9,1.61 10.75,4.46 2.84,2.84 4.45,6.67 4.45,10.69 0,0.06 0,0.06 0,0.06 0,4.02 -1.61,7.85 -4.45,10.69 -2.85,2.85 -6.73,4.46 -10.75,4.46 -78.17,0 -435.41,0 -513.74,0 -4.04,0 -7.89,-1.61 -10.75,-4.46 -2.84,-2.84 -4.44,-6.72 -4.43,-10.75 0,0 0,-0.04 0,-0.04 0.01,-8.33 6.79,-15.11 15.13,-15.11l97.73 0c39.57,0 41.6,-41.66 41.6,-41.66l0 -1023.28c0,0 -2.03,-41.72 -41.6,-41.72l-97.73 0c-8.34,0 -15.12,-6.72 -15.13,-15.11 0,0 0,0 0,0 -0.01,-4.01 1.59,-7.9 4.43,-10.74 2.86,-2.9 6.71,-4.45 10.75,-4.45 78.33,0 435.57,0 513.74,0 4.02,0 7.9,1.55 10.75,4.4 2.84,2.85 4.45,6.72 4.45,10.75 0,0 0,0 0,0 0,4.03 -1.61,7.91 -4.45,10.75 -2.85,2.83 -6.73,4.4 -10.75,4.4 -32.3,0 -104.92,0 -104.92,0 0,0 -49.3,1.37 -49.3,41.72l0 1023.28z"/>
    <path class="fil2" d="M3044.15 1769.65l73.73 64.58c0,0 -21.69,211.84 -145.22,329.36 -48.67,-68.84 -70.02,-187.6 -37.97,-289.72 46.3,-45.12 88.3,-76.67 109.46,-104.22zm-261.22 -162.02c0,0 -105.68,61.73 -150.8,116.37 39.2,27.33 118.75,59.38 211.36,17.81 -67.66,65.29 -141.28,149.61 -191.14,292.1 61.74,-28.51 97.11,-41.11 131.57,-60.76 26.15,-54.55 146.98,-273.44 146.98,-273.44l-147.97 -92.08z"/>
    <path class="fil3" d="M3210.92 1633.62l241.05 -218.46c0,0 160.32,0 242.23,37.97 -60.56,61.79 -216.57,156.01 -385.17,188.06 90.23,62.94 151.27,181.25 147.72,294.04 -52.27,2.42 -140.15,-11.84 -171.02,-26.09 -23.73,-68.89 -74.81,-275.52 -74.81,-275.52zm-197.39 -220.74c0,0 30.87,-162.68 134.17,-254.11 46.32,40.39 77.19,111.64 49.92,192.37 71.2,-89.06 246.97,-191.19 311.07,-210.18 -17.8,67.71 -64.1,192.38 -174.52,293.33 -69.98,15.66 -168.71,37.78 -168.71,37.78l-45.07 -194.56 -102.08 231.59 -148.45 58.14c0,0 -87.87,-58.14 -55.82,-180.49 49.86,-17.81 146.07,-28.46 199.49,26.13z"/>
    <path class="fil3" d="M3210.92 1633.62l241.05 -218.46c0,0 160.32,0 242.23,37.97 -60.56,61.79 -216.57,156.01 -385.17,188.06 90.23,62.94 151.27,181.25 147.72,294.04 -52.27,2.42 -140.15,-11.84 -171.02,-26.09 -23.73,-68.89 -74.81,-275.52 -74.81,-275.52zm-197.39 -220.74c0,0 30.87,-162.68 134.17,-254.11 46.32,40.39 77.19,111.64 49.92,192.37 71.2,-89.06 246.97,-191.19 311.07,-210.18 -17.8,67.71 -64.1,192.38 -174.52,293.33 -69.98,15.66 -168.71,37.78 -168.71,37.78l-45.07 -194.56 -102.08 231.59 -148.45 58.14c0,0 -87.87,-58.14 -55.82,-180.49 49.86,-17.81 146.07,-28.46 199.49,26.13z"/>
    <polygon class="fil4" points="2811.16,1602.89 3027.54,1517.1 3117.6,1309.24 3159.26,1489.64 3425.22,1419.38 3182.22,1623.68 3257.22,1905.58 3041.6,1744.51 2805.09,1966.38 2950.22,1693.75 "/>
    <path class="fil5" d="M3293.35 1641.1c0,0 7.38,0.05 15.68,0.09 90.23,62.94 151.27,181.25 147.72,294.04 -52.27,2.42 -140.15,-11.84 -171.02,-26.09 -23.73,-68.89 -74.81,-275.52 -74.81,-275.52 0,0 60.8,203.22 82.62,268.33 30.92,12.49 104.35,24.37 153.69,23.86 0,-106.82 -58.48,-217.19 -143.74,-276.71l-10.14 -8z"/>
   </g>
  </g>
 </g>
</svg>
