<?xml version="1.0" encoding="UTF-8"?>
<!DOCTYPE svg PUBLIC "-//W3C//DTD SVG 1.1//EN" "http://www.w3.org/Graphics/SVG/1.1/DTD/svg11.dtd">
<!-- Creator: CorelDRAW -->
<svg xmlns="http://www.w3.org/2000/svg" xml:space="preserve" width="257mm" height="115mm" version="1.1" style="shape-rendering:geometricPrecision; text-rendering:geometricPrecision; image-rendering:optimizeQuality; fill-rule:evenodd; clip-rule:evenodd"
viewBox="0 0 25700 11500"
 xmlns:xlink="http://www.w3.org/1999/xlink"
 xmlns:xodm="http://www.corel.com/coreldraw/odm/2003">
 <defs>
  <style type="text/css">
   <![CDATA[
    .fil3 {fill:#B64437}
    .fil5 {fill:#168B4E}
    .fil2 {fill:#3150A0}
    .fil0 {fill:#00005C}
    .fil6 {fill:#2680C2}
    .fil4 {fill:#FEFEFE;fill-rule:nonzero}
    .fil1 {fill:white;fill-rule:nonzero}
   ]]>
  </style>
 </defs>
 <g id="Layer_x0020_1">
  <metadata id="CorelCorpID_0Corel-Layer"/>
  <g id="_2791231293056">
   <g>
    <polygon class="fil0" points="7066.42,8000.99 11566.42,8000.99 11566.42,9500.98 7066.42,9500.98 "/>
    <path class="fil1" d="M8022.81 8650.16l-64.05 0 -128.64 -215.29 -1.34 0.23 0 215.06 -63.98 0 0 -319.22 63.98 0 128.71 215.06 1.27 -0.23 0 -214.83 64.05 0 0 319.22zm316.76 0l-64.05 0 0 -132.6 -129.98 0 0 132.6 -63.98 0 0 -319.22 63.98 0 0 137.23 129.98 0 0 -137.23 64.05 0 0 319.22zm229.07 -68.84l-103.49 0 -21.48 68.84 -66.82 0 107.6 -319.22 65.55 0 107.23 319.22 -66.89 0 -21.7 -68.84zm-87.71 -50.21l72.14 0 -35.24 -112.47 -1.35 0 -35.55 112.47zm65.56 -231.75l-55 0 -59.64 -57.02 0.45 -1.28 71.23 0 42.96 58.3zm418.3 266.84l1.28 0 82.01 -235.26 83.51 0 0 319.22 -63.98 0 0 -217.9 -1.35 -0.23 -78.94 218.13 -43.4 0 -78.88 -218.58 -1.34 0.23 0 218.35 -63.98 0 0 -319.22 83.96 0 81.11 235.26zm395.94 15.12l-103.49 0 -21.48 68.84 -66.82 0 107.6 -319.22 65.55 0 107.23 319.22 -66.89 0 -21.7 -68.84zm-87.71 -50.21l72.14 0 -35.24 -112.47 -1.35 0 -35.55 112.47zm47.9 -290.05l71.23 0 0.45 1.28 -60.76 57.02 -54.55 0 43.63 -58.3zm229.21 236.99l1.34 0 69.75 -147.11 70.11 0 -109.4 206.97 0 112.25 -63.98 0 0 -115.54 -107.68 -203.68 70.19 0 69.67 147.11zm397.65 -33.97l59.87 -113.14 74.53 0 -94.66 158.34 100.19 160.88 -77.45 0 -61.58 -115.09 -61.59 115.09 -74.75 0 97.13 -160.88 -94.74 -158.34 74.09 0 58.96 113.14zm236.77 156.99l142.92 0 0 49.09 -206.9 0 0 -319.22 63.98 0 0 270.13zm443.51 49.09l-64.05 0 -128.64 -215.29 -1.34 0.23 0 215.06 -63.98 0 0 -319.22 63.98 0 128.71 215.06 1.27 -0.23 0 -214.83 64.05 0 0 319.22zm274.86 -269.84l-91.22 0 0 269.84 -63.98 0 0 -269.84 -89.87 0 0 -49.38 245.07 0 0 49.38zm-2542.31 739.86l-103.49 0 -21.48 68.84 -66.82 0 107.6 -319.22 65.55 0 107.23 319.22 -66.89 0 -21.7 -68.84zm-87.71 -50.21l72.14 0 -35.24 -112.47 -1.35 0 -35.55 112.47zm465 119.05l-64.05 0 -128.64 -215.29 -1.34 0.23 0 215.06 -63.98 0 0 -319.22 63.98 0 128.71 215.06 1.27 -0.23 0 -214.83 64.05 0 0 319.22zm428.56 0l-64.05 0 -128.64 -215.29 -1.34 0.23 0 215.06 -63.98 0 0 -319.22 63.98 0 128.71 215.06 1.27 -0.23 0 -214.83 64.05 0 0 319.22zm303.37 -43.63c-9.95,13.02 -24.77,24.32 -44.53,33.9 -19.68,9.58 -45.12,14.29 -76.25,14.37 -38.61,-0.08 -70.19,-12.2 -94.73,-36.44 -24.55,-24.25 -36.82,-55.75 -36.82,-94.51l0 -66.6c0,-38.61 11.9,-70.04 35.77,-94.36 23.8,-24.4 54.4,-36.52 91.82,-36.52 39.06,0 68.91,9.2 89.64,27.69 20.8,18.56 30.83,43.17 30.08,74l-0.45 1.35 -60.31 0c0,-16.98 -4.86,-30.16 -14.66,-39.58 -9.81,-9.43 -24.03,-14.15 -42.73,-14.15 -19.61,0 -35.4,7.56 -47.37,22.68 -11.97,15.11 -17.96,34.64 -17.96,58.44l0 67.05c0,24.17 6.14,43.77 18.41,59.04 12.27,15.19 28.73,22.75 49.31,22.75 15.19,0 27.24,-1.5 36.07,-4.57 8.83,-3.07 15.64,-6.96 20.5,-11.67l0 -61.81 -61.43 0 0 -44.23 125.64 0 0 123.17zm312.41 43.63l-64.05 0 0 -132.6 -129.98 0 0 132.6 -63.98 0 0 -319.22 63.98 0 0 137.23 129.98 0 0 -137.23 64.05 0 0 319.22zm127.14 0l-64.05 0 0 -319.22 64.05 0 0 319.22zm245.75 -140.31l-118.38 0 0 91.22 140.75 0 0 49.09 -204.73 0 0 -319.22 204.28 0 0 49.38 -140.3 0 0 80.22 118.38 0 0 49.31zm1.65 -213.71l0 5.01 -50.89 0 -30.68 -29.18 -30.53 29.18 -49.76 0 0 -5.68 61.88 -52.61 37.04 0 62.94 53.28zm-45.65 429.37l-71.69 0 0 -52.83 71.69 0 0 52.83zm175.33 -191.11l0 115.76 -63.98 0 0 -319.22 122.05 0c36.74,0 65.55,9.35 86.65,28.06 21.03,18.7 31.58,43.32 31.58,73.93 0,30.53 -10.55,55.07 -31.58,73.63 -21.1,18.56 -49.91,27.84 -86.65,27.84l-58.07 0zm0 -49.31l58.07 0c17.88,0 31.35,-4.87 40.55,-14.6 9.21,-9.72 13.85,-22.07 13.85,-37.11 0,-15.42 -4.57,-28.06 -13.7,-38.09 -9.13,-10.03 -22.67,-14.97 -40.7,-14.97l-58.07 0 0 104.77z"/>
   </g>
   <polygon class="fil2" points="-0.28,2000.99 4499.72,2000.99 4499.72,3500.99 -0.28,3500.99 "/>
   <polygon class="fil2" points="-0.28,1 4499.72,1 4499.72,1500.99 -0.28,1500.99 "/>
   <path class="fil1" d="M795.26 588.26l0 109.15 -60.32 0 0 -300.99 115.07 0c34.65,0 61.81,8.82 81.71,26.46 19.82,17.64 29.77,40.85 29.77,69.71 0,28.79 -9.95,51.93 -29.77,69.42 -19.9,17.5 -47.06,26.25 -81.71,26.25l-54.75 0zm0 -46.49l54.75 0c16.87,0 29.57,-4.59 38.24,-13.76 8.68,-9.17 13.06,-20.82 13.06,-35 0,-14.53 -4.31,-26.46 -12.91,-35.91 -8.61,-9.45 -21.38,-14.11 -38.39,-14.11l-54.75 0 0 98.78zm452.68 155.64l-60.39 0 0 -125.02 -122.56 0 0 125.02 -60.32 0 0 -300.99 60.32 0 0 129.4 122.56 0 0 -129.4 60.39 0 0 300.99zm298.87 -123.4c0,37.04 -11.64,67.59 -34.92,91.65 -23.28,24.06 -53.62,36.05 -90.95,36.12 -37.25,-0.07 -67.45,-12.06 -90.59,-36.19 -23.14,-24.13 -34.71,-54.68 -34.71,-91.58l0 -54.19c0,-36.76 11.57,-67.24 34.64,-91.44 23.07,-24.2 53.13,-36.26 90.24,-36.26 37.32,0 67.73,12.06 91.16,36.26 23.42,24.2 35.13,54.68 35.13,91.44l0 54.19zm-60.18 -54.54c0,-23.49 -5.86,-42.69 -17.57,-57.71 -11.71,-15.03 -27.87,-22.51 -48.54,-22.51 -20.39,0 -36.27,7.48 -47.7,22.51 -11.35,15.02 -17,34.22 -17,57.71l0 54.54c0,23.85 5.72,43.25 17.15,58.28 11.43,15.03 27.44,22.5 47.97,22.5 20.68,0 36.76,-7.47 48.33,-22.5 11.57,-15.03 17.36,-34.43 17.36,-58.28l0 -54.54zm-36.34 -157.06l-51.85 0 -56.24 -53.76 0.43 -1.2 67.17 0 40.49 54.96zm387.56 335l-60.39 0 -121.29 -202.99 -1.27 0.21 0 202.78 -60.32 0 0 -300.99 60.32 0 121.36 202.78 1.2 -0.21 0 -202.57 60.39 0 0 300.99zm286.03 -41.13c-9.38,12.27 -23.35,22.93 -41.98,31.96 -18.55,9.03 -42.54,13.47 -71.89,13.54 -36.41,-0.07 -66.18,-11.5 -89.33,-34.36 -23.14,-22.86 -34.71,-52.56 -34.71,-89.11l0 -62.79c0,-36.41 11.22,-66.04 33.73,-88.97 22.43,-23 51.29,-34.43 86.57,-34.43 36.83,0 64.98,8.68 84.52,26.1 19.62,17.5 29.07,40.71 28.37,69.78l-0.43 1.27 -56.87 0c0,-16.01 -4.58,-28.43 -13.82,-37.32 -9.25,-8.89 -22.65,-13.34 -40.29,-13.34 -18.49,0 -33.37,7.13 -44.66,21.38 -11.29,14.25 -16.94,32.67 -16.94,55.11l0 63.21c0,22.79 5.79,41.28 17.36,55.67 11.57,14.32 27.09,21.45 46.5,21.45 14.32,0 25.68,-1.41 34,-4.3 8.33,-2.9 14.75,-6.57 19.34,-11.01l0 -58.28 -57.93 0 0 -41.7 118.46 0 0 116.14zm156.71 41.13l0 -134.76 -28.15 0 0 -37.39 28.15 0 0 -128.84 104.98 0c36.76,0 67.1,11.79 90.95,35.28 23.85,23.49 35.77,53.62 35.77,90.45l0 49.81c0,36.9 -11.92,67.03 -35.77,90.38 -23.85,23.36 -54.19,35.07 -90.95,35.07l-104.98 0zm110.56 -134.76l-50.24 0 0 88.48 44.66 0c19.83,0 35.85,-7.41 47.98,-22.23 12.07,-14.82 18.13,-33.79 18.13,-56.94l0 -50.23c0,-23 -6.06,-41.91 -18.13,-56.66 -12.13,-14.74 -28.15,-22.08 -47.98,-22.08l-44.66 0 0 82.27 50.24 0 0 37.39zm322.01 69.85l-97.58 0 -20.24 64.91 -63.01 0 101.46 -300.99 61.8 0 101.11 300.99 -63.08 0 -20.46 -64.91zm-82.69 -47.34l68.02 0 -33.23 -106.05 -1.27 0 -33.52 106.05zm119.17 -214.7l-0.35 1.27 -54.19 0 -31.4 -29.56 -31.46 29.56 -54.33 0 -0.43 -1.27 61.39 -52.28 49.6 0 61.17 52.28zm-153.53 -34.29l-42.19 0 -44.03 -56.02 55.39 0 30.83 56.02zm464.53 60.25l0 196.99c0,33.94 -11.21,60.47 -33.65,79.59 -22.44,19.19 -51.58,28.71 -87.42,28.78 -35.7,-0.07 -64.7,-9.59 -86.92,-28.78 -22.3,-19.12 -33.37,-45.65 -33.37,-79.59l0 -196.99 60.53 0 0 196.99c0,20.18 5.36,35.49 16.09,46.14 10.79,10.59 25.33,15.88 43.67,15.88 18.56,0 33.3,-5.29 44.24,-15.88 10.87,-10.65 16.3,-25.96 16.3,-46.14l0 -196.99 60.53 0zm367.53 46.57l-86.01 0 0 254.42 -60.32 0 0 -254.42 -84.74 0 0 -46.57 231.07 0 0 46.57zm271.56 -46.57l0 37.47 1.27 0.21c11.43,-2.82 19.62,-9.95 24.63,-21.52 4.94,-11.57 7.41,-27.38 7.41,-47.34l44.45 0c0,31.82 -6.28,56.93 -18.91,75.21 -12.63,18.34 -32.25,29.42 -58.85,33.3l0 119.66c0,33.94 -11.21,60.47 -33.65,79.59 -22.44,19.19 -51.58,28.71 -87.42,28.78 -35.7,-0.07 -64.7,-9.59 -86.92,-28.78 -22.3,-19.12 -33.37,-45.65 -33.37,-79.59l0 -196.99 60.53 0 0 196.99c0,20.18 5.36,35.49 16.09,46.14 10.79,10.59 25.33,15.88 43.67,15.88 18.56,0 33.3,-5.29 44.24,-15.88 10.87,-10.65 16.3,-25.96 16.3,-46.14l0 -196.99 60.53 0zm-2441.63 683.39l-22.16 0 0 125.66 -60.32 0 0 -300.99 60.32 0 0 123.05 16.94 0 82.47 -123.05 74.65 0 -104.21 139.98 112.26 161.01 -76.91 0 -83.04 -125.66zm251.74 125.66l-60.4 0 0 -300.99 60.4 0 0 300.99zm303.03 0l-60.39 0 -121.29 -202.99 -1.27 0.21 0 202.78 -60.32 0 0 -300.99 60.32 0 121.36 202.78 1.2 -0.21 0 -202.57 60.39 0 0 300.99zm298.66 0l-60.39 0 0 -125.02 -122.56 0 0 125.02 -60.32 0 0 -300.99 60.32 0 0 129.4 122.56 0 0 -129.4 60.39 0 0 300.99zm160.8 0l0 -300.99 104.98 0c36.76,0 67.1,11.79 90.95,35.28 23.85,23.49 35.77,53.62 35.77,90.45l0 49.81c0,36.9 -11.92,67.03 -35.77,90.38 -23.85,23.36 -54.19,35.07 -90.95,35.07l-104.98 0zm60.32 -254.42l0 208.14 44.66 0c19.83,0 35.85,-7.41 47.98,-22.23 12.07,-14.82 18.13,-33.79 18.13,-56.94l0 -50.23c0,-23 -6.06,-41.91 -18.13,-56.66 -12.13,-14.74 -28.15,-22.08 -47.98,-22.08l-44.66 0zm463.26 131.02c0,37.04 -11.64,67.59 -34.92,91.65 -23.28,24.06 -53.62,36.05 -90.95,36.12 -37.25,-0.07 -67.45,-12.06 -90.59,-36.19 -23.14,-24.13 -34.71,-54.68 -34.71,-91.58l0 -54.19c0,-36.76 11.57,-67.24 34.64,-91.44 23.07,-24.2 53.13,-36.26 90.24,-36.26 37.32,0 67.73,12.06 91.16,36.26 23.42,24.2 35.13,54.68 35.13,91.44l0 54.19zm-60.18 -54.54c0,-23.49 -5.86,-42.69 -17.57,-57.71 -11.71,-15.03 -27.87,-22.51 -48.54,-22.51 -20.39,0 -36.27,7.48 -47.7,22.51 -11.35,15.02 -17,34.22 -17,57.71l0 54.54c0,23.85 5.72,43.25 17.15,58.28 11.43,15.03 27.44,22.5 47.97,22.5 20.68,0 36.76,-7.47 48.33,-22.5 11.57,-15.03 17.36,-34.43 17.36,-58.28l0 -54.54zm260.42 113.03l-97.58 0 -20.24 64.91 -63.01 0 101.46 -300.99 61.8 0 101.11 300.99 -63.08 0 -20.46 -64.91zm-82.69 -47.34l68.02 0 -33.23 -106.05 -1.27 0 -33.52 106.05zm438.43 112.25l-60.39 0 -121.29 -202.99 -1.27 0.21 0 202.78 -60.32 0 0 -300.99 60.32 0 121.36 202.78 1.2 -0.21 0 -202.57 60.39 0 0 300.99zm298.66 0l-60.39 0 0 -125.02 -122.56 0 0 125.02 -60.32 0 0 -300.99 60.32 0 0 129.4 122.56 0 0 -129.4 60.39 0 0 300.99zm-2820.3 -161.43c-9.1,-12.42 -15.88,-23.78 -20.32,-34.01 -4.38,-10.3 -6.56,-20.67 -6.56,-31.32 0,-25.05 7.26,-44.45 21.87,-58.07 14.6,-13.62 34.64,-20.46 60.18,-20.46 21.87,0 39.73,6.77 53.41,20.32 13.69,13.62 20.61,30.05 20.61,49.32 0,14.32 -2.97,26.74 -8.82,37.18 -5.86,10.51 -14.47,20.25 -25.97,29.21l-21.02 14.82 55.81 65.12c4.93,-8.12 8.81,-17.01 11.57,-26.67 2.75,-9.6 4.09,-19.83 4.09,-30.55l48.19 0c0,19.54 -2.47,37.46 -7.34,53.76 -4.87,16.23 -12.49,30.62 -22.86,43.18l41.56 48.54 -0.43 1.06 -66.95 0 -15.95 -18.41c-11.71,7.62 -23.78,13.26 -36.12,17.07 -12.42,3.81 -25.76,5.64 -39.94,5.71 -30.05,-0.07 -53.9,-7.9 -71.68,-23.7 -17.78,-15.81 -26.67,-36.34 -26.67,-61.67 0,-16.72 4.37,-30.9 13.12,-42.68 8.75,-11.79 22.16,-24.41 40.22,-37.75zm48.12 119.45c7.34,0 14.6,-0.92 21.94,-2.75 7.27,-1.91 14.32,-4.66 21.1,-8.4l-61.03 -70.69 -1.84 1.48c-8.11,6.56 -13.69,13.05 -16.72,19.4 -3.03,6.35 -4.59,12.63 -4.59,18.84 0,12.2 3.81,22.29 11.36,30.27 7.62,7.9 17.5,11.85 29.78,11.85zm-21.1 -185.42c0,5.79 1.41,11.71 4.16,17.78 2.76,6.07 6.99,12.7 12.63,19.83l15.67 -10.09c7.76,-4.94 12.91,-10.09 15.66,-15.31 2.68,-5.22 4.02,-10.94 4.02,-17.15 0,-7.05 -2.33,-13.19 -6.84,-18.48 -4.52,-5.29 -10.8,-7.98 -18.84,-7.98 -8.26,0 -14.75,3.04 -19.4,9.11 -4.66,6.06 -7.06,13.47 -7.06,22.29z"/>
   <path class="fil1" d="M308.36 2544.98l0 109.15 -60.32 0 0 -300.99 115.07 0c34.65,0 61.81,8.82 81.71,26.46 19.82,17.64 29.77,40.85 29.77,69.71 0,28.79 -9.95,51.93 -29.77,69.42 -19.9,17.5 -47.06,26.25 -81.71,26.25l-54.75 0zm0 -46.49l54.75 0c16.87,0 29.57,-4.59 38.24,-13.76 8.68,-9.17 13.06,-20.82 13.06,-35 0,-14.53 -4.31,-26.46 -12.91,-35.91 -8.61,-9.45 -21.38,-14.11 -38.39,-14.11l-54.75 0 0 98.78zm452.68 155.64l-60.39 0 0 -125.02 -122.56 0 0 125.02 -60.32 0 0 -300.99 60.32 0 0 129.4 122.56 0 0 -129.4 60.39 0 0 300.99zm298.87 -123.4c0,37.04 -11.64,67.59 -34.92,91.65 -23.28,24.06 -53.62,36.05 -90.95,36.12 -37.25,-0.07 -67.45,-12.06 -90.59,-36.19 -23.14,-24.13 -34.71,-54.68 -34.71,-91.58l0 -54.19c0,-36.76 11.57,-67.24 34.64,-91.44 23.07,-24.2 53.13,-36.26 90.24,-36.26 37.32,0 67.73,12.06 91.16,36.26 23.42,24.2 35.13,54.68 35.13,91.44l0 54.19zm-60.18 -54.54c0,-23.49 -5.86,-42.69 -17.57,-57.71 -11.71,-15.03 -27.87,-22.51 -48.54,-22.51 -20.39,0 -36.27,7.48 -47.7,22.51 -11.35,15.02 -17,34.22 -17,57.71l0 54.54c0,23.85 5.72,43.25 17.15,58.28 11.43,15.03 27.44,22.5 47.97,22.5 20.68,0 36.76,-7.47 48.33,-22.5 11.57,-15.03 17.36,-34.43 17.36,-58.28l0 -54.54zm-36.34 -157.06l-51.85 0 -56.24 -53.76 0.43 -1.2 67.17 0 40.49 54.96zm387.56 335l-60.39 0 -121.29 -202.99 -1.27 0.21 0 202.78 -60.32 0 0 -300.99 60.32 0 121.36 202.78 1.2 -0.21 0 -202.57 60.39 0 0 300.99zm286.03 -41.13c-9.38,12.27 -23.35,22.93 -41.98,31.96 -18.55,9.03 -42.54,13.47 -71.89,13.54 -36.41,-0.07 -66.18,-11.5 -89.33,-34.36 -23.14,-22.86 -34.71,-52.56 -34.71,-89.11l0 -62.79c0,-36.41 11.22,-66.04 33.73,-88.97 22.43,-23 51.29,-34.43 86.57,-34.43 36.83,0 64.98,8.68 84.52,26.1 19.62,17.5 29.07,40.71 28.37,69.78l-0.43 1.27 -56.87 0c0,-16.01 -4.58,-28.43 -13.82,-37.32 -9.25,-8.89 -22.65,-13.34 -40.29,-13.34 -18.49,0 -33.37,7.13 -44.66,21.38 -11.29,14.25 -16.94,32.67 -16.94,55.11l0 63.21c0,22.79 5.79,41.28 17.36,55.67 11.57,14.32 27.09,21.45 46.5,21.45 14.32,0 25.68,-1.41 34,-4.3 8.33,-2.9 14.75,-6.57 19.34,-11.01l0 -58.28 -57.93 0 0 -41.7 118.46 0 0 116.14zm-688.33 387.76c-9.1,-12.42 -15.88,-23.78 -20.32,-34.01 -4.38,-10.3 -6.56,-20.67 -6.56,-31.32 0,-25.05 7.26,-44.45 21.87,-58.07 14.6,-13.62 34.64,-20.46 60.18,-20.46 21.87,0 39.73,6.77 53.41,20.32 13.69,13.62 20.61,30.05 20.61,49.32 0,14.32 -2.97,26.74 -8.82,37.18 -5.86,10.51 -14.47,20.25 -25.97,29.21l-21.02 14.82 55.81 65.12c4.93,-8.12 8.81,-17.01 11.57,-26.67 2.75,-9.6 4.09,-19.83 4.09,-30.55l48.19 0c0,19.54 -2.47,37.46 -7.34,53.76 -4.87,16.23 -12.49,30.62 -22.86,43.18l41.56 48.54 -0.43 1.06 -66.95 0 -15.95 -18.41c-11.71,7.62 -23.78,13.26 -36.12,17.07 -12.42,3.81 -25.76,5.64 -39.94,5.71 -30.05,-0.07 -53.9,-7.9 -71.68,-23.7 -17.78,-15.81 -26.67,-36.34 -26.67,-61.67 0,-16.72 4.37,-30.9 13.12,-42.68 8.75,-11.79 22.16,-24.41 40.22,-37.75zm48.12 119.45c7.34,0 14.6,-0.92 21.94,-2.75 7.27,-1.91 14.32,-4.66 21.1,-8.4l-61.03 -70.69 -1.84 1.48c-8.11,6.56 -13.69,13.05 -16.72,19.4 -3.03,6.35 -4.59,12.63 -4.59,18.84 0,12.2 3.81,22.29 11.36,30.27 7.62,7.9 17.5,11.85 29.78,11.85zm-21.1 -185.42c0,5.79 1.41,11.71 4.16,17.78 2.76,6.07 6.99,12.7 12.63,19.83l15.67 -10.09c7.76,-4.94 12.91,-10.09 15.66,-15.31 2.68,-5.22 4.02,-10.94 4.02,-17.15 0,-7.05 -2.33,-13.19 -6.84,-18.48 -4.52,-5.29 -10.8,-7.98 -18.84,-7.98 -8.26,0 -14.75,3.04 -19.4,9.11 -4.66,6.06 -7.06,13.47 -7.06,22.29zm1061.29 -280.66l-60.39 0 -121.29 -202.99 -1.27 0.21 0 202.78 -60.32 0 0 -300.99 60.32 0 121.36 202.78 1.2 -0.21 0 -202.57 60.39 0 0 300.99zm286.03 -41.13c-9.38,12.27 -23.35,22.93 -41.98,31.96 -18.55,9.03 -42.54,13.47 -71.89,13.54 -36.41,-0.07 -66.18,-11.5 -89.33,-34.36 -23.14,-22.86 -34.71,-52.56 -34.71,-89.11l0 -62.79c0,-36.41 11.22,-66.04 33.73,-88.97 22.43,-23 51.29,-34.43 86.57,-34.43 36.83,0 64.98,8.68 84.52,26.1 19.62,17.5 29.07,40.71 28.37,69.78l-0.43 1.27 -56.87 0c0,-16.01 -4.58,-28.43 -13.82,-37.32 -9.25,-8.89 -22.65,-13.34 -40.29,-13.34 -18.49,0 -33.37,7.13 -44.66,21.38 -11.29,14.25 -16.94,32.67 -16.94,55.11l0 63.21c0,22.79 5.79,41.28 17.36,55.67 11.57,14.32 27.09,21.45 46.5,21.45 14.32,0 25.68,-1.41 34,-4.3 8.33,-2.9 14.75,-6.57 19.34,-11.01l0 -58.28 -57.93 0 0 -41.7 118.46 0 0 116.14zm294.57 41.13l-60.39 0 0 -125.02 -122.56 0 0 125.02 -60.32 0 0 -300.99 60.32 0 0 129.4 122.56 0 0 -129.4 60.39 0 0 300.99zm119.88 0l-60.4 0 0 -300.99 60.4 0 0 300.99zm231.7 -132.29l-111.62 0 0 86.01 132.72 0 0 46.28 -193.04 0 0 -300.99 192.61 0 0 46.57 -132.29 0 0 75.63 111.62 0 0 46.5zm1.55 -201.51l0 4.73 -47.97 0 -28.93 -27.51 -28.79 27.51 -46.92 0 0 -5.36 58.35 -49.6 34.93 0 59.33 50.23zm305.22 333.8l-60.39 0 -121.29 -202.99 -1.27 0.21 0 202.78 -60.32 0 0 -300.99 60.32 0 121.36 202.78 1.2 -0.21 0 -202.57 60.39 0 0 300.99zm386.5 -99.62l0.43 1.2c0.49,32.17 -9.25,57.29 -29.35,75.49 -20.18,18.2 -47.91,27.23 -83.33,27.3 -36.12,-0.07 -65.26,-11.64 -87.42,-34.85 -22.22,-23.21 -33.3,-53.27 -33.3,-90.03l0 -59.76c0,-36.62 10.8,-66.67 32.46,-90.03 21.66,-23.35 50.02,-34.99 85.16,-34.99 36.68,0 65.33,8.96 86,26.88 20.68,17.92 30.69,43.11 30.2,75.63l-0.42 1.27 -58.7 0c0,-19.33 -4.66,-33.72 -13.97,-43.1 -9.32,-9.46 -23.71,-14.19 -43.11,-14.19 -18.07,0 -32.18,7.27 -42.27,21.81 -10.16,14.53 -15.17,33.3 -15.17,56.3l0 60.18c0,23.14 5.3,42.05 16.02,56.66 10.65,14.6 25.47,21.87 44.52,21.87 18.06,0 31.54,-4.73 40.43,-14.11 8.89,-9.46 13.33,-23.99 13.33,-43.53l58.49 0zm282.08 -201.37l0 37.47 1.27 0.21c11.43,-2.82 19.62,-9.95 24.63,-21.52 4.94,-11.57 7.41,-27.38 7.41,-47.34l44.45 0c0,31.82 -6.28,56.93 -18.91,75.21 -12.63,18.34 -32.25,29.42 -58.85,33.3l0 119.66c0,33.94 -11.21,60.47 -33.65,79.59 -22.44,19.19 -51.58,28.71 -87.42,28.78 -35.7,-0.07 -64.7,-9.59 -86.92,-28.78 -22.3,-19.12 -33.37,-45.65 -33.37,-79.59l0 -196.99 60.53 0 0 196.99c0,20.18 5.36,35.49 16.09,46.14 10.79,10.59 25.33,15.88 43.67,15.88 18.56,0 33.3,-5.29 44.24,-15.88 10.87,-10.65 16.3,-25.96 16.3,-46.14l0 -196.99 60.53 0zm-106.04 -84.73l67.17 0 0.42 1.2 -57.29 53.76 -51.43 0 41.13 -54.96zm407.8 84.73l0 196.99c0,33.94 -11.21,60.47 -33.65,79.59 -22.44,19.19 -51.58,28.71 -87.42,28.78 -35.7,-0.07 -64.7,-9.59 -86.92,-28.78 -22.3,-19.12 -33.37,-45.65 -33.37,-79.59l0 -196.99 60.53 0 0 196.99c0,20.18 5.36,35.49 16.09,46.14 10.79,10.59 25.33,15.88 43.67,15.88 18.56,0 33.3,-5.29 44.24,-15.88 10.87,-10.65 16.3,-25.96 16.3,-46.14l0 -196.99 60.53 0zm-2891.91 699.9l0 109.15 -60.32 0 0 -300.99 115.07 0c34.65,0 61.81,8.82 81.71,26.46 19.82,17.64 29.77,40.85 29.77,69.71 0,28.79 -9.95,51.93 -29.77,69.42 -19.9,17.5 -47.06,26.25 -81.71,26.25l-54.75 0zm0 -46.49l54.75 0c16.87,0 29.57,-4.59 38.24,-13.76 8.68,-9.17 13.06,-20.82 13.06,-35 0,-14.53 -4.31,-26.46 -12.91,-35.91 -8.61,-9.45 -21.38,-14.11 -38.39,-14.11l-54.75 0 0 98.78zm452.68 155.64l-60.39 0 0 -125.02 -122.56 0 0 125.02 -60.32 0 0 -300.99 60.32 0 0 129.4 122.56 0 0 -129.4 60.39 0 0 300.99zm215.97 -64.91l-97.58 0 -20.24 64.91 -63.01 0 101.46 -300.99 61.8 0 101.11 300.99 -63.08 0 -20.46 -64.91zm-82.69 -47.34l68.02 0 -33.23 -106.05 -1.27 0 -33.52 106.05zm45.16 -273.47l67.16 0 0.43 1.2 -57.29 53.76 -51.44 0 41.14 -54.96zm341.35 131.3l-86.01 0 0 254.42 -60.32 0 0 -254.42 -84.74 0 0 -46.57 231.07 0 0 46.57zm348.26 0l-86.01 0 0 254.42 -60.32 0 0 -254.42 -84.74 0 0 -46.57 231.07 0 0 46.57zm93.41 134.12l0 120.3 -60.32 0 0 -300.99 104.14 0c34.36,0 61.17,7.83 80.5,23.5 19.4,15.66 29.07,37.46 29.07,65.4 0,15.45 -4.09,28.79 -12.28,40.01 -8.25,11.21 -20.18,20.32 -35.91,27.16 17.78,5.22 30.55,14.04 38.38,26.25 7.76,12.27 11.64,27.44 11.64,45.5l0 22.09c0,8.39 1.13,17.21 3.46,26.39 2.26,9.17 6.14,15.94 11.64,20.32l0 4.37 -62.23 0c-5.5,-4.44 -9.03,-11.71 -10.65,-21.94 -1.55,-10.16 -2.33,-20.04 -2.33,-29.49l0 -21.31c0,-15.03 -4.09,-26.74 -12.35,-35.07 -8.18,-8.32 -19.75,-12.49 -34.78,-12.49l-47.98 0zm0 -46.49l42.76 0c17,0 29.56,-3.6 37.89,-10.8 8.25,-7.12 12.34,-17.78 12.34,-31.82 0,-13.76 -4.16,-24.69 -12.48,-32.88 -8.33,-8.11 -20.54,-12.13 -36.69,-12.13l-43.82 0 0 87.63zm273.9 166.79l-60.4 0 0 -300.99 60.4 0 0 300.99zm231.7 -132.29l-111.62 0 0 86.01 132.72 0 0 46.28 -193.04 0 0 -300.99 192.61 0 0 46.57 -132.29 0 0 75.63 111.62 0 0 46.5zm-50.59 -241.02l-51.71 0 -60.54 52.28 0.63 1.27 52.71 0 32.88 -31.6 33.02 31.6 52.77 0 0.57 -1.27 -60.33 -52.28zm45.02 25.47l-2.68 -23.98c8.53,-0.43 14.67,-1.49 18.34,-3.11 3.6,-1.69 5.15,-4.23 4.66,-7.69l0 -1.2c0.49,-4.16 -1.34,-7.13 -5.65,-9.03 -4.23,-1.83 -10.3,-2.75 -18.13,-2.75l1.41 -22.93c21.52,0 37.96,2.96 49.32,8.96 11.36,6 17.07,14.32 17.07,24.9 0,7.55 -2.54,13.48 -7.55,17.71 -5.08,4.17 -11.21,6.78 -18.55,7.69l0 11.43 -38.24 0zm312.34 347.84l-60.39 0 -121.29 -202.99 -1.27 0.21 0 202.78 -60.32 0 0 -300.99 60.32 0 121.36 202.78 1.2 -0.21 0 -202.57 60.39 0 0 300.99z"/>
   <polygon class="fil2" points="-0.28,8000.99 4499.72,8000.99 4499.72,9500.98 -0.28,9500.98 "/>
   <polygon class="fil2" points="-0.28,6000.99 4499.72,6000.99 4499.72,7500.99 -0.28,7500.99 "/>
   <path class="fil1" d="M560.69 8580.57l0 109.15 -60.32 0 0 -300.99 115.07 0c34.65,0 61.81,8.82 81.71,26.46 19.82,17.64 29.77,40.85 29.77,69.71 0,28.79 -9.95,51.93 -29.77,69.42 -19.9,17.5 -47.06,26.25 -81.71,26.25l-54.75 0zm0 -46.49l54.75 0c16.87,0 29.57,-4.59 38.24,-13.76 8.68,-9.17 13.06,-20.82 13.06,-35 0,-14.53 -4.31,-26.46 -12.91,-35.91 -8.61,-9.45 -21.38,-14.11 -38.39,-14.11l-54.75 0 0 98.78zm452.68 155.64l-60.39 0 0 -125.02 -122.56 0 0 125.02 -60.32 0 0 -300.99 60.32 0 0 129.4 122.56 0 0 -129.4 60.39 0 0 300.99zm298.87 -123.4c0,37.04 -11.64,67.59 -34.92,91.65 -23.28,24.06 -53.62,36.05 -90.95,36.12 -37.25,-0.07 -67.45,-12.06 -90.59,-36.19 -23.14,-24.13 -34.71,-54.68 -34.71,-91.58l0 -54.19c0,-36.76 11.57,-67.24 34.64,-91.44 23.07,-24.2 53.13,-36.26 90.24,-36.26 37.32,0 67.73,12.06 91.16,36.26 23.42,24.2 35.13,54.68 35.13,91.44l0 54.19zm-60.18 -54.54c0,-23.49 -5.86,-42.69 -17.57,-57.71 -11.71,-15.03 -27.87,-22.51 -48.54,-22.51 -20.39,0 -36.27,7.48 -47.7,22.51 -11.35,15.02 -17,34.22 -17,57.71l0 54.54c0,23.85 5.72,43.25 17.15,58.28 11.43,15.03 27.44,22.5 47.97,22.5 20.68,0 36.76,-7.47 48.33,-22.5 11.57,-15.03 17.36,-34.43 17.36,-58.28l0 -54.54zm-36.34 -157.06l-51.85 0 -56.24 -53.76 0.43 -1.2 67.17 0 40.49 54.96zm387.56 335l-60.39 0 -121.29 -202.99 -1.27 0.21 0 202.78 -60.32 0 0 -300.99 60.32 0 121.36 202.78 1.2 -0.21 0 -202.57 60.39 0 0 300.99zm286.03 -41.13c-9.38,12.27 -23.35,22.93 -41.98,31.96 -18.55,9.03 -42.54,13.47 -71.89,13.54 -36.41,-0.07 -66.18,-11.5 -89.33,-34.36 -23.14,-22.86 -34.71,-52.56 -34.71,-89.11l0 -62.79c0,-36.41 11.22,-66.04 33.73,-88.97 22.43,-23 51.29,-34.43 86.57,-34.43 36.83,0 64.98,8.68 84.52,26.1 19.62,17.5 29.07,40.71 28.37,69.78l-0.43 1.27 -56.87 0c0,-16.01 -4.58,-28.43 -13.82,-37.32 -9.25,-8.89 -22.65,-13.34 -40.29,-13.34 -18.49,0 -33.37,7.13 -44.66,21.38 -11.29,14.25 -16.94,32.67 -16.94,55.11l0 63.21c0,22.79 5.79,41.28 17.36,55.67 11.57,14.32 27.09,21.45 46.5,21.45 14.32,0 25.68,-1.41 34,-4.3 8.33,-2.9 14.75,-6.57 19.34,-11.01l0 -58.28 -57.93 0 0 -41.7 118.46 0 0 116.14zm-616.5 387.76c-9.1,-12.42 -15.88,-23.78 -20.32,-34.01 -4.38,-10.3 -6.56,-20.67 -6.56,-31.32 0,-25.05 7.26,-44.45 21.87,-58.07 14.6,-13.62 34.64,-20.46 60.18,-20.46 21.87,0 39.73,6.77 53.41,20.32 13.69,13.62 20.61,30.05 20.61,49.32 0,14.32 -2.97,26.74 -8.82,37.18 -5.86,10.51 -14.47,20.25 -25.97,29.21l-21.02 14.82 55.81 65.12c4.93,-8.12 8.81,-17.01 11.57,-26.67 2.75,-9.6 4.09,-19.83 4.09,-30.55l48.19 0c0,19.54 -2.47,37.46 -7.34,53.76 -4.87,16.23 -12.49,30.62 -22.86,43.18l41.56 48.54 -0.43 1.06 -66.95 0 -15.95 -18.41c-11.71,7.62 -23.78,13.26 -36.12,17.07 -12.42,3.81 -25.76,5.64 -39.94,5.71 -30.05,-0.07 -53.9,-7.9 -71.68,-23.7 -17.78,-15.81 -26.67,-36.34 -26.67,-61.67 0,-16.72 4.37,-30.9 13.12,-42.68 8.75,-11.79 22.16,-24.41 40.22,-37.75zm48.12 119.45c7.34,0 14.6,-0.92 21.94,-2.75 7.27,-1.91 14.32,-4.66 21.1,-8.4l-61.03 -70.69 -1.84 1.48c-8.11,6.56 -13.69,13.05 -16.72,19.4 -3.03,6.35 -4.59,12.63 -4.59,18.84 0,12.2 3.81,22.29 11.36,30.27 7.62,7.9 17.5,11.85 29.78,11.85zm-21.1 -185.42c0,5.79 1.41,11.71 4.16,17.78 2.76,6.07 6.99,12.7 12.63,19.83l15.67 -10.09c7.76,-4.94 12.91,-10.09 15.66,-15.31 2.68,-5.22 4.02,-10.94 4.02,-17.15 0,-7.05 -2.33,-13.19 -6.84,-18.48 -4.52,-5.29 -10.8,-7.98 -18.84,-7.98 -8.26,0 -14.75,3.04 -19.4,9.11 -4.66,6.06 -7.06,13.47 -7.06,22.29zm955.95 -535.08l-86.01 0 0 254.42 -60.32 0 0 -254.42 -84.74 0 0 -46.57 231.07 0 0 46.57zm167.42 189.51l-97.58 0 -20.24 64.91 -63.01 0 101.46 -300.99 61.8 0 101.11 300.99 -63.08 0 -20.46 -64.91zm-82.69 -47.34l68.02 0 -33.23 -106.05 -1.27 0 -33.52 106.05zm61.81 -218.51l-51.86 0 -56.23 -53.76 0.42 -1.2 67.17 0 40.5 54.96zm197.84 330.76l-60.4 0 0 -300.99 60.4 0 0 300.99zm390.87 -99.62l0.43 1.2c0.49,32.17 -9.25,57.29 -29.35,75.49 -20.18,18.2 -47.91,27.23 -83.33,27.3 -36.12,-0.07 -65.26,-11.64 -87.42,-34.85 -22.22,-23.21 -33.3,-53.27 -33.3,-90.03l0 -59.76c0,-36.62 10.8,-66.67 32.46,-90.03 21.66,-23.35 50.02,-34.99 85.16,-34.99 36.68,0 65.33,8.96 86,26.88 20.68,17.92 30.69,43.11 30.2,75.63l-0.42 1.27 -58.7 0c0,-19.33 -4.66,-33.72 -13.97,-43.1 -9.32,-9.46 -23.71,-14.19 -43.11,-14.19 -18.07,0 -32.18,7.27 -42.27,21.81 -10.16,14.53 -15.17,33.3 -15.17,56.3l0 60.18c0,23.14 5.3,42.05 16.02,56.66 10.65,14.6 25.47,21.87 44.52,21.87 18.06,0 31.54,-4.73 40.43,-14.11 8.89,-9.46 13.33,-23.99 13.33,-43.53l58.49 0zm286.88 99.62l-60.39 0 0 -125.02 -122.56 0 0 125.02 -60.32 0 0 -300.99 60.32 0 0 129.4 122.56 0 0 -129.4 60.39 0 0 300.99zm119.88 0l-60.4 0 0 -300.99 60.4 0 0 300.99zm-18.42 -385.72l67.17 0 0.42 1.2 -57.29 53.76 -51.43 0 41.13 -54.96zm321.45 385.72l-60.39 0 -121.29 -202.99 -1.27 0.21 0 202.78 -60.32 0 0 -300.99 60.32 0 121.36 202.78 1.2 -0.21 0 -202.57 60.39 0 0 300.99zm298.66 0l-60.39 0 0 -125.02 -122.56 0 0 125.02 -60.32 0 0 -300.99 60.32 0 0 129.4 122.56 0 0 -129.4 60.39 0 0 300.99zm-2298.82 382.4l-22.16 0 0 125.66 -60.32 0 0 -300.99 60.32 0 0 123.05 16.94 0 82.47 -123.05 74.65 0 -104.21 139.98 112.26 161.01 -76.91 0 -83.04 -125.66zm359.19 -6.63l-111.62 0 0 86.01 132.72 0 0 46.28 -193.04 0 0 -300.99 192.61 0 0 46.57 -132.29 0 0 75.63 111.62 0 0 46.5zm-99.76 -248.64l49.6 0 61.17 52.28 -0.43 1.27 -54.11 0 -31.68 -29.56 -31.19 29.56 -54.32 0 -0.43 -1.27 61.39 -52.28zm122.97 -38.03l55.81 0 -44.24 56.03 -42.19 0 30.62 -56.03zm355.46 164.54l-86.01 0 0 254.42 -60.32 0 0 -254.42 -84.74 0 0 -46.57 231.07 0 0 46.57zm270.78 131.02c0,37.04 -11.64,67.59 -34.92,91.65 -23.28,24.06 -53.62,36.05 -90.95,36.12 -37.25,-0.07 -67.45,-12.06 -90.59,-36.19 -23.14,-24.13 -34.71,-54.68 -34.71,-91.58l0 -54.19c0,-36.76 11.57,-67.24 34.64,-91.44 23.07,-24.2 53.13,-36.26 90.24,-36.26 37.32,0 67.73,12.06 91.16,36.26 23.42,24.2 35.13,54.68 35.13,91.44l0 54.19zm-60.18 -54.54c0,-23.49 -5.86,-42.69 -17.57,-57.71 -11.71,-15.03 -27.87,-22.51 -48.54,-22.51 -20.39,0 -36.27,7.48 -47.7,22.51 -11.35,15.02 -17,34.22 -17,57.71l0 54.54c0,23.85 5.72,43.25 17.15,58.28 11.43,15.03 27.44,22.5 47.97,22.5 20.68,0 36.76,-7.47 48.33,-22.5 11.57,-15.03 17.36,-34.43 17.36,-58.28l0 -54.54zm260.42 113.03l-97.58 0 -20.24 64.91 -63.01 0 101.46 -300.99 61.8 0 101.11 300.99 -63.08 0 -20.46 -64.91zm-82.69 -47.34l68.02 0 -33.23 -106.05 -1.27 0 -33.52 106.05zm45.16 -273.47l67.16 0 0.43 1.2 -57.29 53.76 -51.44 0 41.14 -54.96zm393.27 385.72l-60.39 0 -121.29 -202.99 -1.27 0.21 0 202.78 -60.32 0 0 -300.99 60.32 0 121.36 202.78 1.2 -0.21 0 -202.57 60.39 0 0 300.99z"/>
   <path class="fil1" d="M472.43 6783.7l0 109.15 -60.32 0 0 -300.99 115.07 0c34.65,0 61.81,8.82 81.71,26.46 19.82,17.64 29.77,40.85 29.77,69.71 0,28.79 -9.95,51.93 -29.77,69.42 -19.9,17.5 -47.06,26.25 -81.71,26.25l-54.75 0zm0 -46.49l54.75 0c16.87,0 29.57,-4.59 38.24,-13.76 8.68,-9.17 13.06,-20.82 13.06,-35 0,-14.53 -4.31,-26.46 -12.91,-35.91 -8.61,-9.45 -21.38,-14.11 -38.39,-14.11l-54.75 0 0 98.78zm452.68 155.64l-60.39 0 0 -125.02 -122.56 0 0 125.02 -60.32 0 0 -300.99 60.32 0 0 129.4 122.56 0 0 -129.4 60.39 0 0 300.99zm298.87 -123.4c0,37.04 -11.64,67.59 -34.92,91.65 -23.28,24.06 -53.62,36.05 -90.95,36.12 -37.25,-0.07 -67.45,-12.06 -90.59,-36.19 -23.14,-24.13 -34.71,-54.68 -34.71,-91.58l0 -54.19c0,-36.76 11.57,-67.24 34.64,-91.44 23.07,-24.2 53.13,-36.26 90.24,-36.26 37.32,0 67.73,12.06 91.16,36.26 23.42,24.2 35.13,54.68 35.13,91.44l0 54.19zm-60.18 -54.54c0,-23.49 -5.86,-42.69 -17.57,-57.71 -11.71,-15.03 -27.87,-22.51 -48.54,-22.51 -20.39,0 -36.27,7.48 -47.7,22.51 -11.35,15.02 -17,34.22 -17,57.71l0 54.54c0,23.85 5.72,43.25 17.15,58.28 11.43,15.03 27.44,22.5 47.97,22.5 20.68,0 36.76,-7.47 48.33,-22.5 11.57,-15.03 17.36,-34.43 17.36,-58.28l0 -54.54zm-36.34 -157.06l-51.85 0 -56.24 -53.76 0.43 -1.2 67.17 0 40.49 54.96zm387.56 335l-60.39 0 -121.29 -202.99 -1.27 0.21 0 202.78 -60.32 0 0 -300.99 60.32 0 121.36 202.78 1.2 -0.21 0 -202.57 60.39 0 0 300.99zm286.03 -41.13c-9.38,12.27 -23.35,22.93 -41.98,31.96 -18.55,9.03 -42.54,13.47 -71.89,13.54 -36.41,-0.07 -66.18,-11.5 -89.33,-34.36 -23.14,-22.86 -34.71,-52.56 -34.71,-89.11l0 -62.79c0,-36.41 11.22,-66.04 33.73,-88.97 22.43,-23 51.29,-34.43 86.57,-34.43 36.83,0 64.98,8.68 84.52,26.1 19.62,17.5 29.07,40.71 28.37,69.78l-0.43 1.27 -56.87 0c0,-16.01 -4.58,-28.43 -13.82,-37.32 -9.25,-8.89 -22.65,-13.34 -40.29,-13.34 -18.49,0 -33.37,7.13 -44.66,21.38 -11.29,14.25 -16.94,32.67 -16.94,55.11l0 63.21c0,22.79 5.79,41.28 17.36,55.67 11.57,14.32 27.09,21.45 46.5,21.45 14.32,0 25.68,-1.41 34,-4.3 8.33,-2.9 14.75,-6.57 19.34,-11.01l0 -58.28 -57.93 0 0 -41.7 118.46 0 0 116.14zm1429.38 41.13l-60.39 0 0 -125.02 -122.56 0 0 125.02 -60.32 0 0 -300.99 60.32 0 0 129.4 122.56 0 0 -129.4 60.39 0 0 300.99zm215.97 -64.91l-97.58 0 -20.24 64.91 -63.01 0 101.46 -300.99 61.8 0 101.11 300.99 -63.08 0 -20.46 -64.91zm-82.69 -47.34l68.02 0 -33.23 -106.05 -1.27 0 -33.52 106.05zm61.81 -218.51l-51.86 0 -56.23 -53.76 0.42 -1.2 67.17 0 40.5 54.96zm376.62 330.76l-60.39 0 -121.29 -202.99 -1.27 0.21 0 202.78 -60.32 0 0 -300.99 60.32 0 121.36 202.78 1.2 -0.21 0 -202.57 60.39 0 0 300.99zm286.03 -41.13c-9.38,12.27 -23.35,22.93 -41.98,31.96 -18.55,9.03 -42.54,13.47 -71.89,13.54 -36.41,-0.07 -66.18,-11.5 -89.33,-34.36 -23.14,-22.86 -34.71,-52.56 -34.71,-89.11l0 -62.79c0,-36.41 11.22,-66.04 33.73,-88.97 22.43,-23 51.29,-34.43 86.57,-34.43 36.83,0 64.98,8.68 84.52,26.1 19.62,17.5 29.07,40.71 28.37,69.78l-0.43 1.27 -56.87 0c0,-16.01 -4.58,-28.43 -13.82,-37.32 -9.25,-8.89 -22.65,-13.34 -40.29,-13.34 -18.49,0 -33.37,7.13 -44.66,21.38 -11.29,14.25 -16.94,32.67 -16.94,55.11l0 63.21c0,22.79 5.79,41.28 17.36,55.67 11.57,14.32 27.09,21.45 46.5,21.45 14.32,0 25.68,-1.41 34,-4.3 8.33,-2.9 14.75,-6.57 19.34,-11.01l0 -58.28 -57.93 0 0 -41.7 118.46 0 0 116.14zm-1974.77 -38.03l1.2 0 77.33 -221.83 78.74 0 0 300.99 -60.32 0 0 -205.46 -1.27 -0.21 -74.44 205.67 -40.92 0 -74.37 -206.09 -1.27 0.21 0 205.88 -60.32 0 0 -300.99 79.16 0 76.48 221.83zm451.2 -221.83l0 196.99c0,33.94 -11.21,60.47 -33.65,79.59 -22.44,19.19 -51.58,28.71 -87.42,28.78 -35.7,-0.07 -64.7,-9.59 -86.92,-28.78 -22.3,-19.12 -33.37,-45.65 -33.37,-79.59l0 -196.99 60.53 0 0 196.99c0,20.18 5.36,35.49 16.09,46.14 10.79,10.59 25.33,15.88 43.67,15.88 18.56,0 33.3,-5.29 44.24,-15.88 10.87,-10.65 16.3,-25.96 16.3,-46.14l0 -196.99 60.53 0zm204.68 236.08l-97.58 0 -20.24 64.91 -63.01 0 101.46 -300.99 61.8 0 101.11 300.99 -63.08 0 -20.46 -64.91zm-82.69 -47.34l68.02 0 -33.23 -106.05 -1.27 0 -33.52 106.05z"/>
   <polygon class="fil2" points="-0.28,10000.98 4499.72,10000.98 4499.72,11500.98 -0.28,11500.98 "/>
   <path class="fil1" d="M646.17 10792.3l0 109.15 -60.32 0 0 -300.99 115.07 0c34.65,0 61.81,8.82 81.71,26.46 19.82,17.64 29.77,40.85 29.77,69.71 0,28.79 -9.95,51.93 -29.77,69.42 -19.9,17.5 -47.06,26.25 -81.71,26.25l-54.75 0zm0 -46.49l54.75 0c16.87,0 29.57,-4.59 38.24,-13.76 8.68,-9.17 13.06,-20.82 13.06,-35 0,-14.53 -4.31,-26.46 -12.91,-35.91 -8.61,-9.45 -21.38,-14.11 -38.39,-14.11l-54.75 0 0 98.78zm452.68 155.64l-60.39 0 0 -125.02 -122.56 0 0 125.02 -60.32 0 0 -300.99 60.32 0 0 129.4 122.56 0 0 -129.4 60.39 0 0 300.99zm298.87 -123.4c0,37.04 -11.64,67.59 -34.92,91.65 -23.28,24.06 -53.62,36.05 -90.95,36.12 -37.25,-0.07 -67.45,-12.06 -90.59,-36.19 -23.14,-24.13 -34.71,-54.68 -34.71,-91.58l0 -54.19c0,-36.76 11.57,-67.24 34.64,-91.44 23.07,-24.2 53.13,-36.26 90.24,-36.26 37.32,0 67.73,12.06 91.16,36.26 23.42,24.2 35.13,54.68 35.13,91.44l0 54.19zm-60.18 -54.54c0,-23.49 -5.86,-42.69 -17.57,-57.71 -11.71,-15.03 -27.87,-22.51 -48.54,-22.51 -20.39,0 -36.27,7.48 -47.7,22.51 -11.35,15.02 -17,34.22 -17,57.71l0 54.54c0,23.85 5.72,43.25 17.15,58.28 11.43,15.03 27.44,22.5 47.97,22.5 20.68,0 36.76,-7.47 48.33,-22.5 11.57,-15.03 17.36,-34.43 17.36,-58.28l0 -54.54zm-36.34 -157.06l-51.85 0 -56.24 -53.76 0.43 -1.2 67.17 0 40.49 54.96zm387.56 335l-60.39 0 -121.29 -202.99 -1.27 0.21 0 202.78 -60.32 0 0 -300.99 60.32 0 121.36 202.78 1.2 -0.21 0 -202.57 60.39 0 0 300.99zm286.03 -41.13c-9.38,12.27 -23.35,22.93 -41.98,31.96 -18.55,9.03 -42.54,13.47 -71.89,13.54 -36.41,-0.07 -66.18,-11.5 -89.33,-34.36 -23.14,-22.86 -34.71,-52.56 -34.71,-89.11l0 -62.79c0,-36.41 11.22,-66.04 33.73,-88.97 22.43,-23 51.29,-34.43 86.57,-34.43 36.83,0 64.98,8.68 84.52,26.1 19.62,17.5 29.07,40.71 28.37,69.78l-0.43 1.27 -56.87 0c0,-16.01 -4.58,-28.43 -13.82,-37.32 -9.25,-8.89 -22.65,-13.34 -40.29,-13.34 -18.49,0 -33.37,7.13 -44.66,21.38 -11.29,14.25 -16.94,32.67 -16.94,55.11l0 63.21c0,22.79 5.79,41.28 17.36,55.67 11.57,14.32 27.09,21.45 46.5,21.45 14.32,0 25.68,-1.41 34,-4.3 8.33,-2.9 14.75,-6.57 19.34,-11.01l0 -58.28 -57.93 0 0 -41.7 118.46 0 0 116.14zm1587.99 -37.4c0,-11.57 -4.02,-20.88 -12.06,-27.94 -8.05,-6.98 -22.23,-13.61 -42.48,-19.82 -34.71,-10.52 -61.1,-22.79 -79.09,-36.97 -17.99,-14.26 -26.95,-33.59 -26.95,-58.14 0,-24.63 10.09,-44.8 30.41,-60.47 20.25,-15.59 46.07,-23.42 77.47,-23.42 33.37,0 60.18,8.39 80.5,25.19 20.32,16.86 30.2,38.87 29.49,66.18l-0.42 1.2 -58.49 0c0,-15.03 -4.59,-26.53 -13.69,-34.58 -9.1,-8.11 -21.8,-12.13 -38.24,-12.13 -14.82,0 -26.39,3.6 -34.5,10.79 -8.11,7.13 -12.21,16.3 -12.21,27.45 0,10.23 4.45,18.56 13.27,25.12 8.82,6.56 24.06,13.47 45.65,20.81 33.09,9.31 58.28,21.59 75.7,36.69 17.36,15.1 26.04,34.92 26.04,59.62 0,25.75 -10.09,46.07 -30.2,60.96 -20.11,14.89 -46.71,22.29 -79.8,22.36 -32.38,-0.07 -60.18,-8.11 -83.39,-24.2 -23.22,-16.15 -34.51,-40.21 -33.8,-72.17l0.42 -1.2 58.49 0c0,17.78 5.22,30.83 15.74,39.23 10.44,8.39 24.62,12.62 42.54,12.62 16.16,0 28.44,-3.38 36.9,-10.16 8.47,-6.7 12.7,-15.73 12.7,-27.02zm343.32 -222.46l0 37.47 1.27 0.21c11.43,-2.82 19.62,-9.95 24.63,-21.52 4.94,-11.57 7.41,-27.38 7.41,-47.34l44.45 0c0,31.82 -6.28,56.93 -18.91,75.21 -12.63,18.34 -32.25,29.42 -58.85,33.3l0 119.66c0,33.94 -11.21,60.47 -33.65,79.59 -22.44,19.19 -51.58,28.71 -87.42,28.78 -35.7,-0.07 -64.7,-9.59 -86.92,-28.78 -22.3,-19.12 -33.37,-45.65 -33.37,-79.59l0 -196.99 60.53 0 0 196.99c0,20.18 5.36,35.49 16.09,46.14 10.79,10.59 25.33,15.88 43.67,15.88 18.56,0 33.3,-5.29 44.24,-15.88 10.87,-10.65 16.3,-25.96 16.3,-46.14l0 -196.99 60.53 0zm-83.89 375.85l-67.59 0 0 -49.81 67.59 0 0 49.81zm-1447.44 -74.86l-60.39 0 -121.29 -202.99 -1.27 0.21 0 202.78 -60.32 0 0 -300.99 60.32 0 121.36 202.78 1.2 -0.21 0 -202.57 60.39 0 0 300.99zm298.66 0l-60.39 0 0 -125.02 -122.56 0 0 125.02 -60.32 0 0 -300.99 60.32 0 0 129.4 122.56 0 0 -129.4 60.39 0 0 300.99zm215.97 -64.91l-97.58 0 -20.24 64.91 -63.01 0 101.46 -300.99 61.8 0 101.11 300.99 -63.08 0 -20.46 -64.91zm-82.69 -47.34l68.02 0 -33.23 -106.05 -1.27 0 -33.52 106.05zm109.93 -221.55l0 4.73 -47.98 0 -28.93 -27.51 -28.79 27.51 -46.91 0 0 -5.36 58.34 -49.6 34.93 0 59.34 50.23zm328.5 333.8l-60.39 0 -121.29 -202.99 -1.27 0.21 0 202.78 -60.32 0 0 -300.99 60.32 0 121.36 202.78 1.2 -0.21 0 -202.57 60.39 0 0 300.99z"/>
   <g>
    <polygon class="fil0" points="14133.12,6000.99 18633.12,6000.99 18633.12,7500.99 14133.12,7500.99 "/>
    <path class="fil1" d="M14888.68 6903.14l0 -142.93 -29.86 0 0 -39.66 29.86 0 0 -136.63 111.35 0c38.98,0 71.16,12.49 96.45,37.41 25.29,24.92 37.94,56.87 37.94,95.93l0 52.83c0,39.14 -12.65,71.09 -37.94,95.86 -25.29,24.77 -57.47,37.19 -96.45,37.19l-111.35 0zm117.26 -142.93l-53.28 0 0 93.84 47.37 0c21.02,0 38.01,-7.86 50.88,-23.57 12.8,-15.71 19.23,-35.84 19.23,-60.39l0 -53.28c0,-24.39 -6.43,-44.45 -19.23,-60.09 -12.87,-15.63 -29.86,-23.42 -50.88,-23.42l-47.37 0 0 87.25 53.28 0 0 39.66zm438.06 12.05c0,39.29 -12.35,71.69 -37.04,97.21 -24.7,25.51 -56.88,38.23 -96.46,38.31 -39.51,-0.08 -71.54,-12.8 -96.08,-38.39 -24.55,-25.59 -36.82,-57.99 -36.82,-97.13l0 -57.47c0,-38.98 12.27,-71.31 36.74,-96.98 24.47,-25.66 56.35,-38.46 95.71,-38.46 39.59,0 71.84,12.8 96.68,38.46 24.84,25.67 37.27,58 37.27,96.98l0 57.47zm-63.83 -57.84c0,-24.92 -6.21,-45.27 -18.64,-61.21 -12.42,-15.94 -29.55,-23.87 -51.48,-23.87 -21.63,0 -38.46,7.93 -50.58,23.87 -12.05,15.94 -18.04,36.29 -18.04,61.21l0 57.84c0,25.29 6.06,45.87 18.19,61.81 12.12,15.94 29.1,23.87 50.88,23.87 21.92,0 38.99,-7.93 51.26,-23.87 12.27,-15.94 18.41,-36.52 18.41,-61.81l0 -57.84zm12.49 -169.79l0 5.01 -50.88 0 -30.68 -29.18 -30.53 29.18 -49.76 0 0 -5.68 61.88 -52.61 37.04 0 62.93 53.28zm-45.64 437.9l-71.69 0 0 -52.83 71.69 0 0 52.83zm216.03 -79.39l-64.05 0 0 -319.22 64.05 0 0 319.22zm283.92 -86.58l3.89 17.51 1.34 0 3.75 -16.83 69.51 -233.32 67.5 0 -108.5 319.22 -65.78 0 -108.28 -319.22 67.5 0 69.07 232.64zm326.86 17.74l-103.49 0 -21.48 68.84 -66.82 0 107.6 -319.22 65.55 0 107.23 319.22 -66.89 0 -21.7 -68.84zm-87.71 -50.21l72.14 0 -35.24 -112.47 -1.35 0 -35.55 112.47zm116.59 -234.97l0 5.01 -50.88 0 -30.69 -29.18 -30.53 29.18 -49.76 0 0 -5.68 61.89 -52.61 37.04 0 62.93 53.28zm-44.75 431.62l-71.69 0 0 -52.83 71.69 0 0 52.83zm393.17 -77.6l-64.05 0 -128.64 -215.29 -1.34 0.23 0 215.06 -63.99 0 0 -319.22 63.99 0 128.71 215.06 1.27 -0.23 0 -214.83 64.05 0 0 319.22zm428.56 0l-64.05 0 0 -132.6 -129.98 0 0 132.6 -63.98 0 0 -319.22 63.98 0 0 137.23 129.98 0 0 -137.23 64.05 0 0 319.22zm229.07 -68.84l-103.49 0 -21.48 68.84 -66.82 0 107.6 -319.22 65.55 0 107.23 319.22 -66.89 0 -21.7 -68.84zm-87.71 -50.21l72.14 0 -35.24 -112.47 -1.35 0 -35.55 112.47zm65.56 -231.75l-55 0 -59.64 -57.02 0.45 -1.28 71.23 0 42.96 58.3zm399.44 350.8l-64.05 0 -128.64 -215.29 -1.34 0.23 0 215.06 -63.98 0 0 -319.22 63.98 0 128.71 215.06 1.27 -0.23 0 -214.83 64.05 0 0 319.22zm316.76 0l-64.05 0 0 -132.6 -129.98 0 0 132.6 -63.98 0 0 -319.22 63.98 0 0 137.23 129.98 0 0 -137.23 64.05 0 0 319.22z"/>
   </g>
   <g>
    <polygon class="fil0" points="14133.12,8000.99 18633.12,8000.99 18633.12,9500.98 14133.12,9500.98 "/>
    <path class="fil1" d="M14670.35 8904.41l0 -142.93 -29.86 0 0 -39.66 29.86 0 0 -136.63 111.35 0c38.98,0 71.16,12.49 96.45,37.41 25.29,24.92 37.94,56.87 37.94,95.93l0 52.83c0,39.14 -12.65,71.09 -37.94,95.86 -25.29,24.77 -57.47,37.19 -96.45,37.19l-111.35 0zm117.26 -142.93l-53.28 0 0 93.84 47.37 0c21.02,0 38.01,-7.86 50.88,-23.57 12.8,-15.71 19.23,-35.84 19.23,-60.39l0 -53.28c0,-24.39 -6.43,-44.45 -19.23,-60.09 -12.87,-15.63 -29.86,-23.42 -50.88,-23.42l-47.37 0 0 87.25 53.28 0 0 39.66zm438.06 12.05c0,39.29 -12.35,71.69 -37.04,97.21 -24.7,25.51 -56.88,38.23 -96.46,38.31 -39.51,-0.08 -71.54,-12.8 -96.08,-38.39 -24.55,-25.59 -36.82,-57.99 -36.82,-97.13l0 -57.47c0,-38.98 12.27,-71.31 36.74,-96.98 24.47,-25.66 56.35,-38.46 95.71,-38.46 39.59,0 71.84,12.8 96.68,38.46 24.84,25.67 37.27,58 37.27,96.98l0 57.47zm-63.83 -57.84c0,-24.92 -6.21,-45.27 -18.64,-61.21 -12.42,-15.94 -29.55,-23.87 -51.48,-23.87 -21.63,0 -38.46,7.93 -50.58,23.87 -12.05,15.94 -18.04,36.29 -18.04,61.21l0 57.84c0,25.29 6.06,45.87 18.19,61.81 12.12,15.94 29.1,23.87 50.88,23.87 21.92,0 38.99,-7.93 51.26,-23.87 12.27,-15.94 18.41,-36.52 18.41,-61.81l0 -57.84zm12.49 -169.79l0 5.01 -50.88 0 -30.68 -29.18 -30.53 29.18 -49.76 0 0 -5.68 61.88 -52.61 37.04 0 62.93 53.28zm-45.64 437.9l-71.69 0 0 -52.83 71.69 0 0 52.83zm216.04 -79.39l-64.05 0 0 -319.22 64.05 0 0 319.22zm433.2 0l-64.05 0 -128.64 -215.29 -1.34 0.23 0 215.06 -63.98 0 0 -319.22 63.98 0 128.71 215.06 1.27 -0.23 0 -214.83 64.05 0 0 319.22zm303.37 -43.63c-9.95,13.02 -24.77,24.32 -44.53,33.9 -19.68,9.58 -45.12,14.29 -76.25,14.37 -38.61,-0.08 -70.19,-12.2 -94.73,-36.44 -24.55,-24.25 -36.82,-55.75 -36.82,-94.51l0 -66.6c0,-38.61 11.9,-70.04 35.77,-94.36 23.8,-24.4 54.4,-36.52 91.82,-36.52 39.06,0 68.91,9.2 89.64,27.69 20.8,18.56 30.83,43.17 30.08,74l-0.45 1.35 -60.31 0c0,-16.98 -4.86,-30.16 -14.66,-39.58 -9.81,-9.43 -24.03,-14.15 -42.73,-14.15 -19.61,0 -35.4,7.56 -47.37,22.68 -11.97,15.11 -17.96,34.64 -17.96,58.44l0 67.05c0,24.17 6.14,43.77 18.41,59.04 12.27,15.19 28.73,22.75 49.31,22.75 15.19,0 27.24,-1.5 36.07,-4.57 8.83,-3.07 15.64,-6.96 20.5,-11.67l0 -61.81 -61.43 0 0 -44.23 125.64 0 0 123.17zm312.41 43.63l-64.05 0 0 -132.6 -129.98 0 0 132.6 -63.98 0 0 -319.22 63.98 0 0 137.23 129.98 0 0 -137.23 64.05 0 0 319.22zm127.14 0l-64.05 0 0 -319.22 64.05 0 0 319.22zm245.75 -140.31l-118.38 0 0 91.22 140.75 0 0 49.09 -204.73 0 0 -319.22 204.28 0 0 49.38 -140.3 0 0 80.22 118.38 0 0 49.31zm1.65 -213.71l0 5.01 -50.89 0 -30.68 -29.18 -30.53 29.18 -49.76 0 0 -5.68 61.88 -52.61 37.04 0 62.94 53.28zm323.71 354.02l-64.05 0 -128.64 -215.29 -1.34 0.23 0 215.06 -63.98 0 0 -319.22 63.98 0 128.71 215.06 1.27 -0.23 0 -214.83 64.05 0 0 319.22zm409.93 -105.66l0.45 1.27c0.52,34.12 -9.8,60.76 -31.13,80.07 -21.4,19.31 -50.81,28.88 -88.38,28.96 -38.31,-0.08 -69.21,-12.35 -92.71,-36.97 -23.57,-24.62 -35.32,-56.49 -35.32,-95.48l0 -63.38c0,-38.84 11.45,-70.72 34.42,-95.48 22.98,-24.77 53.06,-37.12 90.32,-37.12 38.91,0 69.29,9.5 91.22,28.51 21.93,19.01 32.55,45.72 32.03,80.22l-0.45 1.35 -62.26 0c0,-20.51 -4.94,-35.77 -14.82,-45.73 -9.87,-10.02 -25.14,-15.04 -45.72,-15.04 -19.15,0 -34.12,7.71 -44.82,23.13 -10.78,15.41 -16.09,35.32 -16.09,59.71l0 63.83c0,24.54 5.61,44.6 16.99,60.09 11.3,15.49 27.01,23.2 47.21,23.2 19.16,0 33.45,-5.02 42.88,-14.97 9.43,-10.03 14.15,-25.44 14.15,-46.17l62.03 0zm299.17 -213.56l0 39.73 1.35 0.22c12.12,-2.99 20.8,-10.55 26.12,-22.82 5.23,-12.27 7.85,-29.03 7.85,-50.21l47.15 0c0,33.75 -6.66,60.39 -20.06,79.77 -13.39,19.45 -34.2,31.2 -62.41,35.32l0 126.91c0,35.99 -11.89,64.13 -35.69,84.41 -23.8,20.35 -54.7,30.45 -92.71,30.53 -37.87,-0.08 -68.62,-10.18 -92.2,-30.53 -23.64,-20.28 -35.39,-48.42 -35.39,-84.41l0 -208.92 64.2 0 0 208.92c0,21.4 5.69,37.64 17.07,48.94 11.44,11.22 26.86,16.84 46.32,16.84 19.68,0 35.32,-5.62 46.91,-16.84 11.53,-11.3 17.29,-27.54 17.29,-48.94l0 -208.92 64.2 0zm-112.47 -89.88l71.24 0 0.45 1.28 -60.76 57.02 -54.55 0 43.62 -58.3zm432.52 89.88l0 208.92c0,35.99 -11.89,64.13 -35.69,84.41 -23.8,20.35 -54.7,30.45 -92.71,30.53 -37.87,-0.08 -68.62,-10.18 -92.2,-30.53 -23.64,-20.28 -35.39,-48.42 -35.39,-84.41l0 -208.92 64.2 0 0 208.92c0,21.4 5.69,37.64 17.07,48.94 11.44,11.22 26.86,16.84 46.32,16.84 19.68,0 35.32,-5.62 46.91,-16.84 11.53,-11.3 17.29,-27.54 17.29,-48.94l0 -208.92 64.2 0z"/>
   </g>
   <g>
    <polygon class="fil0" points="14133.12,10000.98 18633.12,10000.98 18633.12,11500.98 14133.12,11500.98 "/>
    <path class="fil1" d="M15712.93 10565.86l0 115.76 -63.98 0 0 -319.22 122.05 0c36.74,0 65.55,9.35 86.65,28.06 21.03,18.7 31.58,43.32 31.58,73.93 0,30.53 -10.55,55.07 -31.58,73.63 -21.1,18.56 -49.91,27.84 -86.65,27.84l-58.07 0zm0 -49.31l58.07 0c17.88,0 31.35,-4.87 40.55,-14.6 9.21,-9.72 13.85,-22.07 13.85,-37.11 0,-15.42 -4.57,-28.06 -13.7,-38.09 -9.13,-10.03 -22.67,-14.97 -40.7,-14.97l-58.07 0 0 104.77zm480.11 165.07l-64.05 0 0 -132.6 -129.98 0 0 132.6 -63.98 0 0 -319.22 63.98 0 0 137.23 129.98 0 0 -137.23 64.05 0 0 319.22zm316.98 -130.88c0,39.29 -12.35,71.69 -37.04,97.21 -24.7,25.51 -56.88,38.23 -96.45,38.31 -39.51,-0.08 -71.54,-12.8 -96.08,-38.39 -24.55,-25.59 -36.82,-57.99 -36.82,-97.13l0 -57.47c0,-38.98 12.27,-71.31 36.74,-96.98 24.47,-25.66 56.35,-38.46 95.71,-38.46 39.58,0 71.83,12.8 96.67,38.46 24.84,25.67 37.27,58 37.27,96.98l0 57.47zm-63.83 -57.84c0,-24.92 -6.21,-45.27 -18.64,-61.21 -12.41,-15.94 -29.54,-23.87 -51.47,-23.87 -21.63,0 -38.46,7.93 -50.58,23.87 -12.05,15.94 -18.04,36.29 -18.04,61.21l0 57.84c0,25.29 6.06,45.87 18.19,61.81 12.12,15.94 29.1,23.87 50.88,23.87 21.92,0 38.98,-7.93 51.25,-23.87 12.27,-15.94 18.41,-36.52 18.41,-61.81l0 -57.84zm-38.53 -166.57l-55 0 -59.64 -57.02 0.45 -1.28 71.24 0 42.95 58.3zm411.03 355.29l-64.05 0 -128.64 -215.29 -1.34 0.23 0 215.06 -63.98 0 0 -319.22 63.98 0 128.71 215.06 1.27 -0.23 0 -214.83 64.05 0 0 319.22zm303.37 -43.63c-9.95,13.02 -24.77,24.32 -44.53,33.9 -19.68,9.58 -45.12,14.29 -76.25,14.37 -38.61,-0.08 -70.19,-12.2 -94.73,-36.44 -24.55,-24.25 -36.82,-55.75 -36.82,-94.51l0 -66.6c0,-38.61 11.9,-70.04 35.77,-94.36 23.8,-24.4 54.4,-36.52 91.82,-36.52 39.06,0 68.91,9.2 89.64,27.69 20.8,18.56 30.83,43.17 30.08,74l-0.45 1.35 -60.31 0c0,-16.98 -4.86,-30.16 -14.66,-39.58 -9.81,-9.43 -24.03,-14.15 -42.73,-14.15 -19.61,0 -35.4,7.56 -47.37,22.68 -11.97,15.11 -17.96,34.64 -17.96,58.44l0 67.05c0,24.17 6.14,43.77 18.41,59.04 12.27,15.19 28.73,22.75 49.31,22.75 15.19,0 27.24,-1.5 36.07,-4.57 8.83,-3.07 15.64,-6.96 20.5,-11.67l0 -61.81 -61.43 0 0 -44.23 125.64 0 0 123.17zm-1811.03 582.49l-64.05 0 0 -132.6 -129.98 0 0 132.6 -63.98 0 0 -319.22 63.98 0 0 137.23 129.98 0 0 -137.23 64.05 0 0 319.22zm229.07 -68.84l-103.49 0 -21.48 68.84 -66.82 0 107.6 -319.22 65.55 0 107.23 319.22 -66.89 0 -21.7 -68.84zm-87.71 -50.21l72.14 0 -35.24 -112.47 -1.35 0 -35.55 112.47zm65.56 -231.75l-55 0 -59.64 -57.02 0.45 -1.28 71.23 0 42.96 58.3zm399.44 350.8l-64.05 0 -128.64 -215.29 -1.34 0.23 0 215.06 -63.98 0 0 -319.22 63.98 0 128.71 215.06 1.27 -0.23 0 -214.83 64.05 0 0 319.22zm316.76 0l-64.05 0 0 -132.6 -129.98 0 0 132.6 -63.98 0 0 -319.22 63.98 0 0 137.23 129.98 0 0 -137.23 64.05 0 0 319.22zm409.92 -105.66l0.45 1.27c0.52,34.12 -9.8,60.76 -31.13,80.07 -21.4,19.31 -50.81,28.88 -88.38,28.96 -38.31,-0.08 -69.21,-12.35 -92.71,-36.97 -23.56,-24.62 -35.31,-56.49 -35.31,-95.48l0 -63.38c0,-38.84 11.45,-70.72 34.41,-95.48 22.98,-24.77 53.06,-37.12 90.32,-37.12 38.91,0 69.29,9.5 91.22,28.51 21.93,19.01 32.55,45.72 32.03,80.22l-0.45 1.35 -62.26 0c0,-20.51 -4.94,-35.77 -14.82,-45.73 -9.87,-10.02 -25.14,-15.04 -45.72,-15.04 -19.15,0 -34.12,7.71 -44.82,23.13 -10.78,15.41 -16.09,35.32 -16.09,59.71l0 63.83c0,24.54 5.61,44.6 16.99,60.09 11.3,15.49 27.01,23.2 47.21,23.2 19.16,0 33.45,-5.02 42.88,-14.97 9.43,-10.03 14.15,-25.44 14.15,-46.17l62.03 0zm304.26 105.66l-64.05 0 0 -132.6 -129.98 0 0 132.6 -63.98 0 0 -319.22 63.98 0 0 137.23 129.98 0 0 -137.23 64.05 0 0 319.22zm127.14 0l-64.05 0 0 -319.22 64.05 0 0 319.22zm-19.53 -409.1l71.24 0 0.45 1.28 -60.76 57.02 -54.55 0 43.62 -58.3zm340.93 409.1l-64.05 0 -128.64 -215.29 -1.34 0.23 0 215.06 -63.98 0 0 -319.22 63.98 0 128.71 215.06 1.27 -0.23 0 -214.83 64.05 0 0 319.22zm316.76 0l-64.05 0 0 -132.6 -129.98 0 0 132.6 -63.98 0 0 -319.22 63.98 0 0 137.23 129.98 0 0 -137.23 64.05 0 0 319.22z"/>
   </g>
   <g>
    <polygon class="fil3" points="7066.42,940.28 11566.42,940.28 11566.42,2440.28 7066.42,2440.28 "/>
    <path class="fil4" d="M8556.58 1608.65l-64.05 0 0 -132.6 -129.98 0 0 132.6 -63.98 0 0 -319.22 63.98 0 0 137.23 129.98 0 0 -137.23 64.05 0 0 319.22zm316.99 -130.88c0,39.29 -12.35,71.69 -37.04,97.21 -24.7,25.51 -56.88,38.23 -96.46,38.31 -39.51,-0.08 -71.54,-12.8 -96.08,-38.39 -24.55,-25.59 -36.82,-57.99 -36.82,-97.13l0 -57.47c0,-38.98 12.27,-71.31 36.74,-96.98 24.47,-25.66 56.35,-38.46 95.71,-38.46 39.59,0 71.84,12.8 96.68,38.46 24.84,25.67 37.27,58 37.27,96.98l0 57.47zm-63.83 -57.84c0,-24.92 -6.21,-45.27 -18.64,-61.21 -12.42,-15.94 -29.55,-23.87 -51.48,-23.87 -21.63,0 -38.46,7.93 -50.58,23.87 -12.05,15.94 -18.04,36.29 -18.04,61.21l0 57.84c0,25.29 6.06,45.87 18.19,61.81 12.12,15.94 29.1,23.87 50.88,23.87 21.92,0 38.99,-7.93 51.26,-23.87 12.27,-15.94 18.41,-36.52 18.41,-61.81l0 -57.84zm12.49 -169.79l0 5.01 -50.88 0 -30.68 -29.18 -30.53 29.18 -49.76 0 0 -5.68 61.88 -52.61 37.04 0 62.93 53.28zm-45.64 437.9l-71.69 0 0 -52.83 71.69 0 0 52.83zm216.03 -79.39l-64.05 0 0 -319.22 64.05 0 0 319.22zm175.19 0l0 -142.93 -29.86 0 0 -39.66 29.86 0 0 -136.63 111.35 0c38.98,0 71.16,12.49 96.45,37.41 25.29,24.92 37.94,56.87 37.94,95.93l0 52.83c0,39.14 -12.65,71.09 -37.94,95.86 -25.29,24.77 -57.47,37.19 -96.45,37.19l-111.35 0zm117.26 -142.93l-53.28 0 0 93.84 47.37 0c21.02,0 38.01,-7.86 50.88,-23.57 12.8,-15.71 19.23,-35.84 19.23,-60.39l0 -53.28c0,-24.39 -6.43,-44.45 -19.23,-60.09 -12.87,-15.63 -29.86,-23.42 -50.88,-23.42l-47.37 0 0 87.25 53.28 0 0 39.66zm438.05 12.05c0,39.29 -12.35,71.69 -37.04,97.21 -24.7,25.51 -56.88,38.23 -96.46,38.31 -39.5,-0.08 -71.53,-12.8 -96.07,-38.39 -24.55,-25.59 -36.82,-57.99 -36.82,-97.13l0 -57.47c0,-38.98 12.27,-71.31 36.74,-96.98 24.47,-25.66 56.35,-38.46 95.7,-38.46 39.59,0 71.84,12.8 96.68,38.46 24.84,25.67 37.27,58 37.27,96.98l0 57.47zm-63.83 -57.84c0,-24.92 -6.21,-45.27 -18.64,-61.21 -12.42,-15.94 -29.55,-23.87 -51.48,-23.87 -21.62,0 -38.45,7.93 -50.57,23.87 -12.05,15.94 -18.04,36.29 -18.04,61.21l0 57.84c0,25.29 6.06,45.87 18.19,61.81 12.12,15.94 29.1,23.87 50.87,23.87 21.92,0 38.99,-7.93 51.26,-23.87 12.27,-15.94 18.41,-36.52 18.41,-61.81l0 -57.84zm21.85 -162.53l-0.38 1.34 -57.47 0 -33.3 -31.35 -33.36 31.35 -57.62 0 -0.45 -1.34 65.1 -55.45 52.6 0 64.88 55.45zm-162.82 -36.37l-44.75 0 -46.7 -59.41 58.75 0 32.7 59.41zm513.47 387.62l-64.05 0 -128.64 -215.29 -1.34 0.23 0 215.06 -63.98 0 0 -319.22 63.98 0 128.71 215.06 1.27 -0.23 0 -214.83 64.05 0 0 319.22zm303.37 -43.63c-9.95,13.02 -24.77,24.32 -44.53,33.9 -19.68,9.58 -45.12,14.29 -76.25,14.37 -38.61,-0.08 -70.19,-12.2 -94.73,-36.44 -24.55,-24.25 -36.82,-55.75 -36.82,-94.51l0 -66.6c0,-38.61 11.9,-70.04 35.77,-94.36 23.8,-24.4 54.4,-36.52 91.82,-36.52 39.06,0 68.91,9.2 89.64,27.69 20.8,18.56 30.83,43.17 30.08,74l-0.45 1.35 -60.31 0c0,-16.98 -4.86,-30.16 -14.66,-39.58 -9.81,-9.43 -24.03,-14.15 -42.73,-14.15 -19.61,0 -35.4,7.56 -47.37,22.68 -11.97,15.11 -17.96,34.64 -17.96,58.44l0 67.05c0,24.17 6.14,43.77 18.41,59.04 12.27,15.19 28.73,22.75 49.31,22.75 15.19,0 27.24,-1.5 36.07,-4.57 8.83,-3.07 15.64,-6.96 20.5,-11.67l0 -61.81 -61.43 0 0 -44.23 125.64 0 0 123.17zm-1793.35 451.61c0,16.09 -2.25,31.21 -6.74,45.35 -4.41,14.22 -10.77,27.01 -18.93,38.39l47.59 47.59 -41.9 34.2 -46.7 -46.02c-9.8,5.23 -20.28,9.2 -31.43,11.89 -11.22,2.7 -22.97,4.04 -35.39,4.12 -39.51,-0.08 -71.54,-12.8 -96.08,-38.39 -24.55,-25.59 -36.82,-57.99 -36.82,-97.13l0 -57.47c0,-38.98 12.27,-71.31 36.74,-96.98 24.47,-25.66 56.35,-38.46 95.71,-38.46 39.59,0 71.84,12.8 96.68,38.46 24.84,25.67 37.27,58 37.27,96.98l0 57.47zm-63.83 -57.84c0,-24.92 -6.21,-45.27 -18.64,-61.21 -12.42,-15.94 -29.55,-23.87 -51.48,-23.87 -21.63,0 -38.46,7.93 -50.58,23.87 -12.05,15.94 -18.04,36.29 -18.04,61.21l0 57.84c0,25.29 6.06,45.87 18.19,61.81 12.12,15.94 29.1,23.87 50.88,23.87 21.92,0 38.99,-7.93 51.26,-23.87 12.27,-15.94 18.41,-36.52 18.41,-61.81l0 -57.84zm374.44 -130.5l0 208.92c0,35.99 -11.89,64.13 -35.69,84.41 -23.8,20.35 -54.7,30.45 -92.71,30.53 -37.87,-0.08 -68.62,-10.18 -92.2,-30.53 -23.64,-20.28 -35.39,-48.42 -35.39,-84.41l0 -208.92 64.2 0 0 208.92c0,21.4 5.69,37.64 17.07,48.94 11.44,11.22 26.86,16.84 46.32,16.84 19.68,0 35.32,-5.62 46.91,-16.84 11.53,-11.3 17.29,-27.54 17.29,-48.94l0 -208.92 64.2 0zm217.09 250.38l-103.49 0 -21.48 68.84 -66.82 0 107.6 -319.22 65.55 0 107.23 319.22 -66.89 0 -21.7 -68.84zm-87.71 -50.21l72.14 0 -35.24 -112.47 -1.35 0 -35.55 112.47zm11.38 -228.54l-3.52 -30c10.78,-0.45 18.48,-1.8 23.12,-3.97 4.57,-2.24 6.51,-5.54 5.77,-9.88l0 -1.34c0.74,-5.09 -1.58,-8.76 -6.96,-11.08 -5.47,-2.24 -13.02,-3.36 -22.83,-3.36l1.5 -29.19c27.09,0 47.74,3.82 62.11,11.45 14.29,7.56 21.48,18.03 21.48,31.35 0,9.36 -3.15,16.62 -9.43,21.93 -6.29,5.24 -14.15,8.53 -23.5,9.8l0 14.29 -47.74 0zm453.62 347.59l-64.05 0 -128.64 -215.29 -1.34 0.23 0 215.06 -63.98 0 0 -319.22 63.98 0 128.71 215.06 1.27 -0.23 0 -214.83 64.05 0 0 319.22zm504.81 -269.84l-91.22 0 0 269.84 -63.98 0 0 -269.84 -89.87 0 0 -49.38 245.07 0 0 49.38zm99.07 142.25l0 127.59 -63.98 0 0 -319.22 110.45 0c36.44,0 64.87,8.3 85.38,24.91 20.58,16.62 30.83,39.74 30.83,69.37 0,16.39 -4.34,30.53 -13.02,42.43 -8.76,11.9 -21.4,21.55 -38.09,28.81 18.86,5.54 32.4,14.89 40.71,27.84 8.23,13.02 12.34,29.1 12.34,48.26l0 23.42c0,8.91 1.2,18.26 3.67,27.99 2.4,9.73 6.51,16.91 12.35,21.55l0 4.64 -66 0c-5.84,-4.71 -9.58,-12.42 -11.3,-23.27 -1.65,-10.78 -2.47,-21.25 -2.47,-31.28l0 -22.6c0,-15.94 -4.34,-28.36 -13.1,-37.19 -8.68,-8.83 -20.95,-13.25 -36.89,-13.25l-50.88 0zm0 -49.31l45.34 0c18.04,0 31.36,-3.81 40.19,-11.45 8.75,-7.55 13.09,-18.85 13.09,-33.75 0,-14.59 -4.41,-26.19 -13.24,-34.87 -8.83,-8.6 -21.78,-12.87 -38.91,-12.87l-46.47 0 0 92.94zm290.49 176.9l-64.05 0 0 -319.22 64.05 0 0 319.22z"/>
    <polygon class="fil4" points="10342.13,2244.69 10278.15,2244.69 10278.15,2188.57 10342.13,2188.57 "/>
   </g>
   <g>
    <polygon class="fil5" points="7066.42,4000.99 11566.42,4000.99 11566.42,5500.99 7066.42,5500.99 "/>
    <path class="fil1" d="M8524.9 4904.77c-10.02,13.02 -24.94,24.32 -44.83,33.9 -19.81,9.58 -45.43,14.29 -76.77,14.37 -38.87,-0.08 -70.66,-12.2 -95.37,-36.44 -24.72,-24.25 -37.07,-55.75 -37.07,-94.51l0 -66.6c0,-38.61 11.98,-70.04 36.01,-94.36 23.96,-24.4 54.77,-36.52 92.45,-36.52 39.32,0 69.37,9.2 90.24,27.69 20.95,18.56 31.04,43.17 30.29,74l-0.45 1.35 -60.72 0c0,-16.98 -4.9,-30.16 -14.76,-39.58 -9.88,-9.43 -24.2,-14.15 -43.02,-14.15 -19.75,0 -35.64,7.56 -47.69,22.68 -12.06,15.11 -18.09,34.64 -18.09,58.44l0 67.05c0,24.17 6.18,43.77 18.54,59.04 12.35,15.19 28.92,22.75 49.64,22.75 15.3,0 27.43,-1.5 36.32,-4.57 8.89,-3.07 15.74,-6.96 20.64,-11.67l0 -61.81 -61.85 0 0 -44.23 126.49 0 0 123.17zm123.63 43.63l-64.49 0 0 -319.22 64.49 0 0 319.22zm235.29 -68.84l-104.19 0 -21.63 68.84 -67.27 0 108.33 -319.22 65.99 0 107.96 319.22 -67.34 0 -21.85 -68.84zm-88.3 -50.21l72.63 0 -35.48 -112.47 -1.36 0 -35.79 112.47zm48.22 -290.05l71.71 0 0.46 1.28 -61.17 57.02 -54.93 0 43.93 -58.3zm326.36 325.14l1.29 0 82.57 -235.26 84.07 0 0 319.22 -64.41 0 0 -217.9 -1.36 -0.23 -79.48 218.13 -43.69 0 -79.42 -218.58 -1.35 0.23 0 218.35 -64.41 0 0 -319.22 84.53 0 81.66 235.26zm339.71 83.96l0 -142.93 -30.06 0 0 -39.66 30.06 0 0 -136.63 112.11 0c39.24,0 71.64,12.49 97.1,37.41 25.46,24.92 38.2,56.87 38.2,95.93l0 52.83c0,39.14 -12.74,71.09 -38.2,95.86 -25.46,24.77 -57.86,37.19 -97.1,37.19l-112.11 0zm118.06 -142.93l-53.65 0 0 93.84 47.7 0c21.16,0 38.26,-7.86 51.22,-23.57 12.89,-15.71 19.36,-35.84 19.36,-60.39l0 -53.28c0,-24.39 -6.47,-44.45 -19.36,-60.09 -12.96,-15.63 -30.06,-23.42 -51.22,-23.42l-47.7 0 0 87.25 53.65 0 0 39.66zm441.03 12.05c0,39.29 -12.44,71.69 -37.29,97.21 -24.87,25.51 -57.27,38.23 -97.12,38.31 -39.78,-0.08 -72.02,-12.8 -96.73,-38.39 -24.72,-25.59 -37.07,-57.99 -37.07,-97.13l0 -57.47c0,-38.98 12.35,-71.31 36.99,-96.98 24.64,-25.66 56.73,-38.46 96.36,-38.46 39.86,0 72.33,12.8 97.33,38.46 25.01,25.67 37.53,58 37.53,96.98l0 57.47zm-64.27 -57.84c0,-24.92 -6.25,-45.27 -18.76,-61.21 -12.51,-15.94 -29.75,-23.87 -51.83,-23.87 -21.78,0 -38.72,7.93 -50.92,23.87 -12.14,15.94 -18.17,36.29 -18.17,61.21l0 57.84c0,25.29 6.1,45.87 18.32,61.81 12.2,15.94 29.29,23.87 51.22,23.87 22.07,0 39.26,-7.93 51.61,-23.87 12.35,-15.94 18.53,-36.52 18.53,-61.81l0 -57.84zm-95.6 -219.78l52.96 0 65.32 55.45 -0.46 1.35 -57.77 0 -33.83 -31.35 -33.31 31.35 -58.01 0 -0.44 -1.35 65.54 -55.45zm131.32 -40.33l59.59 0 -47.24 59.41 -45.05 0 32.7 -59.41zm320.56 343.17l0.45 1.27c0.52,34.12 -9.87,60.76 -31.34,80.07 -21.55,19.31 -51.16,28.88 -88.98,28.96 -38.57,-0.08 -69.68,-12.35 -93.34,-36.97 -23.73,-24.62 -35.56,-56.49 -35.56,-95.48l0 -63.38c0,-38.84 11.53,-70.72 34.65,-95.48 23.14,-24.77 53.42,-37.12 90.94,-37.12 39.17,0 69.76,9.5 91.83,28.51 22.08,19.01 32.78,45.72 32.25,80.22l-0.45 1.35 -62.68 0c0,-20.51 -4.98,-35.77 -14.92,-45.73 -9.94,-10.02 -25.31,-15.04 -46.03,-15.04 -19.28,0 -34.36,7.71 -45.13,23.13 -10.85,15.41 -16.2,35.32 -16.2,59.71l0 63.83c0,24.54 5.65,44.6 17.11,60.09 11.37,15.49 27.19,23.2 47.53,23.2 19.29,0 33.67,-5.02 43.17,-14.97 9.49,-10.03 14.24,-25.44 14.24,-46.17l62.46 0z"/>
   </g>
   <g>
    <polygon class="fil0" points="9298.75,2839.72 9334.11,2839.72 9334.11,3601.55 9298.75,3601.55 "/>
    <path class="fil0" d="M9316.43 3460.12c39.05,0 70.71,31.66 70.71,70.71 0,39.05 -31.66,70.72 -70.71,70.72 -39.06,0 -70.72,-31.67 -70.72,-70.72 0,-39.05 31.66,-70.71 70.72,-70.71z"/>
   </g>
   <polygon class="fil2" points="14133.12,2000.99 18633.12,2000.99 18633.12,3500.99 14133.12,3500.99 "/>
   <path class="fil4" d="M14749.3 2783.7l0 109.15 -60.32 0 0 -300.99 115.07 0c34.65,0 61.81,8.82 81.71,26.46 19.82,17.64 29.77,40.85 29.77,69.71 0,28.79 -9.95,51.93 -29.77,69.42 -19.9,17.5 -47.06,26.25 -81.71,26.25l-54.75 0zm0 -46.49l54.75 0c16.87,0 29.57,-4.59 38.24,-13.76 8.68,-9.17 13.06,-20.82 13.06,-35 0,-14.53 -4.31,-26.46 -12.91,-35.91 -8.61,-9.45 -21.38,-14.11 -38.39,-14.11l-54.75 0 0 98.78zm452.68 155.64l-60.39 0 0 -125.02 -122.56 0 0 125.02 -60.32 0 0 -300.99 60.32 0 0 129.4 122.56 0 0 -129.4 60.39 0 0 300.99zm298.87 -123.4c0,37.04 -11.64,67.59 -34.92,91.65 -23.28,24.06 -53.62,36.05 -90.95,36.12 -37.25,-0.07 -67.45,-12.06 -90.59,-36.19 -23.14,-24.13 -34.71,-54.68 -34.71,-91.58l0 -54.19c0,-36.76 11.57,-67.24 34.64,-91.44 23.07,-24.2 53.13,-36.26 90.24,-36.26 37.32,0 67.73,12.06 91.16,36.26 23.42,24.2 35.13,54.68 35.13,91.44l0 54.19zm-60.18 -54.54c0,-23.49 -5.86,-42.69 -17.57,-57.71 -11.71,-15.03 -27.87,-22.51 -48.54,-22.51 -20.39,0 -36.27,7.48 -47.7,22.51 -11.35,15.02 -17,34.22 -17,57.71l0 54.54c0,23.85 5.72,43.25 17.15,58.28 11.43,15.03 27.44,22.5 47.97,22.5 20.68,0 36.76,-7.47 48.33,-22.5 11.57,-15.03 17.36,-34.43 17.36,-58.28l0 -54.54zm-36.34 -157.06l-51.85 0 -56.24 -53.76 0.43 -1.2 67.17 0 40.49 54.96zm387.56 335l-60.39 0 -121.29 -202.99 -1.27 0.21 0 202.78 -60.32 0 0 -300.99 60.32 0 121.36 202.78 1.2 -0.21 0 -202.57 60.39 0 0 300.99zm286.03 -41.13c-9.38,12.27 -23.35,22.93 -41.98,31.96 -18.55,9.03 -42.54,13.47 -71.89,13.54 -36.41,-0.07 -66.18,-11.5 -89.33,-34.36 -23.14,-22.86 -34.71,-52.56 -34.71,-89.11l0 -62.79c0,-36.41 11.22,-66.04 33.73,-88.97 22.43,-23 51.29,-34.43 86.57,-34.43 36.83,0 64.98,8.68 84.52,26.1 19.62,17.5 29.07,40.71 28.37,69.78l-0.43 1.27 -56.87 0c0,-16.01 -4.58,-28.43 -13.82,-37.32 -9.25,-8.89 -22.65,-13.34 -40.29,-13.34 -18.49,0 -33.37,7.13 -44.66,21.38 -11.29,14.25 -16.94,32.67 -16.94,55.11l0 63.21c0,22.79 5.79,41.28 17.36,55.67 11.57,14.32 27.09,21.45 46.5,21.45 14.32,0 25.68,-1.41 34,-4.3 8.33,-2.9 14.75,-6.57 19.34,-11.01l0 -58.28 -57.93 0 0 -41.7 118.46 0 0 116.14zm366.47 -213.29l-86.01 0 0 254.42 -60.32 0 0 -254.42 -84.74 0 0 -46.57 231.07 0 0 46.57zm276.36 254.42l-60.39 0 0 -125.02 -122.56 0 0 125.02 -60.32 0 0 -300.99 60.32 0 0 129.4 122.56 0 0 -129.4 60.39 0 0 300.99zm119.88 0l-60.4 0 0 -300.99 60.4 0 0 300.99zm390.87 -99.62l0.43 1.2c0.49,32.17 -9.25,57.29 -29.35,75.49 -20.18,18.2 -47.91,27.23 -83.33,27.3 -36.12,-0.07 -65.26,-11.64 -87.42,-34.85 -22.22,-23.21 -33.3,-53.27 -33.3,-90.03l0 -59.76c0,-36.62 10.8,-66.67 32.46,-90.03 21.66,-23.35 50.02,-34.99 85.16,-34.99 36.68,0 65.33,8.96 86,26.88 20.68,17.92 30.69,43.11 30.2,75.63l-0.42 1.27 -58.7 0c0,-19.33 -4.66,-33.72 -13.97,-43.1 -9.32,-9.46 -23.71,-14.19 -43.11,-14.19 -18.07,0 -32.18,7.27 -42.27,21.81 -10.16,14.53 -15.17,33.3 -15.17,56.3l0 60.18c0,23.14 5.3,42.05 16.02,56.66 10.65,14.6 25.47,21.87 44.52,21.87 18.06,0 31.54,-4.73 40.43,-14.11 8.89,-9.46 13.33,-23.99 13.33,-43.53l58.49 0zm287.09 -23.78c0,37.04 -11.64,67.59 -34.92,91.65 -23.28,24.06 -53.62,36.05 -90.95,36.12 -37.25,-0.07 -67.45,-12.06 -90.59,-36.19 -23.14,-24.13 -34.71,-54.68 -34.71,-91.58l0 -54.19c0,-36.76 11.57,-67.24 34.64,-91.44 23.07,-24.2 53.13,-36.26 90.24,-36.26 37.32,0 67.73,12.06 91.16,36.26 23.42,24.2 35.13,54.68 35.13,91.44l0 54.19zm-60.18 -54.54c0,-23.49 -5.86,-42.69 -17.57,-57.71 -11.71,-15.03 -27.87,-22.51 -48.54,-22.51 -20.39,0 -36.27,7.48 -47.7,22.51 -11.35,15.02 -17,34.22 -17,57.71l0 54.54c0,23.85 5.72,43.25 17.15,58.28 11.43,15.03 27.44,22.5 47.97,22.5 20.68,0 36.76,-7.47 48.33,-22.5 11.57,-15.03 17.36,-34.43 17.36,-58.28l0 -54.54zm11.78 -160.09l0 4.73 -47.97 0 -28.93 -27.52 -28.79 27.52 -46.92 0 0 -5.36 58.35 -49.6 34.93 0 59.33 50.23zm339.44 338.03l-60.39 0 -121.29 -202.99 -1.27 0.21 0 202.78 -60.32 0 0 -300.99 60.32 0 121.36 202.78 1.2 -0.21 0 -202.57 60.39 0 0 300.99zm286.03 -41.13c-9.38,12.27 -23.35,22.93 -41.98,31.96 -18.55,9.03 -42.54,13.47 -71.89,13.54 -36.41,-0.07 -66.18,-11.5 -89.33,-34.36 -23.14,-22.86 -34.71,-52.56 -34.71,-89.11l0 -62.79c0,-36.41 11.22,-66.04 33.73,-88.97 22.43,-23 51.29,-34.43 86.57,-34.43 36.83,0 64.98,8.68 84.52,26.1 19.62,17.5 29.07,40.71 28.37,69.78l-0.43 1.27 -56.87 0c0,-16.01 -4.58,-28.43 -13.82,-37.32 -9.25,-8.89 -22.65,-13.34 -40.29,-13.34 -18.49,0 -33.37,7.13 -44.66,21.38 -11.29,14.25 -16.94,32.67 -16.94,55.11l0 63.21c0,22.79 5.79,41.28 17.36,55.67 11.57,14.32 27.09,21.45 46.5,21.45 14.32,0 25.68,-1.41 34,-4.3 8.33,-2.9 14.75,-6.57 19.34,-11.01l0 -58.28 -57.93 0 0 -41.7 118.46 0 0 116.14z"/>
   <polygon class="fil2" points="14133.12,4000.99 18633.12,4000.99 18633.12,5500.99 14133.12,5500.99 "/>
   <path class="fil4" d="M15724.63 4746.07c0,15.17 -2.11,29.42 -6.35,42.76 -4.16,13.4 -10.16,25.47 -17.85,36.19l44.88 44.87 -39.51 32.25 -44.03 -43.39c-9.24,4.93 -19.12,8.67 -29.63,11.21 -10.59,2.54 -21.66,3.81 -33.38,3.88 -37.25,-0.07 -67.45,-12.06 -90.59,-36.19 -23.14,-24.13 -34.71,-54.68 -34.71,-91.58l0 -54.19c0,-36.76 11.57,-67.24 34.64,-91.44 23.07,-24.2 53.13,-36.26 90.24,-36.26 37.32,0 67.73,12.06 91.16,36.26 23.42,24.2 35.13,54.68 35.13,91.44l0 54.19zm-60.18 -54.54c0,-23.49 -5.86,-42.69 -17.57,-57.71 -11.71,-15.03 -27.87,-22.51 -48.54,-22.51 -20.39,0 -36.27,7.48 -47.7,22.51 -11.35,15.02 -17,34.22 -17,57.71l0 54.54c0,23.85 5.72,43.25 17.15,58.28 11.43,15.03 27.44,22.5 47.97,22.5 20.68,0 36.76,-7.47 48.33,-22.5 11.57,-15.03 17.36,-34.43 17.36,-58.28l0 -54.54zm340.28 78.32l0.43 1.2c0.49,32.17 -9.25,57.29 -29.35,75.49 -20.18,18.2 -47.91,27.23 -83.33,27.3 -36.12,-0.07 -65.26,-11.64 -87.42,-34.85 -22.22,-23.21 -33.3,-53.27 -33.3,-90.03l0 -59.76c0,-36.62 10.8,-66.67 32.46,-90.03 21.66,-23.35 50.02,-34.99 85.16,-34.99 36.68,0 65.33,8.96 86,26.88 20.68,17.92 30.69,43.11 30.2,75.63l-0.42 1.27 -58.7 0c0,-19.33 -4.66,-33.72 -13.97,-43.1 -9.32,-9.46 -23.71,-14.19 -43.11,-14.19 -18.07,0 -32.18,7.27 -42.27,21.81 -10.16,14.53 -15.17,33.3 -15.17,56.3l0 60.18c0,23.14 5.3,42.05 16.02,56.66 10.65,14.6 25.47,21.87 44.52,21.87 18.06,0 31.54,-4.73 40.43,-14.11 8.89,-9.46 13.33,-23.99 13.33,-43.53l58.49 0zm187.26 -61.81c-9.1,-12.42 -15.88,-23.78 -20.32,-34.01 -4.38,-10.3 -6.56,-20.67 -6.56,-31.32 0,-25.05 7.26,-44.45 21.87,-58.07 14.6,-13.62 34.64,-20.46 60.18,-20.46 21.87,0 39.73,6.77 53.41,20.32 13.69,13.62 20.61,30.05 20.61,49.32 0,14.32 -2.97,26.74 -8.82,37.18 -5.86,10.51 -14.47,20.25 -25.97,29.21l-21.02 14.82 55.81 65.12c4.93,-8.12 8.81,-17.01 11.57,-26.67 2.75,-9.6 4.09,-19.83 4.09,-30.55l48.19 0c0,19.54 -2.47,37.46 -7.34,53.76 -4.87,16.23 -12.49,30.62 -22.86,43.18l41.56 48.54 -0.43 1.06 -66.95 0 -15.95 -18.41c-11.71,7.62 -23.78,13.26 -36.12,17.07 -12.42,3.81 -25.76,5.64 -39.94,5.71 -30.05,-0.07 -53.9,-7.9 -71.68,-23.7 -17.78,-15.81 -26.67,-36.34 -26.67,-61.67 0,-16.72 4.37,-30.9 13.12,-42.68 8.75,-11.79 22.16,-24.41 40.22,-37.75zm48.12 119.45c7.34,0 14.6,-0.92 21.94,-2.75 7.27,-1.91 14.32,-4.66 21.1,-8.4l-61.03 -70.69 -1.84 1.48c-8.11,6.56 -13.69,13.05 -16.72,19.4 -3.03,6.35 -4.59,12.63 -4.59,18.84 0,12.2 3.81,22.29 11.36,30.27 7.62,7.9 17.5,11.85 29.78,11.85zm-21.1 -185.42c0,5.79 1.41,11.71 4.16,17.78 2.76,6.07 6.99,12.7 12.63,19.83l15.67 -10.09c7.76,-4.94 12.91,-10.09 15.66,-15.31 2.68,-5.22 4.02,-10.94 4.02,-17.15 0,-7.05 -2.33,-13.19 -6.84,-18.48 -4.52,-5.29 -10.8,-7.98 -18.84,-7.98 -8.26,0 -14.75,3.04 -19.4,9.11 -4.66,6.06 -7.06,13.47 -7.06,22.29zm561.62 227.4l-60.39 0 0 -125.02 -122.56 0 0 125.02 -60.32 0 0 -300.99 60.32 0 0 129.4 122.56 0 0 -129.4 60.39 0 0 300.99zm212.23 -78.53c0,-11.57 -4.02,-20.88 -12.06,-27.94 -8.05,-6.98 -22.23,-13.61 -42.48,-19.82 -34.71,-10.52 -61.1,-22.79 -79.09,-36.97 -17.99,-14.26 -26.95,-33.59 -26.95,-58.14 0,-24.63 10.09,-44.8 30.41,-60.47 20.25,-15.59 46.07,-23.42 77.47,-23.42 33.37,0 60.18,8.39 80.5,25.19 20.32,16.86 30.2,38.87 29.49,66.18l-0.42 1.2 -58.49 0c0,-15.03 -4.59,-26.53 -13.69,-34.58 -9.1,-8.11 -21.8,-12.13 -38.24,-12.13 -14.82,0 -26.39,3.6 -34.5,10.79 -8.11,7.13 -12.21,16.3 -12.21,27.45 0,10.23 4.45,18.56 13.27,25.12 8.82,6.56 24.06,13.47 45.65,20.81 33.09,9.31 58.28,21.59 75.7,36.69 17.36,15.1 26.04,34.92 26.04,59.62 0,25.75 -10.09,46.07 -30.2,60.96 -20.11,14.89 -46.71,22.29 -79.8,22.36 -32.38,-0.07 -60.18,-8.11 -83.39,-24.2 -23.22,-16.15 -34.51,-40.21 -33.8,-72.17l0.42 -1.2 58.49 0c0,17.78 5.22,30.83 15.74,39.23 10.44,8.39 24.62,12.62 42.54,12.62 16.16,0 28.44,-3.38 36.9,-10.16 8.47,-6.7 12.7,-15.73 12.7,-27.02zm276.79 -53.76l-111.62 0 0 86.01 132.72 0 0 46.28 -193.04 0 0 -300.99 192.61 0 0 46.57 -132.29 0 0 75.63 111.62 0 0 46.5z"/>
   <g>
    <polygon class="fil2" points="14133.12,1 18633.12,1 18633.12,1500.99 14133.12,1500.99 "/>
    <path class="fil1" d="M14545.37 569.84l0 115.76 -63.98 0 0 -319.22 122.05 0c36.74,0 65.55,9.35 86.65,28.06 21.03,18.7 31.58,43.32 31.58,73.93 0,30.53 -10.55,55.07 -31.58,73.63 -21.1,18.56 -49.91,27.84 -86.65,27.84l-58.07 0zm0 -49.31l58.07 0c17.88,0 31.35,-4.87 40.55,-14.6 9.21,-9.72 13.85,-22.07 13.85,-37.11 0,-15.42 -4.57,-28.06 -13.7,-38.09 -9.13,-10.03 -22.67,-14.97 -40.7,-14.97l-58.07 0 0 104.77zm480.11 165.07l-64.05 0 0 -132.6 -129.98 0 0 132.6 -63.98 0 0 -319.22 63.98 0 0 137.23 129.98 0 0 -137.23 64.05 0 0 319.22zm316.99 -130.88c0,39.29 -12.35,71.69 -37.04,97.21 -24.7,25.51 -56.88,38.23 -96.46,38.31 -39.51,-0.08 -71.54,-12.8 -96.08,-38.39 -24.55,-25.59 -36.82,-57.99 -36.82,-97.13l0 -57.47c0,-38.98 12.27,-71.31 36.74,-96.98 24.47,-25.66 56.35,-38.46 95.71,-38.46 39.59,0 71.84,12.8 96.68,38.46 24.84,25.67 37.27,58 37.27,96.98l0 57.47zm-63.83 -57.84c0,-24.92 -6.21,-45.27 -18.64,-61.21 -12.42,-15.94 -29.55,-23.87 -51.48,-23.87 -21.63,0 -38.46,7.93 -50.58,23.87 -12.05,15.94 -18.04,36.29 -18.04,61.21l0 57.84c0,25.29 6.06,45.87 18.19,61.81 12.12,15.94 29.1,23.87 50.88,23.87 21.92,0 38.99,-7.93 51.26,-23.87 12.27,-15.94 18.41,-36.52 18.41,-61.81l0 -57.84zm-38.54 -166.57l-55 0 -59.64 -57.02 0.45 -1.28 71.24 0 42.95 58.3zm411.04 355.29l-64.05 0 -128.64 -215.29 -1.34 0.23 0 215.06 -63.98 0 0 -319.22 63.98 0 128.71 215.06 1.27 -0.23 0 -214.83 64.05 0 0 319.22zm303.37 -43.63c-9.95,13.02 -24.77,24.32 -44.53,33.9 -19.68,9.58 -45.12,14.29 -76.25,14.37 -38.61,-0.08 -70.19,-12.2 -94.73,-36.44 -24.55,-24.25 -36.82,-55.75 -36.82,-94.51l0 -66.6c0,-38.61 11.9,-70.04 35.77,-94.36 23.8,-24.4 54.4,-36.52 91.82,-36.52 39.06,0 68.91,9.2 89.64,27.69 20.8,18.56 30.83,43.17 30.08,74l-0.45 1.35 -60.31 0c0,-16.98 -4.86,-30.16 -14.66,-39.58 -9.81,-9.43 -24.03,-14.15 -42.73,-14.15 -19.61,0 -35.4,7.56 -47.37,22.68 -11.97,15.11 -17.96,34.64 -17.96,58.44l0 67.05c0,24.17 6.14,43.77 18.41,59.04 12.27,15.19 28.73,22.75 49.31,22.75 15.19,0 27.24,-1.5 36.07,-4.57 8.83,-3.07 15.64,-6.96 20.5,-11.67l0 -61.81 -61.43 0 0 -44.23 125.64 0 0 123.17zm-537.38 411.28c-9.66,-13.17 -16.84,-25.22 -21.55,-36.07 -4.64,-10.92 -6.96,-21.92 -6.96,-33.22 0,-26.57 7.7,-47.15 23.19,-61.59 15.49,-14.44 36.74,-21.7 63.83,-21.7 23.2,0 42.13,7.18 56.65,21.55 14.52,14.44 21.85,31.88 21.85,52.31 0,15.19 -3.14,28.36 -9.35,39.43 -6.21,11.15 -15.34,21.48 -27.54,30.98l-22.3 15.72 59.19 69.07c5.24,-8.61 9.35,-18.04 12.27,-28.29 2.92,-10.18 4.34,-21.03 4.34,-32.4l51.11 0c0,20.73 -2.62,39.73 -7.78,57.02 -5.16,17.21 -13.25,32.47 -24.25,45.79l44.08 51.49 -0.45 1.12 -71.01 0 -16.92 -19.53c-12.42,8.08 -25.21,14.07 -38.31,18.11 -13.17,4.04 -27.31,5.98 -42.35,6.06 -31.88,-0.08 -57.17,-8.38 -76.03,-25.14 -18.86,-16.77 -28.29,-38.54 -28.29,-65.4 0,-17.74 4.64,-32.78 13.92,-45.28 9.28,-12.49 23.5,-25.89 42.66,-40.03zm51.03 126.69c7.78,0 15.49,-0.98 23.27,-2.92 7.71,-2.02 15.19,-4.94 22.38,-8.91l-64.73 -74.98 -1.95 1.57c-8.6,6.96 -14.51,13.85 -17.73,20.58 -3.22,6.74 -4.87,13.4 -4.87,19.98 0,12.95 4.05,23.65 12.05,32.1 8.08,8.39 18.56,12.58 31.58,12.58zm-22.37 -196.66c0,6.14 1.49,12.42 4.41,18.86 2.92,6.44 7.41,13.47 13.4,21.03l16.61 -10.7c8.23,-5.24 13.69,-10.7 16.61,-16.24 2.84,-5.54 4.27,-11.6 4.27,-18.19 0,-7.48 -2.47,-13.99 -7.26,-19.6 -4.79,-5.61 -11.45,-8.46 -19.98,-8.46 -8.76,0 -15.64,3.22 -20.58,9.66 -4.94,6.43 -7.48,14.29 -7.48,23.64zm1649.18 113.59l0 127.59 -63.98 0 0 -319.22 110.45 0c36.44,0 64.87,8.3 85.38,24.91 20.58,16.62 30.83,39.74 30.83,69.37 0,16.39 -4.34,30.53 -13.02,42.43 -8.76,11.9 -21.4,21.55 -38.09,28.81 18.86,5.54 32.4,14.89 40.71,27.84 8.23,13.02 12.34,29.1 12.34,48.26l0 23.42c0,8.91 1.2,18.26 3.67,27.99 2.4,9.73 6.51,16.91 12.35,21.55l0 4.64 -66 0c-5.84,-4.71 -9.58,-12.42 -11.3,-23.27 -1.65,-10.78 -2.47,-21.25 -2.47,-31.28l0 -22.6c0,-15.94 -4.34,-28.36 -13.1,-37.19 -8.68,-8.83 -20.95,-13.25 -36.89,-13.25l-50.88 0zm0 -49.31l45.34 0c18.04,0 31.36,-3.81 40.19,-11.45 8.75,-7.55 13.09,-18.85 13.09,-33.75 0,-14.59 -4.41,-26.19 -13.24,-34.87 -8.83,-8.6 -21.78,-12.87 -38.91,-12.87l-46.47 0 0 92.94zm290.49 176.9l-64.05 0 0 -319.22 64.05 0 0 319.22zm-1156.02 -625.44l3.89 17.51 1.34 0 3.75 -16.83 69.51 -233.32 67.5 0 -108.5 319.22 -65.78 0 -108.28 -319.22 67.5 0 69.07 232.64zm326.86 17.74l-103.49 0 -21.48 68.84 -66.82 0 107.6 -319.22 65.55 0 107.23 319.22 -66.89 0 -21.7 -68.84zm-87.71 -50.21l72.14 0 -35.24 -112.47 -1.35 0 -35.55 112.47zm116.59 -234.97l0 5.01 -50.88 0 -30.69 -29.18 -30.53 29.18 -49.76 0 0 -5.68 61.89 -52.61 37.04 0 62.93 53.28zm-44.75 431.62l-71.69 0 0 -52.83 71.69 0 0 52.83zm393.16 -77.6l-64.05 0 -128.64 -215.29 -1.34 0.23 0 215.06 -63.98 0 0 -319.22 63.98 0 128.71 215.06 1.27 -0.23 0 -214.83 64.05 0 0 319.22zm428.56 0l-64.05 0 0 -132.6 -129.98 0 0 132.6 -63.98 0 0 -319.22 63.98 0 0 137.23 129.98 0 0 -137.23 64.05 0 0 319.22zm229.08 -68.84l-103.49 0 -21.48 68.84 -66.83 0 107.61 -319.22 65.55 0 107.23 319.22 -66.89 0 -21.7 -68.84zm-87.71 -50.21l72.14 0 -35.24 -112.47 -1.35 0 -35.55 112.47zm65.56 -231.75l-55 0 -59.64 -57.02 0.45 -1.28 71.23 0 42.96 58.3zm399.44 350.8l-64.05 0 -128.64 -215.29 -1.34 0.23 0 215.06 -63.98 0 0 -319.22 63.98 0 128.71 215.06 1.27 -0.23 0 -214.83 64.05 0 0 319.22zm316.76 0l-64.05 0 0 -132.6 -129.98 0 0 132.6 -63.98 0 0 -319.22 63.98 0 0 137.23 129.98 0 0 -137.23 64.05 0 0 319.22zm-2501.86 538.86l0 -319.22 104.54 0c37.56,0 66.89,7.4 87.92,22.07 21.03,14.67 31.58,36.52 31.58,65.4 0,14.67 -3.82,27.69 -11.45,39.29 -7.56,11.52 -18.71,20.2 -33.3,26.04 19.91,3.66 34.87,12.27 44.97,25.89 10.03,13.62 15.12,29.48 15.12,47.59 0,30.53 -10.1,53.65 -30.23,69.37 -20.21,15.71 -48.79,23.57 -85.76,23.57l-123.39 0zm63.98 -141.2l0 92.11 59.41 0c16.99,0 29.86,-3.74 38.84,-11.07 8.9,-7.41 13.32,-18.34 13.32,-32.78 0,-15.49 -4.34,-27.39 -13.1,-35.77 -8.83,-8.3 -22,-12.49 -39.73,-12.49l-58.74 0zm0 -44.3l42.73 0c17.13,0 30.3,-3.45 39.51,-10.48 9.2,-7.03 13.76,-17.29 13.76,-30.68 0,-14.82 -4.63,-25.67 -13.91,-32.7 -9.28,-7.03 -23.13,-10.48 -41.53,-10.48l-40.56 0 0 84.34zm388.45 116.66l-103.49 0 -21.48 68.84 -66.82 0 107.6 -319.22 65.55 0 107.23 319.22 -66.89 0 -21.7 -68.84zm-87.71 -50.21l72.14 0 -35.24 -112.47 -1.35 0 -35.55 112.47zm11.38 -228.54l-3.52 -30c10.78,-0.45 18.48,-1.8 23.12,-3.97 4.57,-2.24 6.51,-5.54 5.77,-9.88l0 -1.34c0.74,-5.09 -1.58,-8.76 -6.96,-11.08 -5.47,-2.24 -13.02,-3.36 -22.83,-3.36l1.5 -29.19c27.09,0 47.74,3.82 62.11,11.45 14.29,7.56 21.48,18.03 21.48,31.35 0,9.36 -3.15,16.62 -9.43,21.93 -6.29,5.24 -14.15,8.53 -23.5,9.8l0 14.29 -47.74 0zm451.45 216.71c0,39.29 -12.35,71.69 -37.04,97.21 -24.7,25.51 -56.88,38.23 -96.46,38.31 -39.51,-0.08 -71.54,-12.8 -96.08,-38.39 -24.55,-25.59 -36.82,-57.99 -36.82,-97.13l0 -57.47c0,-38.98 12.27,-71.31 36.74,-96.98 24.47,-25.66 56.35,-38.46 95.71,-38.46 39.59,0 71.84,12.8 96.68,38.46 24.84,25.67 37.27,58 37.27,96.98l0 57.47zm-63.83 -57.84c0,-24.92 -6.21,-45.27 -18.64,-61.21 -12.42,-15.94 -29.55,-23.87 -51.48,-23.87 -21.63,0 -38.46,7.93 -50.58,23.87 -12.05,15.94 -18.04,36.29 -18.04,61.21l0 57.84c0,25.29 6.06,45.87 18.19,61.81 12.12,15.94 29.1,23.87 50.88,23.87 21.92,0 38.99,-7.93 51.26,-23.87 12.27,-15.94 18.41,-36.52 18.41,-61.81l0 -57.84zm448.76 -81.12l-91.22 0 0 269.84 -63.98 0 0 -269.84 -89.87 0 0 -49.38 245.07 0 0 49.38z"/>
    <polygon class="fil1" points="17393.32,853.51 17338.32,853.51 17278.68,796.49 17279.13,795.22 17350.37,795.22 "/>
   </g>
   <polygon class="fil6" points="21199.72,8000.99 25699.72,8000.99 25699.72,9500.98 21199.72,9500.98 "/>
   <polygon class="fil6" points="21199.72,6000.99 25699.72,6000.99 25699.72,7500.99 21199.72,7500.99 "/>
   <polygon class="fil6" points="21199.72,4000.99 25699.72,4000.99 25699.72,5500.99 21199.72,5500.99 "/>
   <polygon class="fil6" points="21199.72,2000.99 25699.72,2000.99 25699.72,3500.99 21199.72,3500.99 "/>
   <polygon class="fil6" points="21199.72,1 25699.72,1 25699.72,1500.99 21199.72,1500.99 "/>
   <path class="fil1" d="M23134.11 655.3l0 -134.76 -28.15 0 0 -37.39 28.15 0 0 -128.84 104.98 0c36.76,0 67.1,11.79 90.95,35.28 23.85,23.49 35.77,53.62 35.77,90.45l0 49.81c0,36.9 -11.92,67.03 -35.77,90.38 -23.85,23.36 -54.19,35.07 -90.95,35.07l-104.98 0zm110.56 -134.76l-50.24 0 0 88.48 44.66 0c19.83,0 35.85,-7.41 47.98,-22.23 12.07,-14.82 18.13,-33.79 18.13,-56.94l0 -50.23c0,-23 -6.06,-41.91 -18.13,-56.66 -12.13,-14.74 -28.15,-22.08 -47.98,-22.08l-44.66 0 0 82.27 50.24 0 0 37.39zm413.02 11.36c0,37.04 -11.64,67.59 -34.92,91.65 -23.28,24.06 -53.62,36.05 -90.95,36.12 -37.25,-0.07 -67.45,-12.06 -90.59,-36.19 -23.14,-24.13 -34.71,-54.68 -34.71,-91.58l0 -54.19c0,-36.76 11.57,-67.24 34.64,-91.44 23.07,-24.2 53.13,-36.26 90.24,-36.26 37.32,0 67.73,12.06 91.16,36.26 23.42,24.2 35.13,54.68 35.13,91.44l0 54.19zm-60.18 -54.54c0,-23.49 -5.86,-42.69 -17.57,-57.71 -11.71,-15.03 -27.87,-22.51 -48.54,-22.51 -20.39,0 -36.27,7.48 -47.7,22.51 -11.35,15.02 -17,34.22 -17,57.71l0 54.54c0,23.85 5.72,43.25 17.15,58.28 11.43,15.03 27.44,22.5 47.97,22.5 20.68,0 36.76,-7.47 48.33,-22.5 11.57,-15.03 17.36,-34.43 17.36,-58.28l0 -54.54zm11.78 -160.09l0 4.73 -47.97 0 -28.93 -27.52 -28.79 27.52 -46.92 0 0 -5.36 58.35 -49.6 34.93 0 59.33 50.23zm-43.04 412.89l-67.59 0 0 -49.81 67.59 0 0 49.81zm203.7 -74.86l-60.4 0 0 -300.99 60.4 0 0 300.99zm-1199.5 313.75l56.44 -106.68 70.27 0 -89.25 149.3 94.47 151.69 -73.02 0 -58.07 -108.51 -58.07 108.51 -70.48 0 91.58 -151.69 -89.32 -149.3 69.85 0 55.6 106.68zm319.75 129.4l-97.58 0 -20.24 64.91 -63.01 0 101.46 -300.99 61.8 0 101.11 300.99 -63.08 0 -20.46 -64.91zm-82.69 -47.34l68.02 0 -33.23 -106.05 -1.27 0 -33.52 106.05zm109.93 -221.55l0 4.73 -47.98 0 -28.93 -27.51 -28.79 27.51 -46.91 0 0 -5.36 58.34 -49.6 34.93 0 59.34 50.23zm151.33 171.52l1.27 0 65.76 -138.71 66.11 0 -103.15 195.16 0 105.83 -60.33 0 0 -108.94 -101.52 -192.05 66.18 0 65.68 138.71zm268.54 162.28l0 -300.99 104.98 0c36.76,0 67.1,11.79 90.95,35.28 23.85,23.49 35.77,53.62 35.77,90.45l0 49.81c0,36.9 -11.92,67.03 -35.77,90.38 -23.85,23.36 -54.19,35.07 -90.95,35.07l-104.98 0zm60.32 -254.42l0 208.14 44.66 0c19.83,0 35.85,-7.41 47.98,-22.23 12.07,-14.82 18.13,-33.79 18.13,-56.94l0 -50.23c0,-23 -6.06,-41.91 -18.13,-56.66 -12.13,-14.74 -28.15,-22.08 -47.98,-22.08l-44.66 0zm458.25 -46.57l0 37.47 1.27 0.21c11.43,-2.82 19.62,-9.95 24.63,-21.52 4.94,-11.57 7.41,-27.38 7.41,-47.34l44.45 0c0,31.82 -6.28,56.93 -18.91,75.21 -12.63,18.34 -32.25,29.42 -58.85,33.3l0 119.66c0,33.94 -11.21,60.47 -33.65,79.59 -22.44,19.19 -51.58,28.71 -87.42,28.78 -35.7,-0.07 -64.7,-9.59 -86.92,-28.78 -22.3,-19.12 -33.37,-45.65 -33.37,-79.59l0 -196.99 60.53 0 0 196.99c0,20.18 5.36,35.49 16.09,46.14 10.79,10.59 25.33,15.88 43.67,15.88 18.56,0 33.3,-5.29 44.24,-15.88 10.87,-10.65 16.3,-25.96 16.3,-46.14l0 -196.99 60.53 0zm-83.89 375.85l-67.59 0 0 -49.81 67.59 0 0 49.81zm390.45 -74.86l-60.39 0 -121.29 -202.99 -1.27 0.21 0 202.78 -60.32 0 0 -300.99 60.32 0 121.36 202.78 1.2 -0.21 0 -202.57 60.39 0 0 300.99zm286.03 -41.13c-9.38,12.27 -23.35,22.93 -41.98,31.96 -18.55,9.03 -42.54,13.47 -71.89,13.54 -36.41,-0.07 -66.18,-11.5 -89.33,-34.36 -23.14,-22.86 -34.71,-52.56 -34.71,-89.11l0 -62.79c0,-36.41 11.22,-66.04 33.73,-88.97 22.43,-23 51.29,-34.43 86.57,-34.43 36.83,0 64.98,8.68 84.52,26.1 19.62,17.5 29.07,40.71 28.37,69.78l-0.43 1.27 -56.87 0c0,-16.01 -4.58,-28.43 -13.82,-37.32 -9.25,-8.89 -22.65,-13.34 -40.29,-13.34 -18.49,0 -33.37,7.13 -44.66,21.38 -11.29,14.25 -16.94,32.67 -16.94,55.11l0 63.21c0,22.79 5.79,41.28 17.36,55.67 11.57,14.32 27.09,21.45 46.5,21.45 14.32,0 25.68,-1.41 34,-4.3 8.33,-2.9 14.75,-6.57 19.34,-11.01l0 -58.28 -57.93 0 0 -41.7 118.46 0 0 116.14z"/>
   <path class="fil1" d="M23121.07 2655.29l0 -134.76 -28.15 0 0 -37.39 28.15 0 0 -128.84 104.98 0c36.76,0 67.1,11.79 90.95,35.28 23.85,23.49 35.77,53.62 35.77,90.45l0 49.81c0,36.9 -11.92,67.03 -35.77,90.38 -23.85,23.36 -54.19,35.07 -90.95,35.07l-104.98 0zm110.56 -134.76l-50.24 0 0 88.48 44.66 0c19.83,0 35.85,-7.41 47.98,-22.23 12.07,-14.82 18.13,-33.79 18.13,-56.94l0 -50.23c0,-23 -6.06,-41.91 -18.13,-56.66 -12.13,-14.74 -28.15,-22.08 -47.98,-22.08l-44.66 0 0 82.27 50.24 0 0 37.39zm413.02 11.36c0,37.04 -11.64,67.59 -34.92,91.65 -23.28,24.06 -53.62,36.05 -90.95,36.12 -37.25,-0.07 -67.45,-12.06 -90.59,-36.19 -23.14,-24.13 -34.71,-54.68 -34.71,-91.58l0 -54.19c0,-36.76 11.57,-67.24 34.64,-91.44 23.07,-24.2 53.13,-36.26 90.24,-36.26 37.32,0 67.73,12.06 91.16,36.26 23.42,24.2 35.13,54.68 35.13,91.44l0 54.19zm-60.18 -54.54c0,-23.49 -5.86,-42.69 -17.57,-57.71 -11.71,-15.03 -27.87,-22.51 -48.54,-22.51 -20.39,0 -36.27,7.48 -47.7,22.51 -11.35,15.02 -17,34.22 -17,57.71l0 54.54c0,23.85 5.72,43.25 17.15,58.28 11.43,15.03 27.44,22.5 47.97,22.5 20.68,0 36.76,-7.47 48.33,-22.5 11.57,-15.03 17.36,-34.43 17.36,-58.28l0 -54.54zm11.78 -160.09l0 4.73 -47.97 0 -28.93 -27.52 -28.79 27.52 -46.92 0 0 -5.36 58.35 -49.6 34.93 0 59.33 50.23zm-43.04 412.89l-67.59 0 0 -49.81 67.59 0 0 49.81zm203.7 -74.86l-60.4 0 0 -300.99 60.4 0 0 300.99zm-744.33 408.44l0.43 1.2c0.49,32.17 -9.25,57.29 -29.35,75.49 -20.18,18.2 -47.91,27.23 -83.33,27.3 -36.12,-0.07 -65.26,-11.64 -87.42,-34.85 -22.22,-23.21 -33.3,-53.27 -33.3,-90.03l0 -59.76c0,-36.62 10.8,-66.67 32.46,-90.03 21.66,-23.35 50.02,-34.99 85.16,-34.99 36.68,0 65.33,8.96 86,26.88 20.68,17.92 30.69,43.11 30.2,75.63l-0.42 1.27 -58.7 0c0,-19.33 -4.66,-33.72 -13.97,-43.1 -9.32,-9.46 -23.71,-14.19 -43.11,-14.19 -18.07,0 -32.18,7.27 -42.27,21.81 -10.16,14.53 -15.17,33.3 -15.17,56.3l0 60.18c0,23.14 5.3,42.05 16.02,56.66 10.65,14.6 25.47,21.87 44.52,21.87 18.06,0 31.54,-4.73 40.43,-14.11 8.89,-9.46 13.33,-23.99 13.33,-43.53l58.49 0zm286.04 -23.78c0,37.04 -11.65,67.59 -34.93,91.65 -23.28,24.06 -53.62,36.05 -90.95,36.12 -37.18,-0.07 -67.38,-12.06 -90.52,-36.19 -23.14,-24.13 -34.71,-54.68 -34.71,-91.58l0 -54.19c0,-36.76 11.5,-67.24 34.57,-91.44 23.07,-24.2 53.2,-36.26 90.24,-36.26 18.35,0 35.35,3.17 50.94,9.59 15.67,6.42 29.14,15.38 40.43,26.96 14.04,-3.81 24.77,-11.36 32.03,-22.58 7.34,-11.29 10.94,-25.54 10.94,-42.9l44.66 0c0,26.32 -5.43,48.19 -16.3,65.62 -10.93,17.42 -26.53,29.7 -46.92,36.9 3.46,8.25 6.07,16.93 7.83,26.03 1.77,9.1 2.69,18.49 2.69,28.08l0 54.19zm-60.12 -54.54c0,-23.49 -5.85,-42.69 -17.57,-57.71 -11.71,-15.03 -27.94,-22.51 -48.61,-22.51 -20.39,0 -36.26,7.48 -47.62,22.51 -11.36,15.02 -17.08,34.22 -17.08,57.71l0 54.54c0,23.85 5.72,43.25 17.15,58.28 11.43,15.03 27.44,22.5 47.97,22.5 20.68,0 36.76,-7.47 48.34,-22.5 11.64,-15.03 17.42,-34.43 17.42,-58.28l0 -54.54zm302.19 52.28l-22.16 0 0 125.66 -60.32 0 0 -300.99 60.32 0 0 123.05 16.94 0 82.47 -123.05 74.65 0 -104.21 139.98 112.26 161.01 -76.91 0 -83.04 -125.66zm430.52 125.66l-60.39 0 0 -125.02 -122.56 0 0 125.02 -60.32 0 0 -300.99 60.32 0 0 129.4 122.56 0 0 -129.4 60.39 0 0 300.99zm119.88 0l-60.4 0 0 -300.99 60.4 0 0 300.99zm-18.42 -385.72l67.17 0 0.42 1.2 -57.29 53.76 -51.43 0 41.13 -54.96z"/>
   <path class="fil1" d="M23134.1 6655.3l0 -134.76 -28.15 0 0 -37.39 28.15 0 0 -128.84 104.98 0c36.76,0 67.1,11.79 90.95,35.28 23.85,23.49 35.77,53.62 35.77,90.45l0 49.81c0,36.9 -11.92,67.03 -35.77,90.38 -23.85,23.36 -54.19,35.07 -90.95,35.07l-104.98 0zm110.56 -134.76l-50.24 0 0 88.48 44.66 0c19.83,0 35.85,-7.41 47.98,-22.23 12.07,-14.82 18.13,-33.79 18.13,-56.94l0 -50.23c0,-23 -6.06,-41.91 -18.13,-56.66 -12.13,-14.74 -28.15,-22.08 -47.98,-22.08l-44.66 0 0 82.27 50.24 0 0 37.39zm413.02 11.36c0,37.04 -11.64,67.59 -34.92,91.65 -23.28,24.06 -53.62,36.05 -90.95,36.12 -37.25,-0.07 -67.45,-12.06 -90.59,-36.19 -23.14,-24.13 -34.71,-54.68 -34.71,-91.58l0 -54.19c0,-36.76 11.57,-67.24 34.64,-91.44 23.07,-24.2 53.13,-36.26 90.24,-36.26 37.32,0 67.73,12.06 91.16,36.26 23.42,24.2 35.13,54.68 35.13,91.44l0 54.19zm-60.18 -54.54c0,-23.49 -5.86,-42.69 -17.57,-57.71 -11.71,-15.03 -27.87,-22.51 -48.54,-22.51 -20.39,0 -36.27,7.48 -47.7,22.51 -11.35,15.02 -17,34.22 -17,57.71l0 54.54c0,23.85 5.72,43.25 17.15,58.28 11.43,15.03 27.44,22.5 47.97,22.5 20.68,0 36.76,-7.47 48.33,-22.5 11.57,-15.03 17.36,-34.43 17.36,-58.28l0 -54.54zm11.78 -160.09l0 4.73 -47.97 0 -28.93 -27.52 -28.79 27.52 -46.92 0 0 -5.36 58.35 -49.6 34.93 0 59.33 50.23zm-43.04 412.89l-67.59 0 0 -49.81 67.59 0 0 49.81zm203.7 -74.86l-60.4 0 0 -300.99 60.4 0 0 300.99zm-1233.67 426.43l3.67 16.51 1.27 0 3.53 -15.88 65.55 -219.99 63.64 0 -102.31 300.99 -62.02 0 -102.09 -300.99 63.64 0 65.12 219.36zm308.19 16.72l-97.58 0 -20.24 64.91 -63.01 0 101.46 -300.99 61.8 0 101.11 300.99 -63.08 0 -20.46 -64.91zm-82.69 -47.34l68.02 0 -33.23 -106.05 -1.27 0 -33.52 106.05zm109.93 -221.55l0 4.73 -47.98 0 -28.93 -27.51 -28.79 27.51 -46.91 0 0 -5.36 58.34 -49.6 34.93 0 59.34 50.23zm-42.2 406.97l-67.59 0 0 -49.82 67.59 0 0 49.82zm370.7 -73.17l-60.39 0 -121.29 -202.99 -1.27 0.21 0 202.78 -60.32 0 0 -300.99 60.32 0 121.36 202.78 1.2 -0.21 0 -202.57 60.39 0 0 300.99zm404.07 0l-60.39 0 0 -125.02 -122.56 0 0 125.02 -60.32 0 0 -300.99 60.32 0 0 129.4 122.56 0 0 -129.4 60.39 0 0 300.99zm215.97 -64.91l-97.58 0 -20.24 64.91 -63.01 0 101.46 -300.99 61.8 0 101.11 300.99 -63.08 0 -20.46 -64.91zm-82.69 -47.34l68.02 0 -33.23 -106.05 -1.27 0 -33.52 106.05zm61.81 -218.51l-51.86 0 -56.23 -53.76 0.42 -1.2 67.17 0 40.5 54.96zm376.62 330.76l-60.39 0 -121.29 -202.99 -1.27 0.21 0 202.78 -60.32 0 0 -300.99 60.32 0 121.36 202.78 1.2 -0.21 0 -202.57 60.39 0 0 300.99zm298.66 0l-60.39 0 0 -125.02 -122.56 0 0 125.02 -60.32 0 0 -300.99 60.32 0 0 129.4 122.56 0 0 -129.4 60.39 0 0 300.99z"/>
   <path class="fil1" d="M23121.07 4655.3l0 -134.76 -28.15 0 0 -37.39 28.15 0 0 -128.84 104.98 0c36.76,0 67.1,11.79 90.95,35.28 23.85,23.49 35.77,53.62 35.77,90.45l0 49.81c0,36.9 -11.92,67.03 -35.77,90.38 -23.85,23.36 -54.19,35.07 -90.95,35.07l-104.98 0zm110.56 -134.76l-50.24 0 0 88.48 44.66 0c19.83,0 35.85,-7.41 47.98,-22.23 12.07,-14.82 18.13,-33.79 18.13,-56.94l0 -50.23c0,-23 -6.06,-41.91 -18.13,-56.66 -12.13,-14.74 -28.15,-22.08 -47.98,-22.08l-44.66 0 0 82.27 50.24 0 0 37.39zm413.02 11.36c0,37.04 -11.64,67.59 -34.92,91.65 -23.28,24.06 -53.62,36.05 -90.95,36.12 -37.25,-0.07 -67.45,-12.06 -90.59,-36.19 -23.14,-24.13 -34.71,-54.68 -34.71,-91.58l0 -54.19c0,-36.76 11.57,-67.24 34.64,-91.44 23.07,-24.2 53.13,-36.26 90.24,-36.26 37.32,0 67.73,12.06 91.16,36.26 23.42,24.2 35.13,54.68 35.13,91.44l0 54.19zm-60.18 -54.54c0,-23.49 -5.86,-42.69 -17.57,-57.71 -11.71,-15.03 -27.87,-22.51 -48.54,-22.51 -20.39,0 -36.27,7.48 -47.7,22.51 -11.35,15.02 -17,34.22 -17,57.71l0 54.54c0,23.85 5.72,43.25 17.15,58.28 11.43,15.03 27.44,22.5 47.97,22.5 20.68,0 36.76,-7.47 48.33,-22.5 11.57,-15.03 17.36,-34.43 17.36,-58.28l0 -54.54zm11.78 -160.09l0 4.73 -47.97 0 -28.93 -27.52 -28.79 27.52 -46.92 0 0 -5.36 58.35 -49.6 34.93 0 59.33 50.23zm-43.04 412.89l-67.59 0 0 -49.81 67.59 0 0 49.81zm203.7 -74.86l-60.4 0 0 -300.99 60.4 0 0 300.99zm-757.27 508.06l0 -134.76 -28.15 0 0 -37.39 28.15 0 0 -128.84 104.98 0c36.76,0 67.1,11.79 90.95,35.28 23.85,23.49 35.77,53.62 35.77,90.45l0 49.81c0,36.9 -11.92,67.03 -35.77,90.38 -23.85,23.36 -54.19,35.07 -90.95,35.07l-104.98 0zm110.56 -134.76l-50.24 0 0 88.48 44.66 0c19.83,0 35.85,-7.41 47.98,-22.23 12.07,-14.82 18.13,-33.79 18.13,-56.94l0 -50.23c0,-23 -6.06,-41.91 -18.13,-56.66 -12.13,-14.74 -28.15,-22.08 -47.98,-22.08l-44.66 0 0 82.27 50.24 0 0 37.39zm234.03 134.76l-60.4 0 0 -300.99 60.4 0 0 300.99zm231.7 -132.29l-111.62 0 0 86.01 132.72 0 0 46.28 -193.04 0 0 -300.99 192.61 0 0 46.57 -132.29 0 0 75.63 111.62 0 0 46.5zm1.55 -201.51l0 4.73 -47.97 0 -28.93 -27.51 -28.79 27.51 -46.92 0 0 -5.36 58.35 -49.6 34.93 0 59.33 50.23zm-43.04 404.85l-67.59 0 0 -49.81 67.59 0 0 49.81zm348.26 -71.05l-60.39 0 -121.29 -202.99 -1.27 0.21 0 202.78 -60.32 0 0 -300.99 60.32 0 121.36 202.78 1.2 -0.21 0 -202.57 60.39 0 0 300.99z"/>
   <path class="fil1" d="M22752.2 8612.2c-9.38,12.27 -23.35,22.93 -41.98,31.96 -18.55,9.03 -42.54,13.47 -71.89,13.54 -36.41,-0.07 -66.18,-11.5 -89.33,-34.36 -23.14,-22.86 -34.71,-52.56 -34.71,-89.11l0 -62.79c0,-36.41 11.22,-66.04 33.73,-88.97 22.43,-23 51.29,-34.43 86.57,-34.43 36.83,0 64.98,8.68 84.52,26.1 19.62,17.5 29.07,40.71 28.37,69.78l-0.43 1.27 -56.87 0c0,-16.01 -4.58,-28.43 -13.82,-37.32 -9.25,-8.89 -22.65,-13.34 -40.29,-13.34 -18.49,0 -33.37,7.13 -44.66,21.38 -11.29,14.25 -16.94,32.67 -16.94,55.11l0 63.21c0,22.79 5.79,41.28 17.36,55.67 11.57,14.32 27.09,21.45 46.5,21.45 14.32,0 25.68,-1.41 34,-4.3 8.33,-2.9 14.75,-6.57 19.34,-11.01l0 -58.28 -57.93 0 0 -41.7 118.46 0 0 116.14zm115.79 41.13l-60.4 0 0 -300.99 60.4 0 0 300.99zm220.34 -64.91l-97.58 0 -20.24 64.91 -63.01 0 101.46 -300.99 61.8 0 101.11 300.99 -63.08 0 -20.46 -64.91zm-82.69 -47.34l68.02 0 -33.23 -106.05 -1.27 0 -33.52 106.05zm45.16 -273.47l67.16 0 0.43 1.2 -57.29 53.76 -51.44 0 41.14 -54.96zm305.64 306.56l1.2 0 77.33 -221.83 78.74 0 0 300.99 -60.32 0 0 -205.46 -1.27 -0.21 -74.44 205.67 -40.92 0 -74.37 -206.09 -1.27 0.21 0 205.88 -60.32 0 0 -300.99 79.16 0 76.48 221.83zm474.98 0.63c0,-11.57 -4.02,-20.88 -12.06,-27.94 -8.05,-6.98 -22.23,-13.61 -42.48,-19.82 -34.71,-10.52 -61.1,-22.79 -79.09,-36.97 -17.99,-14.26 -26.95,-33.59 -26.95,-58.14 0,-24.63 10.09,-44.8 30.41,-60.47 20.25,-15.59 46.07,-23.42 77.47,-23.42 33.37,0 60.18,8.39 80.5,25.19 20.32,16.86 30.2,38.87 29.49,66.18l-0.42 1.2 -58.49 0c0,-15.03 -4.59,-26.53 -13.69,-34.58 -9.1,-8.11 -21.8,-12.13 -38.24,-12.13 -14.82,0 -26.39,3.6 -34.5,10.79 -8.11,7.13 -12.21,16.3 -12.21,27.45 0,10.23 4.45,18.56 13.27,25.12 8.82,6.56 24.06,13.47 45.65,20.81 33.09,9.31 58.28,21.59 75.7,36.69 17.36,15.1 26.04,34.92 26.04,59.62 0,25.75 -10.09,46.07 -30.2,60.96 -20.11,14.89 -46.71,22.29 -79.8,22.36 -32.38,-0.07 -60.18,-8.11 -83.39,-24.2 -23.22,-16.15 -34.51,-40.21 -33.8,-72.17l0.42 -1.2 58.49 0c0,17.78 5.22,30.83 15.74,39.23 10.44,8.39 24.62,12.62 42.54,12.62 16.16,0 28.44,-3.38 36.9,-10.16 8.47,-6.7 12.7,-15.73 12.7,-27.02zm261.69 13.62l-97.58 0 -20.24 64.91 -63.01 0 101.46 -300.99 61.8 0 101.11 300.99 -63.08 0 -20.46 -64.91zm-82.69 -47.34l68.02 0 -33.23 -106.05 -1.27 0 -33.52 106.05zm45.16 -273.47l67.16 0 0.43 1.2 -57.29 53.76 -51.44 0 41.14 -54.96zm341.35 131.3l-86.01 0 0 254.42 -60.32 0 0 -254.42 -84.74 0 0 -46.57 231.07 0 0 46.57zm-1646.95 697.57l-97.58 0 -20.24 64.91 -63.01 0 101.46 -300.99 61.8 0 101.11 300.99 -63.08 0 -20.46 -64.91zm-82.69 -47.34l68.02 0 -33.23 -106.05 -1.27 0 -33.52 106.05zm438.43 112.25l-60.39 0 -121.29 -202.99 -1.27 0.21 0 202.78 -60.32 0 0 -300.99 60.32 0 121.36 202.78 1.2 -0.21 0 -202.57 60.39 0 0 300.99zm370.56 -254.42l-86.01 0 0 254.42 -60.32 0 0 -254.42 -84.74 0 0 -46.57 231.07 0 0 46.57zm270.78 131.02c0,37.04 -11.64,67.59 -34.92,91.65 -23.28,24.06 -53.62,36.05 -90.95,36.12 -37.25,-0.07 -67.45,-12.06 -90.59,-36.19 -23.14,-24.13 -34.71,-54.68 -34.71,-91.58l0 -54.19c0,-36.76 11.57,-67.24 34.64,-91.44 23.07,-24.2 53.13,-36.26 90.24,-36.26 37.32,0 67.73,12.06 91.16,36.26 23.42,24.2 35.13,54.68 35.13,91.44l0 54.19zm-60.18 -54.54c0,-23.49 -5.86,-42.69 -17.57,-57.71 -11.71,-15.03 -27.87,-22.51 -48.54,-22.51 -20.39,0 -36.27,7.48 -47.7,22.51 -11.35,15.02 -17,34.22 -17,57.71l0 54.54c0,23.85 5.72,43.25 17.15,58.28 11.43,15.03 27.44,22.5 47.97,22.5 20.68,0 36.76,-7.47 48.33,-22.5 11.57,-15.03 17.36,-34.43 17.36,-58.28l0 -54.54zm260.42 113.03l-97.58 0 -20.24 64.91 -63.01 0 101.46 -300.99 61.8 0 101.11 300.99 -63.08 0 -20.46 -64.91zm-82.69 -47.34l68.02 0 -33.23 -106.05 -1.27 0 -33.52 106.05zm61.81 -218.51l-51.86 0 -56.23 -53.76 0.42 -1.2 67.17 0 40.5 54.96zm376.62 330.76l-60.39 0 -121.29 -202.99 -1.27 0.21 0 202.78 -60.32 0 0 -300.99 60.32 0 121.36 202.78 1.2 -0.21 0 -202.57 60.39 0 0 300.99z"/>
   <g>
    <g>
     <polygon class="fil0" points="19739.57,4768.67 19739.57,4733.31 20800.29,4733.31 20800.29,4768.67 "/>
     <path class="fil0" d="M20658.86 4750.99c0,-39.05 31.66,-70.71 70.71,-70.71 39.05,0 70.72,31.66 70.72,70.71 0,39.05 -31.67,70.71 -70.72,70.71 -39.05,0 -70.71,-31.66 -70.71,-70.71z"/>
    </g>
    <g>
     <polygon class="fil0" points="19739.57,2768.67 19739.57,2733.31 20800.29,2733.31 20800.29,2768.67 "/>
     <path class="fil0" d="M20658.86 2750.99c0,-39.05 31.66,-70.71 70.71,-70.71 39.05,0 70.72,31.66 70.72,70.71 0,39.06 -31.67,70.72 -70.72,70.72 -39.05,0 -70.71,-31.66 -70.71,-70.72z"/>
    </g>
    <g>
     <polygon class="fil0" points="19739.57,768.67 19739.57,733.32 20800.29,733.32 20800.29,768.67 "/>
     <path class="fil0" d="M20658.86 751c0,-39.06 31.66,-70.72 70.71,-70.72 39.05,0 70.72,31.66 70.72,70.72 0,39.05 -31.67,70.71 -70.72,70.71 -39.05,0 -70.71,-31.66 -70.71,-70.71z"/>
    </g>
    <g>
     <polygon class="fil0" points="19739.57,6768.67 19739.57,6733.31 20800.29,6733.31 20800.29,6768.67 "/>
     <path class="fil0" d="M20658.86 6750.99c0,-39.06 31.66,-70.72 70.71,-70.72 39.05,0 70.72,31.66 70.72,70.72 0,39.05 -31.67,70.71 -70.72,70.71 -39.05,0 -70.71,-31.66 -70.71,-70.71z"/>
    </g>
    <g>
     <polygon class="fil0" points="19739.57,8768.66 19739.57,8733.31 20800.29,8733.31 20800.29,8768.66 "/>
     <path class="fil0" d="M20658.86 8750.98c0,-39.05 31.66,-70.71 70.71,-70.71 39.05,0 70.72,31.66 70.72,70.71 0,39.06 -31.67,70.72 -70.72,70.72 -39.05,0 -70.71,-31.66 -70.71,-70.72z"/>
    </g>
    <polygon class="fil0" points="19739.57,733.32 19774.93,733.32 19774.93,8768.66 19739.57,8768.66 "/>
    <polygon class="fil0" points="19032.55,4768.67 19032.55,4733.31 20661.08,4733.31 20661.08,4768.67 "/>
    <polygon class="fil0" points="19032.55,2768.67 19032.55,2733.31 20661.08,2733.31 20661.08,2768.67 "/>
   </g>
   <g>
    <g>
     <polygon class="fil0" points="12672.97,2768.67 12672.97,2733.31 13733.69,2733.31 13733.69,2768.67 "/>
     <path class="fil0" d="M13592.26 2750.99c0,-39.05 31.66,-70.71 70.71,-70.71 39.06,0 70.72,31.66 70.72,70.71 0,39.06 -31.66,70.72 -70.72,70.72 -39.05,0 -70.71,-31.66 -70.71,-70.72z"/>
    </g>
    <g>
     <polygon class="fil0" points="11965.83,4768.67 11965.83,4733.31 13733.69,4733.31 13733.69,4768.67 "/>
     <path class="fil0" d="M13592.26 4750.99c0,-39.05 31.66,-70.71 70.71,-70.71 39.06,0 70.72,31.66 70.72,70.71 0,39.05 -31.66,70.71 -70.72,70.71 -39.05,0 -70.71,-31.66 -70.71,-70.71z"/>
    </g>
    <g>
     <polygon class="fil0" points="12672.97,768.67 12672.97,733.32 13733.69,733.32 13733.69,768.67 "/>
     <path class="fil0" d="M13592.26 751c0,-39.06 31.66,-70.72 70.71,-70.72 39.06,0 70.72,31.66 70.72,70.72 0,39.05 -31.66,70.71 -70.72,70.71 -39.05,0 -70.71,-31.66 -70.71,-70.71z"/>
    </g>
    <polygon class="fil0" points="12672.97,768.67 12708.33,768.67 12708.33,4768.67 12672.97,4768.67 "/>
    <g>
     <g>
      <polygon class="fil0" points="11965.83,9000.8 11965.83,8965.45 13733.69,8965.45 13733.69,9000.8 "/>
      <path class="fil0" d="M13592.26 8983.12c0,-39.05 31.66,-70.71 70.71,-70.71 39.06,0 70.72,31.66 70.72,70.71 0,39.06 -31.66,70.72 -70.72,70.72 -39.05,0 -70.71,-31.66 -70.71,-70.72z"/>
     </g>
     <g>
      <polygon class="fil0" points="12672.97,10768.66 12672.97,10733.3 13733.69,10733.3 13733.69,10768.66 "/>
      <path class="fil0" d="M13592.26 10750.98c0,-39.05 31.66,-70.71 70.71,-70.71 39.06,0 70.72,31.66 70.72,70.71 0,39.05 -31.66,70.72 -70.72,70.72 -39.05,0 -70.71,-31.67 -70.71,-70.72z"/>
     </g>
     <g>
      <polygon class="fil0" points="12672.97,7232.95 12672.97,7197.59 13733.69,7197.59 13733.69,7232.95 "/>
      <path class="fil0" d="M13592.26 7215.27c0,-39.06 31.66,-70.72 70.71,-70.72 39.06,0 70.72,31.66 70.72,70.72 0,39.05 -31.66,70.71 -70.72,70.71 -39.05,0 -70.71,-31.66 -70.71,-70.71z"/>
     </g>
     <polygon class="fil0" points="12672.97,7197.59 12708.33,7197.59 12708.33,10768.66 12672.97,10768.66 "/>
    </g>
   </g>
   <g>
    <polygon class="fil0" points="9298.75,5900.42 9334.11,5900.42 9334.11,7601.55 9298.75,7601.55 "/>
    <path class="fil0" d="M9316.43 7460.12c39.05,0 70.71,31.66 70.71,70.72 0,39.05 -31.66,70.71 -70.71,70.71 -39.06,0 -70.72,-31.66 -70.72,-70.71 0,-39.06 31.66,-70.72 70.72,-70.72z"/>
   </g>
   <polygon class="fil2" points="-0.28,4000.99 4499.72,4000.99 4499.72,5500.99 -0.28,5500.99 "/>
   <path class="fil1" d="M687.81 4792.3l0 109.15 -60.32 0 0 -300.99 115.07 0c34.65,0 61.81,8.82 81.71,26.46 19.82,17.64 29.77,40.85 29.77,69.71 0,28.79 -9.95,51.93 -29.77,69.42 -19.9,17.5 -47.06,26.25 -81.71,26.25l-54.75 0zm0 -46.49l54.75 0c16.87,0 29.57,-4.59 38.24,-13.76 8.68,-9.17 13.06,-20.82 13.06,-35 0,-14.53 -4.31,-26.46 -12.91,-35.91 -8.61,-9.45 -21.38,-14.11 -38.39,-14.11l-54.75 0 0 98.78zm452.68 155.64l-60.39 0 0 -125.02 -122.56 0 0 125.02 -60.32 0 0 -300.99 60.32 0 0 129.4 122.56 0 0 -129.4 60.39 0 0 300.99zm298.87 -123.4c0,37.04 -11.64,67.59 -34.92,91.65 -23.28,24.06 -53.62,36.05 -90.95,36.12 -37.25,-0.07 -67.45,-12.06 -90.59,-36.19 -23.14,-24.13 -34.71,-54.68 -34.71,-91.58l0 -54.19c0,-36.76 11.57,-67.24 34.64,-91.44 23.07,-24.2 53.13,-36.26 90.24,-36.26 37.32,0 67.73,12.06 91.16,36.26 23.42,24.2 35.13,54.68 35.13,91.44l0 54.19zm-60.18 -54.54c0,-23.49 -5.86,-42.69 -17.57,-57.71 -11.71,-15.03 -27.87,-22.51 -48.54,-22.51 -20.39,0 -36.27,7.48 -47.7,22.51 -11.35,15.02 -17,34.22 -17,57.71l0 54.54c0,23.85 5.72,43.25 17.15,58.28 11.43,15.03 27.44,22.5 47.97,22.5 20.68,0 36.76,-7.47 48.33,-22.5 11.57,-15.03 17.36,-34.43 17.36,-58.28l0 -54.54zm-36.34 -157.06l-51.85 0 -56.24 -53.76 0.43 -1.2 67.17 0 40.49 54.96zm387.56 335l-60.39 0 -121.29 -202.99 -1.27 0.21 0 202.78 -60.32 0 0 -300.99 60.32 0 121.36 202.78 1.2 -0.21 0 -202.57 60.39 0 0 300.99zm286.03 -41.13c-9.38,12.27 -23.35,22.93 -41.98,31.96 -18.55,9.03 -42.54,13.47 -71.89,13.54 -36.41,-0.07 -66.18,-11.5 -89.33,-34.36 -23.14,-22.86 -34.71,-52.56 -34.71,-89.11l0 -62.79c0,-36.41 11.22,-66.04 33.73,-88.97 22.43,-23 51.29,-34.43 86.57,-34.43 36.83,0 64.98,8.68 84.52,26.1 19.62,17.5 29.07,40.71 28.37,69.78l-0.43 1.27 -56.87 0c0,-16.01 -4.58,-28.43 -13.82,-37.32 -9.25,-8.89 -22.65,-13.34 -40.29,-13.34 -18.49,0 -33.37,7.13 -44.66,21.38 -11.29,14.25 -16.94,32.67 -16.94,55.11l0 63.21c0,22.79 5.79,41.28 17.36,55.67 11.57,14.32 27.09,21.45 46.5,21.45 14.32,0 25.68,-1.41 34,-4.3 8.33,-2.9 14.75,-6.57 19.34,-11.01l0 -58.28 -57.93 0 0 -41.7 118.46 0 0 116.14zm366.47 -213.29l-86.01 0 0 254.42 -60.32 0 0 -254.42 -84.74 0 0 -46.57 231.07 0 0 46.57zm276.36 254.42l-60.39 0 0 -125.02 -122.56 0 0 125.02 -60.32 0 0 -300.99 60.32 0 0 129.4 122.56 0 0 -129.4 60.39 0 0 300.99zm119.88 0l-60.4 0 0 -300.99 60.4 0 0 300.99zm231.7 -132.29l-111.62 0 0 86.01 132.72 0 0 46.28 -193.04 0 0 -300.99 192.61 0 0 46.57 -132.29 0 0 75.63 111.62 0 0 46.5zm-99.76 -248.64l49.6 0 61.17 52.28 -0.43 1.27 -54.11 0 -31.68 -29.56 -31.19 29.56 -54.32 0 -0.43 -1.27 61.39 -52.28zm122.97 -38.03l55.81 0 -44.24 56.03 -42.19 0 30.62 -56.03zm250.05 164.54l-86.01 0 0 254.42 -60.32 0 0 -254.42 -84.74 0 0 -46.57 231.07 0 0 46.57zm220.98 128.76l-22.16 0 0 125.66 -60.32 0 0 -300.99 60.32 0 0 123.05 16.94 0 82.47 -123.05 74.65 0 -104.21 139.98 112.26 161.01 -76.91 0 -83.04 -125.66zm359.19 -6.63l-111.62 0 0 86.01 132.72 0 0 46.28 -193.04 0 0 -300.99 192.61 0 0 46.57 -132.29 0 0 75.63 111.62 0 0 46.5zm-99.76 -248.64l49.6 0 61.17 52.28 -0.43 1.27 -54.11 0 -31.68 -29.56 -31.19 29.56 -54.32 0 -0.43 -1.27 61.39 -52.28zm122.97 -38.03l55.81 0 -44.24 56.03 -42.19 0 30.62 -56.03z"/>
   <g>
    <g>
     <polygon class="fil0" points="5959.85,733.32 5959.85,768.67 4899.13,768.67 4899.13,733.32 "/>
     <path class="fil0" d="M5040.56 751c0,39.05 -31.66,70.71 -70.71,70.71 -39.06,0 -70.72,-31.66 -70.72,-70.71 0,-39.06 31.66,-70.72 70.72,-70.72 39.05,0 70.71,31.66 70.71,70.72z"/>
    </g>
    <g>
     <polygon class="fil0" points="5959.85,2733.31 5959.85,2768.67 4899.13,2768.67 4899.13,2733.31 "/>
     <path class="fil0" d="M5040.56 2750.99c0,39.06 -31.66,70.72 -70.71,70.72 -39.06,0 -70.72,-31.66 -70.72,-70.72 0,-39.05 31.66,-70.71 70.72,-70.71 39.05,0 70.71,31.66 70.71,70.71z"/>
    </g>
    <g>
     <polygon class="fil0" points="6666.99,4733.31 6666.99,4768.67 4899.13,4768.67 4899.13,4733.31 "/>
     <path class="fil0" d="M5040.56 4750.99c0,39.05 -31.66,70.71 -70.71,70.71 -39.06,0 -70.72,-31.66 -70.72,-70.71 0,-39.05 31.66,-70.71 70.72,-70.71 39.05,0 70.71,31.66 70.71,70.71z"/>
    </g>
    <g>
     <polygon class="fil0" points="5959.85,6733.31 5959.85,6768.67 4899.13,6768.67 4899.13,6733.31 "/>
     <path class="fil0" d="M5040.56 6750.99c0,39.05 -31.66,70.71 -70.71,70.71 -39.06,0 -70.72,-31.66 -70.72,-70.71 0,-39.06 31.66,-70.72 70.72,-70.72 39.05,0 70.71,31.66 70.71,70.72z"/>
    </g>
    <g>
     <polygon class="fil0" points="5959.85,8733.31 5959.85,8768.66 4899.13,8768.66 4899.13,8733.31 "/>
     <path class="fil0" d="M5040.56 8750.98c0,39.06 -31.66,70.72 -70.71,70.72 -39.06,0 -70.72,-31.66 -70.72,-70.72 0,-39.05 31.66,-70.71 70.72,-70.71 39.05,0 70.71,31.66 70.71,70.71z"/>
    </g>
    <polygon class="fil0" points="5924.49,733.32 5959.85,733.32 5959.85,10768.66 5924.49,10768.66 "/>
    <g>
     <polygon class="fil0" points="5959.85,10733.3 5959.85,10768.66 4899.13,10768.66 4899.13,10733.3 "/>
     <path class="fil0" d="M5040.56 10750.98c0,39.05 -31.66,70.72 -70.71,70.72 -39.06,0 -70.72,-31.67 -70.72,-70.72 0,-39.05 31.66,-70.71 70.72,-70.71 39.05,0 70.71,31.66 70.71,70.71z"/>
    </g>
   </g>
  </g>
 </g>
</svg>
