<?xml version="1.0" encoding="UTF-8"?>
<!DOCTYPE svg PUBLIC "-//W3C//DTD SVG 1.1//EN" "http://www.w3.org/Graphics/SVG/1.1/DTD/svg11.dtd">
<!-- Creator: CorelDRAW 2021 (64-Bit) -->
<svg xmlns="http://www.w3.org/2000/svg" xml:space="preserve" width="92mm" height="100mm" version="1.1" style="shape-rendering:geometricPrecision; text-rendering:geometricPrecision; image-rendering:optimizeQuality; fill-rule:evenodd; clip-rule:evenodd"
viewBox="0 0 9200 10000"
 xmlns:xlink="http://www.w3.org/1999/xlink"
 xmlns:xodm="http://www.corel.com/coreldraw/odm/2003">
 <defs>
  <style type="text/css">
   <![CDATA[
    .str0 {stroke:#FEFEFE;stroke-width:17.64;stroke-miterlimit:2.61313}
    .fil3 {fill:#FEFEFE}
    .fil4 {fill:#4A71B5}
    .fil0 {fill:#314A7A}
    .fil2 {fill:#3D6BB3}
    .fil1 {fill:#FDFDFD}
    .fil5 {fill:white}
    .fil6 {fill:#304B7B;fill-rule:nonzero}
    .fil7 {fill:white;fill-rule:nonzero}
   ]]>
  </style>
 </defs>
 <g id="Layer_x0020_1">
  <metadata id="CorelCorpID_0Corel-Layer"/>
  <circle class="fil0" cx="8442.11" cy="2810.49" r="711.5"/>
  <path class="fil1" d="M8096.96 2948.16c-6.24,36.13 -7.37,68.64 -8.54,103.5 0,195.34 158.36,353.7 353.7,353.7 195.34,0 353.7,-158.36 353.7,-353.7 -0.59,-31.74 -3.17,-72.39 -8.54,-103.5 -6.3,-36.48 -17.78,-75.93 -30.77,-111.13 -12.98,-35.2 -27.46,-66.16 -56.92,-116.84 -29.46,-50.68 -73.9,-121.09 -114.35,-193.99 -40.44,-72.9 -76.89,-148.3 -100.02,-200.02 -20.57,-46.03 -40.45,-98.51 -43.39,-110.56 -0.2,0.96 -0.41,1.92 -5.32,16.41 -26.47,77.96 -83.91,197.54 -137.52,294.17 -40.44,72.9 -84.88,143.31 -114.34,193.99 -29.46,50.68 -43.94,81.64 -56.93,116.84 -12.98,35.2 -24.46,74.65 -30.76,111.13z"/>
  <path class="fil2" d="M8090.19 3052.33c0,194.36 157.56,351.93 351.93,351.93 194.36,0 351.93,-157.57 351.93,-351.93 -0.49,-26.59 -2.37,-59.45 -6.16,-87.63l-691.59 0c-4.15,29.97 -5.11,57.94 -6.11,87.63z"/>
  <circle class="fil0" cx="4609.43" cy="9292.31" r="711.5"/>
  <rect class="fil3" x="4160.2" y="8961.87" width="890.83" height="759.62"/>
  <path class="fil0" d="M3562.35 804.27l38.77 -131.51 -71.83 -47.35 -220.41 -145.27 -232.4 80.81 202.62 133.55c-716.71,220.75 -1356.23,617.57 -1868.08,1139.96l131.53 125.15c492.57,-502.1 1108.2,-883.05 1798.05,-1094.05l-73.04 247.72 229.59 -87.85 65.2 -221.16z"/>
  <path class="fil0" d="M7692.94 1991.29l133.27 -32.18 5.09 -85.88 15.61 -263.51 -186.19 -160.86 -14.35 242.24c-549.53,-510.31 -1212.95,-865.74 -1921.27,-1047.83l-42.62 176.49c681.12,175.53 1318.85,518.2 1846.5,1010.13l-251.05 60.61 190.88 154.9 224.13 -54.11z"/>
  <path class="fil0" d="M5628.81 9088.16l-38.76 131.51 71.83 47.35 220.4 145.27 232.4 -80.81 -202.62 -133.55c716.71,-220.75 1356.24,-617.56 1868.09,-1139.94l-131.53 -125.15c-492.58,502.09 -1108.2,883.04 -1798.05,1094.03l73.03 -247.71 -229.59 87.85 -65.2 221.15z"/>
  <path class="fil0" d="M1512.65 7914.89l-133.28 32.18 -5.08 85.88 -15.61 263.51 186.19 160.85 14.34 -242.24c549.54,510.3 1212.95,865.73 1921.28,1047.81l42.62 -176.48c-681.12,-175.53 -1318.85,-518.19 -1846.5,-1010.12l251.05 -60.6 -190.88 -154.9 -224.13 54.11z"/>
  <path class="fil0" d="M8700.95 6134.94l94.51 99.33 76.91 -38.53 236.01 -118.23 46.22 -241.67 -216.97 108.69c167.18,-731.06 143.28,-1483.31 -53.19,-2187.78l-174.15 51.33c188.54,677.63 210.65,1401.25 48.45,2104.17l-178.01 -187.11 -38.71 242.75 158.93 167.05z"/>
  <path class="fil0" d="M487.31 3775.56l-94.51 -99.33 -76.91 38.54 -236.01 118.23 -46.22 241.67 216.97 -108.69c-167.18,731.06 -143.28,1483.31 53.19,2187.78l174.15 -51.33c-188.54,-677.63 -210.65,-1401.26 -48.45,-2104.18l178.01 187.12 38.71 -242.76 -158.93 -167.05z"/>
  <circle class="fil0" cx="4609.04" cy="715.3" r="711.5"/>
  <circle class="fil0" cx="8339.69" cy="7085.65" r="711.5"/>
  <circle class="fil0" cx="761.09" cy="7079.82" r="711.5"/>
  <path class="fil4" d="M3434.24 5191.81c-20.8,120.44 -24.55,228.8 -28.46,345.04 0,651.18 527.9,1179.09 1179.09,1179.09 651.18,0 1179.09,-527.91 1179.09,-1179.09 -1.95,-105.81 -10.55,-241.35 -28.46,-345.04 -21,-121.61 -59.28,-253.11 -102.56,-370.46 -43.28,-117.35 -91.55,-220.56 -189.75,-389.51 -98.22,-168.95 -246.37,-403.66 -381.19,-646.69 -134.84,-243.02 -256.35,-494.37 -333.44,-666.79 -68.58,-153.42 -134.84,-328.37 -144.64,-368.54 -0.68,3.2 -1.37,6.4 -17.76,54.67 -88.23,259.9 -279.69,658.53 -458.41,980.66 -134.83,243.03 -282.98,477.74 -381.19,646.69 -98.21,168.95 -146.48,272.16 -189.76,389.51 -43.27,117.35 -81.56,248.85 -102.56,370.46z"/>
  <path class="fil3" d="M370.69 7017.79l-102.28 -136.32 -74.54 99.36c46.47,-228.12 248.23,-399.78 490.08,-399.78 3.19,0 6.38,0.02 9.56,0.09 245.15,4.59 447.16,185.57 484.44,421.34l-131.39 0 102.27 135.59 102.28 135.6 70.03 -92.84c-53.74,218.28 -250.8,380.19 -485.68,380.19 -3.19,0 -6.38,-0.02 -9.56,-0.08 -240.09,-4.51 -438.81,-178.19 -481.93,-406.83l128.99 0 -102.27 -136.32zm1084.97 -15.31l-101.61 0c-37.93,-293.69 -288.95,-520.58 -592.96,-520.58 -309.17,0 -563.53,234.64 -594.71,535.57l-0.24 0.32 -102.27 136.32 103.87 0c36.58,295.17 288.28,523.63 593.35,523.63 312.02,0 568.23,-239 595.51,-543.93l99.06 -131.33z"/>
  <path class="fil3" d="M665.02 6883.97c-24.63,44.41 -51.7,87.29 -69.64,118.16 -17.95,30.87 -26.76,49.72 -34.67,71.16 -7.91,21.44 -14.91,45.47 -18.74,67.69 -3.8,22 -4.48,41.8 -5.2,63.04 0,118.97 96.45,215.42 215.41,215.42 118.99,0 215.43,-96.45 215.43,-215.42 -0.35,-19.34 -1.92,-44.1 -5.2,-63.04 -3.83,-22.22 -10.83,-46.25 -18.74,-67.69 -7.9,-21.44 -16.72,-40.29 -34.66,-71.16 -17.95,-30.87 -45.01,-73.75 -69.65,-118.16 -24.63,-44.4 -46.83,-90.31 -60.92,-121.82 -12.52,-28.03 -24.63,-59.99 -26.42,-67.33 -0.12,0.58 -0.25,1.17 -3.25,9.99 -16.13,47.49 -51.09,120.3 -83.75,179.16z"/>
  <path class="fil3" d="M4482.63 553.89c-16.59,-11.57 -31.74,-25.05 -45.14,-40.12 -13.28,15.62 -28.4,29.63 -45.01,41.7 -42.36,30.75 -94.47,48.89 -150.81,48.89 -90.74,0 -170.5,-47.05 -216.2,-118.08l0 124.36 0 5.48c46.14,68.54 124.45,113.63 213.28,113.63 79.58,0 150.7,-36.18 197.83,-92.97 47.09,58.47 119.28,95.89 200.21,95.89 77.75,0 147.43,-34.54 194.54,-89.11 47.09,53.73 116.22,87.65 193.28,87.65 66.68,0 127.43,-25.4 173.09,-67.05l0 -53.52 0 -73.48c-45.49,40.88 -105.66,65.74 -171.63,65.74 -54.09,0 -104.29,-16.72 -145.68,-45.26 -20.23,-13.95 -38.36,-30.72 -53.81,-49.74 -13.78,16.46 -29.59,31.17 -47.04,43.74 -42.21,30.43 -94.04,48.34 -150.04,48.34 -54.61,0 -105.25,-17.04 -146.87,-46.09z"/>
  <path class="fil3" d="M4482.63 774.31c-16.59,-11.57 -31.74,-25.05 -45.14,-40.12 -13.28,15.62 -28.4,29.63 -45.01,41.7 -42.36,30.75 -94.47,48.89 -150.81,48.89 -90.74,0 -170.5,-47.05 -216.2,-118.08l0 124.36 0 5.48c46.14,68.54 124.45,113.63 213.28,113.63 79.58,0 150.7,-36.18 197.83,-92.98 47.09,58.48 119.28,95.9 200.21,95.9 77.75,0 147.43,-34.54 194.54,-89.11 47.09,53.73 116.22,87.65 193.28,87.65 66.68,0 127.43,-25.4 173.09,-67.05l0 -53.52 0 -73.48c-45.49,40.88 -105.66,65.74 -171.63,65.74 -54.09,0 -104.29,-16.72 -145.68,-45.26 -20.23,-13.95 -38.36,-30.72 -53.81,-49.74 -13.78,16.46 -29.59,31.17 -47.04,43.74 -42.21,30.43 -94.04,48.34 -150.04,48.34 -54.61,0 -105.25,-17.04 -146.87,-46.09z"/>
  <rect class="fil0" x="4476.27" y="9169.26" width="521.24" height="222.34" rx="104" ry="88.17"/>
  <circle class="fil0" cx="4344.33" cy="9485.63" r="48.77"/>
  <circle class="fil0" cx="4855.7" cy="9485.63" r="48.77"/>
  <rect class="fil3" x="4382.68" y="9208.61" width="48.4" height="114.44"/>
  <polygon class="fil3" points="4293.67,9227.01 4233.16,9342.75 4289.01,9342.75 4299.31,9323.06 4367,9323.06 4367,9208.62 4343.03,9208.62 4303.28,9208.62 "/>
  <path class="fil0" d="M4289.01 9342.75l-55.85 0 60.51 -115.74 9.61 -18.39 39.75 0 23.97 0 0 114.44 -67.69 0 -10.3 19.69zm-83.92 3.08l0 161.68 72.75 0c-2.27,-6.89 -3.49,-14.24 -3.49,-21.88 0,-38.63 31.34,-69.98 69.98,-69.98 38.63,0 69.98,31.35 69.98,69.98 0,7.64 -1.23,14.99 -3.5,21.88l378.4 0c-2.26,-6.89 -3.49,-14.24 -3.49,-21.88 0,-38.64 31.34,-69.98 69.98,-69.98 38.64,0 69.98,31.34 69.98,69.98 0,7.64 -1.23,14.99 -3.49,21.88l31.58 0 0 -99.87 -501.55 0 0 -215.78 -157.12 0 -90.01 153.97zm177.59 -22.77l0 -114.44 48.4 0 0 114.44 -48.4 0z"/>
  <rect class="fil3" x="4077.09" y="8845.25" width="231.81" height="100.6"/>
  <rect class="fil3" x="4323.96" y="8845.25" width="264.88" height="100.6"/>
  <rect class="fil3" x="4606.1" y="8845.25" width="264.88" height="100.6"/>
  <rect class="fil3" x="4888.23" y="8845.25" width="243.7" height="100.6"/>
  <rect class="fil0 str0" x="4568.34" y="9159.37" width="342.63" height="240.2"/>
  <path class="fil3" d="M7940.74 7093l62.57 0c24.26,0 44.1,-19.83 44.1,-44.08l0 -46.99 0 -157.84 0 -39.41c0,-24.25 -19.84,-44.1 -44.1,-44.1l-62.57 0 0 332.42z"/>
  <path class="fil3" d="M8088.23 7006.48l97.36 0c28.91,50.13 83.05,83.86 145.05,83.86 62.02,0 116.16,-33.73 145.06,-83.86l65.57 0 0 107.36 164.22 0 0 -190.82c0,-0.46 0,-0.92 -0.01,-1.37 -0.72,-44.84 -37.29,-81.39 -82.11,-82.1 -0.45,-0.01 -0.89,-0.01 -1.34,0l-146.33 -0.01c-25.65,-44.46 -71.15,-76.02 -124.37,-82.58l0 -28.51c12.9,-5.36 23.58,-14.97 30.31,-27.08l96.67 0c16.42,0 29.86,-13.44 29.86,-29.86 0,-16.44 -13.44,-29.87 -29.86,-29.87l-96.68 0c-10.51,-18.94 -30.71,-31.75 -53.9,-31.75 -23.2,0 -43.4,12.81 -53.91,31.75l-96.67 0c-16.41,0 -29.85,13.43 -29.85,29.86 0,16.43 13.44,29.87 29.85,29.87l96.66 0c6.7,12.07 17.34,21.65 30.18,27.02l0 29.41c-50.65,8.11 -93.71,38.96 -118.39,81.74l-97.37 0 0 166.94z"/>
  <path class="fil3" d="M8705.49 7149.06l-164.22 0 -41.24 0c-16.42,0 -29.86,13.44 -29.86,29.87 0,16.43 13.44,29.86 29.86,29.86l51.62 0 143.45 0 45.56 0c16.43,0 29.86,-13.43 29.86,-29.86 0,-16.43 -13.43,-29.87 -29.86,-29.87l-35.17 0z"/>
  <path class="fil5" d="M8530.54 7443.99c-1.63,9.4 -1.92,17.86 -2.22,26.93 0,50.83 41.2,92.04 92.03,92.04 50.83,0 92.03,-41.21 92.03,-92.04 -0.15,-8.26 -0.82,-18.84 -2.22,-26.93 -1.64,-9.49 -4.62,-19.76 -8,-28.92 -3.38,-9.16 -7.15,-17.21 -14.81,-30.4 -7.67,-13.19 -19.23,-31.51 -29.76,-50.48 -10.52,-18.97 -20.01,-38.58 -26.02,-52.04 -5.36,-11.98 -10.53,-25.63 -11.29,-28.77 -0.06,0.25 -0.11,0.5 -1.39,4.27 -6.89,20.28 -21.83,51.4 -35.78,76.54 -10.53,18.97 -22.09,37.29 -29.76,50.48 -7.66,13.19 -11.43,21.24 -14.81,30.4 -3.37,9.16 -6.36,19.43 -8,28.92z"/>
  <path class="fil0" d="M930.1 2961.65c-30.3,-21.27 -50.82,-62.37 -50.82,-109.59 0,-47.23 20.52,-88.33 50.82,-109.6l0 -47.6c-30.3,-19.23 -50.82,-56.38 -50.82,-99.06 0,-42.67 20.52,-79.82 50.82,-99.05l0 -85.67c-10.08,-11.03 -16.21,-25.62 -16.21,-41.62 0,-34.42 28.4,-62.33 63.42,-62.33 15.93,0 30.5,5.78 41.63,15.31l149.86 0c17.12,-9.53 39.51,-15.31 64,-15.31 24.5,0 46.88,5.78 64,15.31l56.11 0 0 14.95 40.07 0 0 41.93 -40.07 0 0 20.02 -34.5 0c-16.55,19.34 -48.68,32.46 -85.61,32.46 -36.92,0 -69.05,-13.12 -85.6,-32.46l-114.2 0c-2.37,4.25 -5.23,8.21 -8.5,11.78l0 85.62c30.31,19.21 50.84,56.37 50.84,99.06 0,42.7 -20.53,79.86 -50.84,99.07l0 47.58c30.31,21.25 50.84,62.37 50.84,109.61 0,47.24 -20.53,88.35 -50.84,109.61l0 89.26 68.58 0 0 73.39 -68.58 0 0 28.41 98.25 0 0 18.26 51.88 0c17.12,-9.53 39.51,-15.3 64,-15.3 24.49,0 46.88,5.77 64,15.3l56.1 0 0 14.96 40.08 0 0 41.92 -40.08 0 0 20.02 -34.5 0c-16.55,19.35 -48.67,32.47 -85.6,32.47 -36.92,0 -69.05,-13.12 -85.6,-32.47l-30.28 0 0 21.49 -98.25 0 0 50.87 59.38 0 84.56 0 0 116.65 -84.56 0 0 85.36c352.3,-42.55 625.31,-342.56 625.31,-706.34 0,-392.94 -318.55,-711.49 -711.49,-711.49 -392.95,0 -711.5,318.55 -711.5,711.49 0,349.63 252.18,640.35 584.55,700.21l0 -79.23 -84.56 0 0 -116.65 84.56 0 59.35 0 0 -50.87 -98.22 0 0 -116.65 98.22 0 0 -28.41 -68.54 0 0 -73.39 68.54 0 0 -89.28z"/>
  <path class="fil6" d="M3845.85 1847.59l0 -71.99c0,-39.03 -0.7,-72.72 -2.48,-104.64l1.42 0c11.35,28.02 27.31,58.88 41.5,84.42l51.08 92.21 56.74 0 0 -239.06 -49.64 0 0 69.52c0,36.17 1.05,68.46 4.25,100.03l-0.72 0c-10.98,-26.97 -24.82,-56.76 -39.01,-81.94l-49.65 -87.61 -63.15 0 0 239.06 49.66 0zm357.55 -121.65c0,-25.9 0.7,-40.44 1.41,-51.79l-46.82 0 -1.77 20.92 -0.71 0c-8.87,-14.54 -23.76,-24.82 -47.53,-24.82 -42.92,0 -78.75,35.47 -78.75,91.51 0,49.66 30.51,84.42 73.43,84.42 19.86,0 36.53,-8.17 46.81,-22.35l0.72 0 0 11c0,32.27 -19.51,45.75 -45.05,45.75 -20.57,0 -39.37,-6.73 -50.37,-13.12l-10.64 41.14c15.61,8.51 39.38,13.13 62.43,13.13 25.54,0 51.43,-4.97 70.23,-21.29 19.86,-17.37 26.61,-44.69 26.61,-78.03l0 -96.47zm-53.93 44.33c0,4.61 -0.35,10.28 -1.76,14.55 -3.55,12.41 -14.54,21.63 -28.73,21.63 -22.35,0 -35.12,-20.22 -35.12,-46.11 0,-31.57 15.6,-49.3 35.47,-49.3 14.89,0 25.19,9.57 29.09,23.76 0.7,3.19 1.05,6.74 1.05,9.93l0 25.54zm260.71 -96.12l-53.91 0 0 103.21c0,4.62 -0.71,8.52 -2.13,11.71 -3.19,8.51 -12.05,18.8 -26.95,18.8 -19.16,0 -27.31,-15.25 -27.31,-40.44l0 -93.28 -53.92 0 0 101.8c0,53.56 25.53,75.55 61.01,75.55 31.22,0 47.52,-17.74 54.27,-28.38l1.07 0 2.48 24.47 46.81 0c-0.7,-14.53 -1.42,-32.98 -1.42,-55.69l0 -117.75zm126.28 -4.26c-56.05,0 -92.93,35.83 -92.93,92.22 0,56.05 39.02,89.39 89.74,89.39 46.46,0 91.51,-29.09 91.51,-92.58 0,-52.5 -35.48,-89.03 -88.32,-89.03zm-1.77 38.66c24.47,0 34.4,26.25 34.4,51.79 0,31.56 -13.13,52.5 -34.4,52.5 -23.06,0 -35.47,-22.35 -35.47,-52.15 0,-25.53 9.93,-52.14 35.47,-52.14zm15.95 -144.36l37.96 53.56 26.96 0 -24.12 -53.56 -40.8 0zm-32.98 34.41l-31.93 53.91 34.41 0 15.97 -30.86 0.7 0 15.61 30.86 34.4 0 -31.56 -53.91 -37.6 0zm140.46 248.99l53.91 0 0 -100.02c0,-4.96 0.35,-9.93 1.78,-13.48 3.9,-9.93 12.77,-20.22 27.66,-20.22 19.51,0 27.31,15.25 27.31,37.6l0 96.12 53.92 0 0 -102.5c0,-51.08 -26.61,-74.84 -62.08,-74.84 -29.08,0 -46.46,16.67 -53.56,28.02l-1.06 0 -2.48 -24.12 -46.82 0c0.7,15.6 1.42,33.69 1.42,55.33l0 118.11zm279.5 0l53.91 0 0 -100.02c0,-4.96 0.35,-9.93 1.78,-13.48 3.9,-9.93 12.77,-20.22 27.66,-20.22 19.51,0 27.32,15.25 27.32,37.6l0 96.12 53.91 0 0 -102.5c0,-51.08 -26.61,-74.84 -62.08,-74.84 -29.07,0 -46.46,16.67 -53.56,28.02l-1.06 0 -2.48 -24.12 -46.82 0c0.7,15.6 1.42,33.69 1.42,55.33l0 118.11zm361.08 -211.4c4.62,7.8 7.8,15.97 7.8,23.42 0,8.5 -4.25,14.54 -18.8,14.54l-32.62 0 0 103.21c0,4.62 -0.72,8.52 -2.14,11.71 -3.18,8.51 -12.05,18.8 -26.95,18.8 -19.16,0 -27.31,-15.25 -27.31,-40.44l0 -93.28 -53.92 0 0 102.15c0,53.21 25.54,75.2 61.01,75.2 31.22,0 47.53,-17.74 54.27,-28.38l1.07 0 2.48 24.47 46.81 0c-0.7,-14.53 -1.41,-32.98 -1.41,-55.69l0 -93.28 2.83 0c18.45,-2.48 32.64,-14.89 32.64,-36.53 0,-11.35 -3.2,-23.05 -7.8,-32.28l-37.96 6.38zm134.79 72.36c24.47,0 34.41,26.25 34.41,51.79 0,31.56 -13.49,52.5 -34.41,52.5 -23.05,0 -35.47,-22.35 -35.47,-52.15 0,-25.53 9.93,-52.14 35.47,-52.14zm66.68 -61.71c4.25,7.44 7.45,15.6 7.45,24.82 0.35,8.52 -3.9,12.77 -12.06,12.77 -8.51,0 -19.86,-6.73 -28.73,-9.57 -9.58,-3.2 -19.87,-4.97 -31.92,-4.97 -55.69,0 -92.58,35.83 -92.58,92.22 0,56.05 39.02,89.39 89.74,89.39 46.46,0 91.51,-29.09 91.51,-92.58 0,-19.16 -4.61,-34.76 -12.06,-47.53 21.99,-2.12 34.41,-15.96 34.41,-37.6 0,-12.41 -3.2,-24.47 -7.8,-33.34l-37.96 6.39zm-61.36 -48.24l-30.51 53.91 36.89 0 43.28 -53.91 -49.66 0zm246.86 204.66c-8.15,3.54 -18.08,5.68 -30.85,5.68 -26.25,0 -47.53,-17.04 -47.53,-48.6 -0.36,-28.38 18.09,-48.59 46.46,-48.59 14.19,0 23.77,2.47 30.16,5.32l8.5 -40.09c-11.35,-4.25 -26.95,-6.73 -41.14,-6.73 -64.56,0 -99.32,41.5 -99.32,92.21 0,54.28 35.83,88.68 91.87,88.68 20.57,0 38.66,-3.55 48.24,-8.16l-6.39 -39.72z"/>
  <path class="fil6" d="M6826.61 2901.74l-70.95 -122.37 67.4 -116.7 -61.72 0 -20.22 43.63c-6.03,13.84 -10.63,24.47 -16.31,39.73l-0.71 0c-5.68,-13.49 -11,-25.19 -18.1,-39.73l-20.92 -43.63 -62.07 0 66.69 118.11 -69.18 120.96 61.73 0 19.5 -43.28c7.8,-16.67 13.84,-29.08 18.8,-42.92l0.71 0c6.74,13.84 12.41,26.25 21.28,42.92l21.64 43.28 62.43 0zm176.28 -211.41c4.62,7.81 7.8,15.97 7.8,23.42 0,8.51 -4.25,14.54 -18.8,14.54l-32.63 0 0 103.22c0,4.61 -0.71,8.51 -2.13,11.7 -3.18,8.52 -12.05,18.8 -26.95,18.8 -19.16,0 -27.31,-15.25 -27.31,-40.44l0 -93.28 -53.92 0 0 102.15c0,53.21 25.54,75.2 61.01,75.2 31.22,0 47.52,-17.74 54.27,-28.37l1.07 0 2.48 24.47 46.81 0c-0.7,-14.54 -1.41,-32.99 -1.41,-55.69l0 -93.29 2.83 0c18.45,-2.48 32.64,-14.89 32.64,-36.53 0,-11.35 -3.2,-23.05 -7.8,-32.28l-37.96 6.38zm-59.59 24.48c7.8,-17.03 28.38,-24.48 28.38,-47.88 0,-18.09 -15.61,-30.86 -35.47,-30.86 -21.29,0 -35.47,11.7 -43.27,28.02l17.73 10.99c3.19,-5.67 8.16,-12.05 15.25,-12.05 6.03,0 10.64,4.25 10.64,11.35 0,13.12 -14.9,18.09 -19.15,34.76l25.89 5.67zm184.8 186.93l53.91 0 0 -252.2 -53.91 0 0 252.2zm78.03 -173.45l63.85 158.91c1.76,4.25 2.12,6.74 2.12,8.87 0,2.12 -1.06,4.95 -2.84,7.8 -4.97,8.51 -14.19,17.37 -22.34,21.64 -8.16,4.6 -16.67,7.8 -23.42,9.22l11.71 45.39c13.48,-1.42 33.35,-7.44 51.79,-23.76 19.5,-17.38 36.17,-44.69 61.01,-113.85l40.44 -114.22 -57.46 0 -21.64 85.13c-2.49,10.29 -5.33,23.05 -7.45,32.63l-1.42 0c-2.13,-9.22 -5.68,-22.34 -8.52,-32.28l-25.89 -85.48 -59.94 0zm103.22 -75.55l-30.51 53.91 36.89 0 43.27 -53.91 -49.65 0zm-993.87 688.48l53.91 0 0 -100.03c0,-4.96 0.36,-9.93 1.78,-13.48 3.9,-9.93 12.77,-20.22 27.66,-20.22 19.52,0 27.32,15.25 27.32,37.61l0 96.12 53.91 0 0 -102.51c0,-51.08 -26.6,-74.84 -62.07,-74.84 -29.08,0 -46.47,16.67 -53.56,28.02l-1.07 0 -2.47 -24.12 -46.83 0c0.71,15.6 1.42,33.69 1.42,55.33l0 118.12zm361.08 -211.41c4.62,7.8 7.81,15.97 7.81,23.42 0,8.5 -4.26,14.54 -18.8,14.54l-32.63 0 0 103.22c0,4.61 -0.71,8.51 -2.13,11.7 -3.19,8.51 -12.06,18.8 -26.96,18.8 -19.15,0 -27.31,-15.25 -27.31,-40.44l0 -93.28 -53.92 0 0 102.15c0,53.21 25.54,75.2 61.01,75.2 31.22,0 47.53,-17.74 54.28,-28.38l1.06 0 2.49 24.48 46.81 0c-0.71,-14.54 -1.42,-32.99 -1.42,-55.7l0 -93.28 2.84 0c18.45,-2.48 32.63,-14.89 32.63,-36.53 0,-11.35 -3.19,-23.05 -7.8,-32.28l-37.96 6.38zm134.79 72.36c24.48,0 34.41,26.26 34.41,51.79 0,31.56 -13.48,52.5 -34.41,52.5 -23.05,0 -35.47,-22.35 -35.47,-52.14 0,-25.54 9.94,-52.15 35.47,-52.15zm66.68 -61.71c4.26,7.44 7.46,15.6 7.46,24.82 0.35,8.52 -3.91,12.77 -12.07,12.77 -8.51,0 -19.86,-6.73 -28.73,-9.57 -9.58,-3.2 -19.86,-4.97 -31.92,-4.97 -55.69,0 -92.58,35.83 -92.58,92.22 0,56.05 39.02,89.39 89.75,89.39 46.46,0 91.5,-29.09 91.5,-92.58 0,-19.16 -4.6,-34.76 -12.05,-47.53 21.99,-2.12 34.4,-15.96 34.4,-37.59 0,-12.42 -3.19,-24.48 -7.8,-33.35l-37.96 6.39zm-61.36 -48.24l-30.5 53.91 36.89 0 43.27 -53.91 -49.66 0zm246.87 204.66c-8.16,3.54 -18.09,5.68 -30.86,5.68 -26.25,0 -47.53,-17.04 -47.53,-48.6 -0.36,-28.38 18.09,-48.59 46.47,-48.59 14.18,0 23.76,2.47 30.15,5.32l8.5 -40.09c-11.35,-4.25 -26.95,-6.73 -41.14,-6.73 -64.56,0 -99.32,41.5 -99.32,92.21 0,54.28 35.83,88.68 91.87,88.68 20.57,0 38.66,-3.54 48.24,-8.16l-6.38 -39.72zm231.61 0c-8.15,3.54 -18.09,5.68 -30.86,5.68 -26.25,0 -47.52,-17.04 -47.52,-48.6 -0.36,-28.38 18.09,-48.59 46.46,-48.59 14.19,0 23.77,2.47 30.15,5.32l8.51 -40.09c-11.35,-4.25 -26.96,-6.73 -41.14,-6.73 -64.56,0 -99.32,41.5 -99.32,92.21 0,54.28 35.82,88.68 91.86,88.68 20.58,0 38.66,-3.54 48.25,-8.16l-6.39 -39.72zm181.96 -58.17c0,-41.15 -18.09,-75.2 -75.91,-75.2 -31.57,0 -55.33,8.87 -67.39,15.61l9.93 34.76c11.35,-7.09 30.15,-13.12 47.88,-13.12 26.61,0 31.57,13.12 31.57,22.7l0 2.12c-61.36,0 -101.8,21.28 -101.8,66.33 0,27.67 20.93,53.21 56.05,53.21 20.57,0 38.3,-7.45 49.66,-21.29l1.06 0 3.19 17.39 48.59 0c-2.12,-9.59 -2.83,-25.54 -2.83,-41.86l0 -60.65zm-52.15 39.37c0,3.19 -0.35,6.39 -1.06,9.22 -3.54,10.99 -14.89,19.86 -28.02,19.86 -12.06,0 -21.28,-6.74 -21.28,-20.57 0,-20.57 21.99,-27.31 50.36,-27.31l0 18.8zm-40.79 -185.86l-31.92 53.91 34.41 0 15.96 -30.86 0.71 0 15.61 30.86 34.4 0 -31.56 -53.91 -37.61 0zm83 -34.06l-27.31 53.21 27.67 0 40.79 -53.21 -41.15 0zm52.86 353.29l53.91 0 0 -86.2 0.71 0c7.81,11.35 24.12,19.87 45.05,19.87 38.66,0 78.74,-29.79 78.74,-92.94 0,-55.33 -34.05,-88.31 -72.01,-88.31 -25.17,0 -45.04,9.93 -57.81,28.02l-0.71 0 -2.48 -24.12 -46.82 0c0.7,16.32 1.42,35.47 1.42,58.17l0 185.51zm53.91 -168.49c0,-3.19 0.35,-6.73 1.07,-9.58 3.54,-15.95 17.02,-27.31 32.27,-27.31 24.12,0 36.54,20.93 36.54,48.6 0,29.44 -13.84,48.95 -37.24,48.95 -15.61,0 -28.03,-11 -31.57,-25.54 -0.72,-3.55 -1.07,-7.09 -1.07,-11.35l0 -23.77z"/>
  <path class="fil6" d="M6284.18 7150.33c13.49,7.45 40.44,14.9 67.75,14.9 65.62,0 96.13,-34.05 96.13,-74.13 0,-33.7 -19.52,-55.69 -61.73,-71.29 -31.2,-11.71 -44.33,-18.45 -44.33,-33.71 0,-12.05 11.35,-23.05 34.76,-23.05 23.06,0 40.43,6.75 49.66,11.35l12.06 -43.27c-14.19,-6.74 -33.7,-12.06 -61.01,-12.06 -56.05,0 -90.45,30.86 -90.45,71.65 0,34.76 26.25,56.75 65.97,70.94 28.74,9.93 40.08,18.44 40.08,33.34 0,15.61 -13.12,25.89 -37.94,25.89 -23.06,0 -45.76,-7.45 -59.95,-14.9l-11 44.34zm352.22 -200.05c4.61,7.8 7.8,15.97 7.8,23.42 0,8.5 -4.25,14.54 -18.8,14.54l-32.63 0 0 103.21c0,4.62 -0.71,8.52 -2.13,11.71 -3.19,8.51 -12.06,18.8 -26.96,18.8 -19.15,0 -27.3,-15.25 -27.3,-40.44l0 -93.28 -53.93 0 0 102.15c0,53.21 25.54,75.2 61.01,75.2 31.22,0 47.53,-17.74 54.28,-28.38l1.06 0 2.49 24.47 46.81 0c-0.7,-14.53 -1.42,-32.98 -1.42,-55.69l0 -93.28 2.84 0c18.45,-2.49 32.64,-14.89 32.64,-36.53 0,-11.35 -3.2,-23.05 -7.81,-32.28l-37.95 6.38zm-59.59 24.47c7.8,-17.02 28.38,-24.47 28.38,-47.88 0,-18.08 -15.62,-30.85 -35.47,-30.85 -21.29,0 -35.47,11.7 -43.28,28.02l17.74 10.99c3.19,-5.67 8.15,-12.06 15.25,-12.06 6.02,0 10.64,4.26 10.64,11.35 0,13.13 -14.9,18.09 -19.15,34.76l25.89 5.67zm299 -65.26l0 94 -0.7 0c-7.8,-11.71 -24.12,-19.51 -45.76,-19.51 -41.49,0 -78.03,34.05 -77.68,92.57 0,53.93 32.99,89.04 74.13,89.04 22.35,0 43.63,-9.94 54.28,-29.09l1.06 0 2.12 25.18 47.89 0c-0.71,-11.7 -1.42,-32.27 -1.42,-51.79l0 -200.4 -53.92 0zm0 174.87c0,4.26 -0.35,8.51 -1.05,12.41 -3.2,15.26 -15.97,25.89 -31.57,25.89 -22.35,0 -36.89,-18.44 -36.89,-47.88 0,-27.31 12.41,-49.3 37.24,-49.3 16.67,0 28.37,12.06 31.57,26.25 0.7,3.19 0.7,7.09 0.7,9.93l0 22.7zm260.71 -96.12l-53.91 0 0 103.21c0,4.62 -0.71,8.52 -2.13,11.71 -3.19,8.51 -12.06,18.8 -26.96,18.8 -19.15,0 -27.3,-15.25 -27.3,-40.44l0 -93.28 -53.93 0 0 101.8c0,53.56 25.54,75.55 61.01,75.55 31.22,0 47.53,-17.74 54.28,-28.38l1.06 0 2.49 24.47 46.81 0c-0.7,-14.53 -1.42,-32.98 -1.42,-55.69l0 -117.75zm-81.23 201.82c-14.18,0 -25.17,10.65 -25.17,25.18 0,13.49 10.64,24.83 24.82,24.83 14.19,0 24.47,-11.34 24.47,-24.83 0,-14.53 -10.28,-25.18 -24.12,-25.18zm124.51 -28.38l53.91 0 0 -100.02c0,-4.96 0.35,-9.93 1.78,-13.48 3.9,-9.93 12.77,-20.22 27.66,-20.22 19.51,0 27.32,15.25 27.32,37.6l0 96.12 53.91 0 0 -102.5c0,-51.08 -26.61,-74.85 -62.08,-74.85 -29.08,0 -46.46,16.67 -53.56,28.03l-1.06 0 -2.48 -24.12 -46.82 0c0.7,15.6 1.42,33.69 1.42,55.33l0 118.11zm372.08 -121.65c0,-25.9 0.7,-40.44 1.42,-51.79l-46.83 0 -1.77 20.92 -0.71 0c-8.87,-14.54 -23.76,-24.83 -47.53,-24.83 -42.92,0 -78.74,35.48 -78.74,91.52 0,49.66 30.5,84.42 73.43,84.42 19.85,0 36.52,-8.17 46.81,-22.35l0.71 0 0 11c0,32.27 -19.5,45.75 -45.04,45.75 -20.57,0 -39.37,-6.73 -50.37,-13.12l-10.64 41.14c15.6,8.51 39.37,13.13 62.43,13.13 25.53,0 51.42,-4.97 70.23,-21.29 19.85,-17.37 26.6,-44.69 26.6,-78.03l0 -96.47zm-53.92 44.33c0,4.61 -0.35,10.28 -1.77,14.54 -3.55,12.42 -14.54,21.64 -28.73,21.64 -22.35,0 -35.12,-20.22 -35.12,-46.11 0,-31.57 15.61,-49.3 35.48,-49.3 14.89,0 25.18,9.57 29.08,23.76 0.71,3.19 1.06,6.74 1.06,9.93l0 25.54z"/>
  <path class="fil6" d="M3842.48 8395.73l-70.94 -122.37 67.39 -116.69 -61.71 0 -20.22 43.62c-6.03,13.84 -10.64,24.48 -16.32,39.73l-0.7 0c-5.68,-13.49 -11,-25.19 -18.1,-39.73l-20.92 -43.62 -62.08 0 66.69 118.11 -69.17 120.95 61.72 0 19.51 -43.27c7.8,-16.67 13.83,-29.09 18.8,-42.93l0.7 0c6.75,13.84 12.42,26.26 21.29,42.93l21.64 43.27 62.42 0zm176.29 -211.4c4.61,7.8 7.8,15.96 7.8,23.41 0,8.51 -4.25,14.54 -18.8,14.54l-32.63 0 0 103.22c0,4.62 -0.71,8.52 -2.13,11.7 -3.19,8.52 -12.06,18.81 -26.96,18.81 -19.15,0 -27.3,-15.26 -27.3,-40.44l0 -93.29 -53.93 0 0 102.15c0,53.21 25.54,75.2 61.01,75.2 31.22,0 47.53,-17.73 54.28,-28.37l1.06 0 2.49 24.47 46.81 0c-0.7,-14.54 -1.42,-32.99 -1.42,-55.69l0 -93.29 2.84 0c18.45,-2.48 32.64,-14.89 32.64,-36.52 0,-11.35 -3.2,-23.06 -7.81,-32.29l-37.95 6.39zm-59.59 24.47c7.8,-17.02 28.38,-24.47 28.38,-47.88 0,-18.09 -15.62,-30.86 -35.47,-30.86 -21.29,0 -35.48,11.71 -43.28,28.02l17.74 10.99c3.19,-5.67 8.15,-12.05 15.25,-12.05 6.02,0 10.64,4.25 10.64,11.35 0,13.12 -14.9,18.09 -19.15,34.76l25.89 5.67zm184.79 186.93l53.92 0 0 -252.19 -53.92 0 0 252.19zm78.04 -173.45l63.84 158.91c1.77,4.25 2.12,6.74 2.12,8.87 0,2.12 -1.05,4.96 -2.83,7.8 -4.97,8.51 -14.19,17.38 -22.34,21.64 -8.17,4.6 -16.67,7.8 -23.42,9.22l11.7 45.39c13.49,-1.41 33.35,-7.44 51.79,-23.75 19.51,-17.39 36.18,-44.7 61.01,-113.86l40.44 -114.22 -57.46 0 -21.63 85.13c-2.49,10.29 -5.33,23.06 -7.45,32.63l-1.42 0c-2.13,-9.22 -5.68,-22.34 -8.52,-32.28l-25.89 -85.48 -59.94 0zm103.22 -75.55l-30.51 53.91 36.89 0 43.26 -53.91 -49.64 0zm173.43 249l53.92 0 0 -100.02c0,-4.97 0.35,-9.93 1.77,-13.48 3.91,-9.94 12.77,-20.22 27.66,-20.22 19.52,0 27.32,15.25 27.32,37.6l0 96.12 53.91 0 0 -102.5c0,-51.08 -26.6,-74.85 -62.07,-74.85 -29.08,0 -46.46,16.67 -53.56,28.02l-1.07 0 -2.47 -24.12 -46.82 0c0.7,15.61 1.41,33.69 1.41,55.33l0 118.12zm361.09 -211.4c4.61,7.8 7.8,15.96 7.8,23.41 0,8.51 -4.25,14.54 -18.8,14.54l-32.63 0 0 103.22c0,4.62 -0.71,8.52 -2.13,11.7 -3.19,8.52 -12.06,18.81 -26.96,18.81 -19.15,0 -27.3,-15.26 -27.3,-40.44l0 -93.29 -53.93 0 0 102.15c0,53.21 25.54,75.2 61.01,75.2 31.22,0 47.53,-17.73 54.28,-28.37l1.06 0 2.49 24.47 46.81 0c-0.7,-14.54 -1.42,-32.99 -1.42,-55.69l0 -93.29 2.84 0c18.45,-2.48 32.63,-14.89 32.63,-36.52 0,-11.35 -3.19,-23.06 -7.8,-32.29l-37.95 6.39zm134.79 72.36c24.47,0 34.4,26.25 34.4,51.79 0,31.56 -13.48,52.49 -34.4,52.49 -23.06,0 -35.48,-22.35 -35.48,-52.14 0,-25.54 9.94,-52.14 35.48,-52.14zm66.68 -61.72c4.25,7.44 7.45,15.61 7.45,24.83 0.35,8.51 -3.9,12.77 -12.07,12.77 -8.5,0 -19.86,-6.74 -28.72,-9.57 -9.59,-3.2 -19.87,-4.97 -31.93,-4.97 -55.69,0 -92.58,35.82 -92.58,92.22 0,56.04 39.02,89.38 89.75,89.38 46.46,0 91.5,-29.09 91.5,-92.58 0,-19.15 -4.6,-34.76 -12.05,-47.53 21.99,-2.12 34.4,-15.95 34.4,-37.59 0,-12.42 -3.19,-24.47 -7.8,-33.34l-37.95 6.38zm-61.37 -48.24l-30.5 53.91 36.89 0 43.27 -53.91 -49.66 0zm246.87 204.66c-8.15,3.55 -18.09,5.68 -30.86,5.68 -26.25,0 -47.52,-17.03 -47.52,-48.59 -0.37,-28.39 18.08,-48.59 46.46,-48.59 14.18,0 23.77,2.47 30.15,5.31l8.51 -40.08c-11.35,-4.26 -26.96,-6.74 -41.15,-6.74 -64.56,0 -99.31,41.51 -99.31,92.22 0,54.27 35.82,88.68 91.86,88.68 20.58,0 38.66,-3.55 48.24,-8.16l-6.38 -39.73zm115.27 -161.38l0 32.27 -23.05 0 0 39.73 23.05 0 0 70.94c0,24.47 4.97,41.14 14.89,51.43 8.87,8.87 23.42,14.9 40.79,14.9 14.91,0 28.03,-2.13 34.77,-4.62l-0.36 -40.79c-4.96,1.07 -8.5,1.42 -15.96,1.42 -15.96,0 -21.28,-9.57 -21.28,-30.5l0 -62.78 38.67 0 0 -39.73 -38.67 0 0 -46.82 -52.85 14.55zm122.73 205.72l53.91 0 0 -102.87c0,-3.9 0.35,-8.5 1.78,-11.7 3.9,-9.93 12.77,-19.15 26.95,-19.15 20.22,0 28.03,15.6 28.03,38.3l0 95.42 53.91 0 0 -101.09c0,-52.49 -26.25,-76.26 -60.66,-76.26 -9.92,0 -19.86,2.48 -28.02,6.74 -8.51,4.26 -15.61,10.28 -21.28,18.09l-0.71 0 0 -99.67 -53.91 0 0 252.19zm352.21 -102.5c0,-41.16 -18.08,-75.2 -75.9,-75.2 -31.57,0 -55.34,8.87 -67.39,15.6l9.93 34.76c11.34,-7.09 30.14,-13.12 47.88,-13.12 26.6,0 31.57,13.12 31.57,22.7l0 2.12c-61.36,0 -101.8,21.29 -101.8,66.33 0,27.67 20.92,53.21 56.04,53.21 20.58,0 38.31,-7.45 49.66,-21.28l1.07 0 3.19 17.38 48.59 0c-2.12,-9.58 -2.84,-25.54 -2.84,-41.86l0 -60.64zm-52.14 39.37c0,3.19 -0.35,6.38 -1.06,9.22 -3.54,10.99 -14.9,19.86 -28.03,19.86 -12.05,0 -21.27,-6.74 -21.27,-20.58 0,-20.57 21.99,-27.3 50.36,-27.3l0 18.8zm-10.99 -124.15c7.44,-17.02 28.02,-24.48 28.02,-47.88 0,-18.09 -15.25,-30.87 -35.12,-30.87 -20.92,0 -34.75,12.07 -42.92,28.02l17.74 11c3.19,-5.67 8.16,-12.05 15.25,-12.05 5.68,0 10.65,4.25 10.65,11.35 0,13.12 -14.9,18.09 -19.16,34.76l25.54 5.67zm159.97 187.28l0 -173.45 -53.91 0 0 173.45 53.91 0zm-26.61 -248.64c-17.37,0 -28.72,11.7 -28.72,26.95 0,14.9 10.99,26.96 28.02,26.96 18.09,0 29.09,-12.06 29.09,-26.96 -0.37,-15.25 -11,-26.95 -28.39,-26.95z"/>
  <path class="fil6" d="M1712.81 7161.68l53.92 0 0 -193.66 65.26 0 0 -45.4 -183.74 0 0 45.4 64.56 0 0 193.66zm267.09 -102.5c0,-41.15 -18.09,-75.2 -75.9,-75.2 -31.57,0 -55.34,8.87 -67.4,15.61l9.94 34.76c11.34,-7.09 30.14,-13.13 47.88,-13.13 26.6,0 31.57,13.13 31.57,22.71l0 2.12c-61.37,0 -101.8,21.28 -101.8,66.33 0,27.67 20.92,53.21 56.04,53.21 20.57,0 38.31,-7.46 49.66,-21.29l1.06 0 3.19 17.38 48.59 0c-2.12,-9.58 -2.83,-25.53 -2.83,-41.85l0 -60.65zm-52.14 39.37c0,3.19 -0.36,6.39 -1.07,9.22 -3.54,10.99 -14.89,19.86 -28.02,19.86 -12.06,0 -21.28,-6.74 -21.28,-20.57 0,-20.57 21.99,-27.31 50.37,-27.31l0 18.8zm-14.19 -185.86l-30.51 53.91 36.89 0 43.28 -53.91 -49.66 0zm163.16 248.99l0 -173.44 -53.91 0 0 173.44 53.91 0zm-26.6 -248.64c-17.38,0 -28.73,11.7 -28.73,26.95 0,14.91 10.99,26.96 28.02,26.96 18.09,0 29.09,-12.05 29.09,-26.96 -0.36,-15.25 -11,-26.95 -28.38,-26.95zm131.59 240.13c13.12,7.1 33.34,12.42 56.04,12.42 49.66,0 74.85,-23.77 74.85,-56.4 -0.36,-25.19 -13.84,-42.21 -46.83,-53.56 -21.28,-7.45 -28.02,-11.7 -28.02,-20.22 0,-8.52 7.45,-13.83 20.57,-13.83 14.55,0 29.81,5.68 37.61,9.93l9.22 -37.24c-10.64,-5.32 -28.38,-10.29 -48.6,-10.29 -42.92,0 -70.58,24.48 -70.58,57.1 -0.36,20.58 13.48,40.09 49.65,52.14 19.87,6.75 25.19,11 25.19,20.22 0,8.87 -6.74,14.19 -23.06,14.19 -15.95,0 -36.53,-6.74 -46.46,-12.77l-9.58 38.31zm317.11 -202.89c4.61,7.8 7.8,15.97 7.8,23.42 0,8.5 -4.26,14.54 -18.8,14.54l-32.63 0 0 103.21c0,4.62 -0.71,8.52 -2.13,11.71 -3.19,8.51 -12.06,18.8 -26.96,18.8 -19.15,0 -27.31,-15.25 -27.31,-40.44l0 -93.28 -53.92 0 0 102.15c0,53.21 25.54,75.2 61.01,75.2 31.22,0 47.53,-17.74 54.28,-28.38l1.06 0 2.49 24.47 46.81 0c-0.71,-14.53 -1.42,-32.98 -1.42,-55.69l0 -93.28 2.84 0c18.45,-2.49 32.63,-14.89 32.63,-36.53 0,-11.35 -3.19,-23.05 -7.8,-32.28l-37.95 6.38zm-59.6 24.47c7.81,-17.02 28.39,-24.47 28.39,-47.88 0,-18.08 -15.62,-30.85 -35.48,-30.85 -21.28,0 -35.47,11.7 -43.27,28.02l17.74 10.99c3.18,-5.67 8.15,-12.06 15.25,-12.06 6.02,0 10.64,4.26 10.64,11.35 0,13.13 -14.9,18.09 -19.16,34.76l25.89 5.67zm299.01 -65.26l0 94 -0.7 0c-7.81,-11.71 -24.12,-19.51 -45.76,-19.51 -41.5,0 -78.03,34.05 -77.68,92.57 0,53.93 32.99,89.04 74.13,89.04 22.35,0 43.63,-9.94 54.27,-29.09l1.07 0 2.12 25.18 47.89 0c-0.71,-11.7 -1.42,-32.27 -1.42,-51.79l0 -200.4 -53.92 0zm0 174.87c0,4.26 -0.35,8.51 -1.06,12.41 -3.19,15.26 -15.96,25.89 -31.57,25.89 -22.35,0 -36.89,-18.44 -36.89,-47.88 0,-27.31 12.42,-49.3 37.25,-49.3 16.67,0 28.37,12.06 31.57,26.25 0.7,3.19 0.7,7.09 0.7,9.93l0 22.7zm260.71 -96.12l-53.91 0 0 103.21c0,4.62 -0.71,8.52 -2.13,11.71 -3.19,8.51 -12.06,18.8 -26.96,18.8 -19.15,0 -27.31,-15.25 -27.31,-40.44l0 -93.28 -53.92 0 0 101.8c0,53.56 25.54,75.55 61.01,75.55 31.22,0 47.53,-17.74 54.28,-28.38l1.06 0 2.49 24.47 46.81 0c-0.71,-14.53 -1.42,-32.98 -1.42,-55.69l0 -117.75zm-81.23 201.82c-14.19,0 -25.17,10.65 -25.17,25.18 0,13.49 10.63,24.83 24.82,24.83 14.19,0 24.47,-11.34 24.47,-24.83 0,-14.53 -10.28,-25.18 -24.12,-25.18zm124.5 -28.38l53.92 0 0 -100.02c0,-4.96 0.35,-9.93 1.78,-13.48 3.9,-9.93 12.77,-20.22 27.66,-20.22 19.51,0 27.31,15.25 27.31,37.6l0 96.12 53.92 0 0 -102.5c0,-51.08 -26.61,-74.85 -62.08,-74.85 -29.08,0 -46.46,16.67 -53.56,28.03l-1.07 0 -2.47 -24.12 -46.82 0c0.7,15.6 1.41,33.69 1.41,55.33l0 118.11zm372.09 -121.65c0,-25.9 0.7,-40.44 1.42,-51.79l-46.83 0 -1.77 20.92 -0.71 0c-8.87,-14.54 -23.76,-24.83 -47.53,-24.83 -42.92,0 -78.74,35.48 -78.74,91.52 0,49.66 30.5,84.42 73.42,84.42 19.86,0 36.53,-8.17 46.82,-22.35l0.71 0 0 11c0,32.27 -19.51,45.75 -45.04,45.75 -20.58,0 -39.38,-6.73 -50.38,-13.12l-10.63 41.14c15.6,8.51 39.37,13.13 62.42,13.13 25.54,0 51.43,-4.97 70.23,-21.29 19.86,-17.37 26.61,-44.69 26.61,-78.03l0 -96.47zm-53.92 44.33c0,4.61 -0.36,10.28 -1.77,14.54 -3.55,12.42 -14.54,21.64 -28.73,21.64 -22.35,0 -35.12,-20.22 -35.12,-46.11 0,-31.57 15.61,-49.3 35.47,-49.3 14.89,0 25.19,9.57 29.09,23.76 0.7,3.19 1.06,6.74 1.06,9.93l0 25.54z"/>
  <path class="fil6" d="M1926.09 2935.26l53.91 0 0 -193.67 65.26 0 0 -45.39 -183.73 0 0 45.39 64.56 0 0 193.67zm290.49 -173.45l-53.91 0 0 103.22c0,4.61 -0.72,8.52 -2.13,11.7 -3.19,8.52 -12.06,18.8 -26.96,18.8 -19.15,0 -27.31,-15.25 -27.31,-40.43l0 -93.29 -53.92 0 0 101.8c0,53.56 25.54,75.55 61.01,75.55 31.22,0 47.53,-17.74 54.27,-28.37l1.07 0 2.48 24.47 46.82 0c-0.71,-14.54 -1.42,-32.99 -1.42,-55.69l0 -117.76zm187.63 70.94c0,-41.15 -18.08,-75.19 -75.9,-75.19 -31.57,0 -55.34,8.87 -67.39,15.6l9.93 34.76c11.34,-7.09 30.15,-13.12 47.88,-13.12 26.61,0 31.57,13.12 31.57,22.7l0 2.12c-61.36,0 -101.8,21.29 -101.8,66.33 0,27.67 20.92,53.21 56.04,53.21 20.58,0 38.31,-7.45 49.66,-21.28l1.07 0 3.19 17.38 48.59 0c-2.12,-9.93 -2.84,-25.54 -2.84,-42.21l0 -60.3zm-52.14 39.38c0,3.18 -0.35,6.38 -1.06,9.22 -3.54,10.99 -14.89,19.85 -28.03,19.85 -12.05,0 -21.27,-6.73 -21.27,-20.57 0,-20.57 21.99,-27.3 50.36,-27.3l0 18.8zm-7.09 -220.27l37.6 53.56 26.95 0 -24.12 -53.56 -40.43 0zm-33.34 34.4l-31.57 53.91 34.41 0 15.6 -30.85 0.72 0 15.95 30.85 34.06 0 -31.57 -53.91 -37.6 0zm135.5 249l53.91 0 0 -100.02c0,-4.97 0.35,-9.94 1.78,-13.48 3.9,-9.94 12.77,-20.22 27.66,-20.22 19.51,0 27.31,15.25 27.31,37.6l0 96.12 53.92 0 0 -102.51c0,-51.07 -26.61,-74.84 -62.08,-74.84 -29.08,0 -46.46,16.67 -53.56,28.02l-1.07 0 -2.47 -24.12 -46.82 0c0.7,15.61 1.42,33.69 1.42,55.33l0 118.12zm279.5 0l53.91 0 0 -102.87c0,-3.9 0.35,-8.5 1.78,-11.7 3.9,-9.93 12.77,-19.15 26.95,-19.15 20.22,0 28.03,15.6 28.03,38.3l0 95.42 53.91 0 0 -101.09c0,-52.49 -26.25,-76.26 -60.66,-76.26 -9.92,0 -19.86,2.48 -28.02,6.74 -8.51,4.26 -15.61,10.28 -21.28,18.08l-0.71 0 0 -99.67 -53.91 0 0 252.2zm290.85 -177.7c-56.04,0 -92.93,35.82 -92.93,92.22 0,56.04 39.02,89.38 89.74,89.38 46.47,0 91.51,-29.09 91.51,-92.58 0,-52.49 -35.47,-89.02 -88.32,-89.02zm-1.77 38.66c24.47,0 34.41,26.25 34.41,51.79 0,31.56 -13.13,52.49 -34.41,52.49 -23.05,0 -35.47,-22.35 -35.47,-52.14 0,-25.54 9.93,-52.14 35.47,-52.14zm267.79 36.53c0,-41.15 -18.09,-75.19 -75.9,-75.19 -31.57,0 -55.34,8.87 -67.39,15.6l9.93 34.76c11.34,-7.09 30.14,-13.12 47.88,-13.12 26.6,0 31.57,13.12 31.57,22.7l0 2.12c-61.36,0 -101.8,21.29 -101.8,66.33 0,27.67 20.92,53.21 56.04,53.21 20.57,0 38.31,-7.45 49.66,-21.28l1.07 0 3.18 17.38 48.6 0c-2.13,-9.58 -2.84,-25.54 -2.84,-41.86l0 -60.65zm-52.14 39.38c0,3.18 -0.35,6.38 -1.07,9.22 -3.54,10.99 -14.89,19.85 -28.02,19.85 -12.05,0 -21.27,-6.73 -21.27,-20.57 0,-20.57 21.98,-27.3 50.36,-27.3l0 18.8zm-78.03 -185.87l43.27 53.91 36.89 0 -30.51 -53.91 -49.65 0zm173.09 249l53.91 0 0 -100.02c0,-4.97 0.36,-9.94 1.78,-13.48 3.9,-9.94 12.77,-20.22 27.66,-20.22 19.52,0 27.32,15.25 27.32,37.6l0 96.12 53.91 0 0 -102.51c0,-51.07 -26.6,-74.84 -62.07,-74.84 -29.08,0 -46.46,16.67 -53.56,28.02l-1.07 0 -2.47 -24.12 -46.83 0c0.71,15.61 1.42,33.69 1.42,55.33l0 118.12z"/>
  <path class="fil7" d="M4312.06 4727.21l-115.74 0 0 54.87 47.96 0 0 65.09c-5.53,2.31 -18.44,4.07 -34.13,4.07 -57.63,0 -98.21,-37.12 -98.21,-101.43 0,-68.09 44.72,-100.99 103.29,-100.99 34.11,0 54.87,5.53 71.93,13.45l14.76 -57.26c-15.22,-6.45 -46.11,-14.28 -86.23,-14.28 -101.91,0 -177.07,59.01 -177.53,162.77 0,45.49 15.68,85.83 43.81,112.97 28.58,27.19 69.63,41.49 126.34,41.49 41.03,0 82.08,-10.14 103.75,-17.52l0 -163.23zm55.33 -133.26l0 310.78 70.09 0 0 -310.78 -70.09 0zm292.33 231.01l23.98 79.77 76.09 0 -96.84 -310.78 -92.22 0 -94.53 310.78 72.4 0 22.13 -79.77 88.99 0zm-78.84 -52.56l18.44 -65.94c5.08,-17.99 9.68,-41.5 14.3,-59.94l0.92 0c4.61,18.44 10.15,41.49 15.68,59.94l19.36 65.94 -68.7 0zm54.87 -193.21c12.45,-23.05 34.58,-28.12 34.58,-55.33 0,-21.21 -19.83,-39.19 -44.73,-39.19 -28.12,0 -45.18,15.21 -56.25,36.43l22.14 13.82c4.14,-6.9 11.98,-16.13 20.74,-16.13 7.84,0 13.83,6 13.83,14.29 0,14.76 -16.13,18.44 -22.59,39.2l32.28 6.91zm432.98 325.54l68.24 0 -16.6 -310.78 -92.22 0 -32.74 103.29c-10.61,34.58 -21.2,75.62 -29.51,111.59l-1.84 0c-6.92,-36.43 -16.15,-75.16 -26.28,-111.14l-30.44 -103.74 -93.6 0 -19.83 310.78 65.01 0 6 -118.03c1.84,-38.74 3.68,-86.69 5.07,-128.66l0.93 0c7.83,40.58 17.97,84.85 28.12,121.74l33.2 119.89 54.88 0 37.8 -121.28c12,-36.43 24.91,-80.7 35.05,-120.35l0.91 0c0,45.19 1.39,90.38 2.78,127.73l5.07 118.96zm-591.14 507.68c-14.29,5.99 -37.35,10.15 -59.02,10.15 -62.25,0 -99.14,-39.2 -99.14,-101.44 0,-69.17 43.35,-102.83 98.68,-102.83 25.37,0 45.19,5.53 59.02,11.52l14.76 -55.33c-12.45,-6.91 -40.12,-13.83 -76.55,-13.83 -94.07,0 -169.69,58.56 -169.69,164.61 0,88.54 55.33,155.85 162.78,155.85 37.35,0 66.86,-7.37 79.3,-13.36l-10.14 -55.34zm57.18 -247.15l0 310.78 70.09 0 0 -130.03 115.73 0 0 130.03 70.09 0 0 -310.78 -70.09 0 0 119.43 -115.73 0 0 -119.43 -70.09 0zm317.7 0l0 310.78 70.09 0 0 -310.78 -70.09 0zm-589.29 882.1l69.63 0 0 -111.59c6.45,1.38 14.75,1.84 23.98,1.84 41.49,0 76.99,-10.61 100.97,-32.74 18.9,-17.06 28.6,-43.34 28.6,-73.77 0,-30.44 -12.92,-56.26 -33.2,-71.93 -20.75,-16.6 -51.65,-24.91 -95,-24.91 -42.88,0 -73.31,2.78 -94.98,6.46l0 306.64zm69.63 -257.3c5.06,-1.38 14.75,-2.31 28.58,-2.31 35.51,0 55.34,17.06 55.34,45.65 0,31.36 -23.06,50.26 -60.41,50.26 -10.6,0 -17.52,-0.46 -23.51,-1.84l0 -91.76zm198.73 -53.49l0 310.79 70.09 0 0 -130.04 115.74 0 0 130.04 70.09 0 0 -310.79 -70.09 0 0 119.43 -115.74 0 0 -119.43 -70.09 0zm317.7 0l0 310.79 70.09 0 0 -310.79 -70.09 0zm39.65 -73.31l-38.74 56.71 56.26 0 56.25 -56.71 -73.77 0z"/>
 </g>
</svg>
